<svg width="157" height="69" viewBox="0 0 157 69" fill="none" xmlns="http://www.w3.org/2000/svg">
<path d="M88.4877 3.23057C88.4964 3.13223 88.5402 3.05045 88.624 3.00176C88.9833 2.79243 89.3435 2.58601 89.7047 2.38154C90.1195 2.14884 90.5372 1.92101 90.952 1.68733C90.9861 1.66785 91.0036 1.62209 91.0299 1.58607C90.9257 1.5072 90.8468 1.5812 90.7631 1.60944C90.5294 1.6883 90.3006 1.78761 90.0621 1.84214C89.2091 2.03492 88.3952 2.35915 87.6026 2.70188C86.3904 3.22668 85.1432 3.68235 83.9884 4.3347C83.3468 4.69787 82.6818 5.02015 82.0333 5.36677C80.9603 5.94025 79.9419 6.59747 78.8923 7.20406C78.1728 7.61981 77.497 8.10566 76.7649 8.50583C76.3637 8.72491 76.0142 9.04037 75.6422 9.31202C75.3784 9.50578 75.0434 9.54764 74.8137 9.79495C74.6033 10.0208 74.322 10.1581 74.063 10.3236C73.7183 10.5447 73.3834 10.792 73.063 11.0451C72.5431 11.456 71.9706 11.789 71.4507 12.1989C70.7506 12.7519 70.0165 13.2612 69.3028 13.7976C68.7234 14.2319 68.1392 14.6613 67.5833 15.1238C66.9212 15.6749 66.2241 16.1812 65.5902 16.7683C65.3088 17.0282 64.9866 17.2454 64.6876 17.4888C64.1609 17.9152 63.6595 18.3719 63.1386 18.8042C62.717 19.1537 62.3158 19.5364 61.9186 19.919C61.607 20.2189 61.2828 20.5042 60.9498 20.7778C60.4016 21.2276 59.9167 21.7446 59.4085 22.2353C58.2898 23.318 57.1662 24.4008 56.1019 25.536C54.7739 26.9527 53.4332 28.3596 52.1694 29.8357C51.5472 30.562 50.9815 31.338 50.3408 32.043C49.5512 32.9124 48.8911 33.8793 48.1462 34.7809C48.0605 34.8851 47.9612 34.9834 47.9203 35.1606C48.2971 35.0769 48.6574 35.0107 49.0098 34.9143C49.8443 34.6855 50.6913 34.5277 51.5482 34.4167C51.8334 34.3797 52.0554 34.2882 52.2453 34.036C52.6513 33.4957 53.0525 32.9436 53.5743 32.5016C53.6513 32.4363 53.6902 32.3652 53.7116 32.2718C53.7428 32.1316 53.8314 32.0186 53.9336 31.9252C54.7544 31.1803 55.4155 30.2914 56.1448 29.4657C57.1827 28.2905 58.2197 27.1192 59.3345 26.0141C59.9323 25.4221 60.4347 24.725 61.0715 24.1719C61.8514 23.4943 62.5154 22.6998 63.3197 22.0474C63.7237 21.7203 64.0606 21.3113 64.4364 20.9482C65.377 20.0388 66.3847 19.2044 67.3701 18.3446C67.9036 17.8792 68.4236 17.3963 68.962 16.9357C69.7935 16.224 70.6552 15.5463 71.4653 14.8122C72.1721 14.1715 72.9462 13.6175 73.6823 13.0178C74.2801 12.5299 74.8419 11.9789 75.5361 11.6118C75.5906 11.5836 75.6364 11.5388 75.6919 11.5144C75.7523 11.4881 75.8146 11.4988 75.8564 11.5563C75.8983 11.6157 75.8837 11.6761 75.8331 11.7189C75.6198 11.8971 75.4066 12.0753 75.1875 12.2456C74.5926 12.7072 73.9851 13.1541 73.3989 13.6273C71.8284 14.894 70.2472 16.1471 68.739 17.4888C67.8306 18.2969 66.9524 19.1372 66.0508 19.9502C65.2504 20.6726 64.4754 21.4243 63.6673 22.1341C62.8036 22.8935 62.0189 23.7309 61.1942 24.5254C60.3442 25.3442 59.5312 26.2108 58.7201 27.0744C58.0668 27.7715 57.4359 28.4891 56.7835 29.1863C56.1321 29.8815 55.5285 30.6214 54.9005 31.338C54.6979 31.5698 54.4828 31.7908 54.2763 32.0196C53.6775 32.6827 53.2014 33.448 52.5666 34.0818C52.5413 34.1071 52.5501 34.1655 52.5364 34.2473C52.8558 34.2016 53.1547 34.1626 53.4526 34.1149C54.3513 33.9708 55.2549 33.8657 56.1613 33.78C56.6209 33.7362 57.0766 33.6524 57.5352 33.5979C57.7649 33.5706 57.9353 33.4606 58.0902 33.298C58.8009 32.5483 59.5019 31.7888 60.2312 31.0576C61.4171 29.8688 62.5514 28.6254 63.8707 27.5729C64.2797 27.2467 64.6497 26.8699 65.0391 26.5194C65.2475 26.3315 65.4831 26.1845 65.7489 26.0939C65.8667 26.053 65.9914 26.0316 66.0868 26.1524C66.1939 26.2896 66.1296 26.3938 66.0488 26.5243C65.6447 27.1737 65.0732 27.68 64.5504 28.2175C63.2612 29.5426 61.9283 30.8259 60.5535 32.0654C60.13 32.447 59.7347 32.8599 59.2975 33.2289C59.2313 33.2844 59.1368 33.3321 59.1398 33.4557C59.7707 33.4061 60.3997 33.3652 61.0267 33.3048C61.3217 33.2766 61.5827 33.1568 61.8212 32.964C62.3713 32.5171 62.939 32.0907 63.4988 31.6545C63.6585 31.5299 63.8328 31.4315 64.0236 31.3663C64.0996 31.34 64.1774 31.3371 64.2359 31.4043C64.2933 31.4695 64.2875 31.5484 64.2563 31.6204C64.2261 31.6905 64.1989 31.7733 64.1434 31.819C63.7344 32.1549 63.4277 32.5833 63.084 32.9777C63.0246 33.0458 62.9068 33.0449 62.8805 33.186C62.9818 33.2591 63.1045 33.2182 63.2174 33.2123C65.0508 33.1198 66.8842 33.0166 68.7205 33.0341C69.2521 33.039 69.554 32.6866 69.9327 32.4412C70.0291 32.3789 69.9824 32.2854 69.9444 32.1949C69.7857 31.8171 69.8509 31.4461 69.9678 31.0683C70.2209 30.2514 70.6172 29.5076 71.068 28.7861C71.4935 28.1075 71.8966 27.4142 72.3211 26.7356C72.5421 26.3831 72.7807 26.0404 73.027 25.7054C73.6024 24.9246 74.208 24.1642 74.7601 23.3677C75.1379 22.8234 75.577 22.3269 75.9635 21.7709C75.8331 21.6239 75.6461 21.6365 75.4952 21.6064C74.4875 21.4068 73.5489 21.027 72.6512 20.5431C72.029 20.2082 71.5616 19.6892 71.1566 19.1216C70.9443 18.8246 70.8645 18.4615 70.9278 18.1041C71.0505 17.4002 71.2705 16.74 71.7739 16.1899C73.0212 14.8258 74.4544 13.6954 75.9908 12.676C77.2906 11.8133 78.6411 11.0403 80.013 10.3051C80.9224 9.81832 81.8542 9.37044 82.7889 8.93424C83.9495 8.39386 85.1071 7.84764 86.294 7.36568C87.7506 6.7737 89.2315 6.24501 90.7066 5.70268C91.9081 5.26064 93.1359 4.89844 94.3549 4.51287C96.1932 3.9316 98.0441 3.39317 99.9135 2.92679C101.664 2.49059 103.413 2.04661 105.199 1.76522C106.25 1.5997 107.273 1.2891 108.329 1.13916C109.091 1.03108 109.851 0.913272 110.622 0.871405C111.684 0.81396 112.741 0.675701 113.81 0.691279C115.216 0.711726 116.614 0.808118 117.982 1.15669C118.438 1.27255 118.916 1.35726 119.285 1.67954C119.325 1.71459 119.353 1.71459 119.353 1.71459C119.353 1.71459 119.438 1.79155 119.438 1.80206C119.438 1.81258 119.555 1.84703 119.555 1.84703C119.555 1.84703 119.555 1.84703 119.606 2.03298C120.562 2.50909 121.035 3.43796 120.497 4.48269C120.12 5.21488 119.613 5.85262 119.065 6.46311C117.918 7.73859 116.692 8.93424 115.41 10.0715C113.495 11.7715 111.52 13.4004 109.489 14.9602C108.841 15.4577 108.222 15.9913 107.568 16.484C106.363 17.3934 105.176 18.3281 103.989 19.2628C103.192 19.8908 102.409 20.5353 101.623 21.1702C101.689 21.3308 101.814 21.2841 101.911 21.287C103.238 21.324 104.565 21.3522 105.888 21.4564C107.441 21.5781 108.993 21.7135 110.508 22.1088C110.973 22.2305 111.425 22.3863 111.758 22.765C112.062 23.1116 112.069 23.3735 111.834 23.7533C111.357 24.5264 110.634 25.021 109.89 25.4864C108.999 26.0433 108.032 26.4571 107.084 26.905C105.482 27.6615 103.867 28.3918 102.257 29.1337C101.319 29.566 100.372 29.9788 99.4471 30.4355C98.5075 30.8989 97.5845 31.3984 96.6634 31.8998C96.4784 32.0001 96.2487 32.0323 96.0754 32.265C96.4376 32.265 96.7647 32.2903 97.086 32.2611C99.2203 32.0624 101.353 31.8356 103.488 31.6506C105.346 31.4899 107.203 31.3059 109.062 31.1472C110.691 31.008 112.32 30.897 113.95 30.7811C115.165 30.6954 116.376 30.5572 117.591 30.4627C118.729 30.3731 119.869 30.3089 121.008 30.2359C122.069 30.1677 123.131 30.1025 124.194 30.0363C125.041 29.9827 125.887 29.9233 126.734 29.8776C128.367 29.7899 129.999 29.7052 131.632 29.6273C133.62 29.5319 135.61 29.4404 137.6 29.4141C138.033 29.4083 138.46 29.3469 138.892 29.3333C140.511 29.2827 142.132 29.3752 143.751 29.2554C144.443 29.2048 145.139 29.2291 145.833 29.2301C148.07 29.233 150.308 29.2408 152.546 29.2457C153.255 29.2476 153.965 29.2126 154.673 29.3109C154.851 29.3352 155.04 29.2827 155.224 29.2661C155.362 29.2534 155.502 29.2291 155.635 29.2866C155.667 29.3002 155.689 29.3547 155.7 29.3946C155.705 29.4131 155.674 29.4569 155.651 29.4638C155.579 29.4871 155.503 29.5115 155.429 29.5124C154.905 29.5183 154.378 29.604 153.86 29.5777C153.166 29.5436 152.473 29.6079 151.779 29.565C151.197 29.529 150.608 29.601 150.022 29.6108C148.572 29.6351 147.12 29.6449 145.672 29.7325C144.377 29.8104 143.081 29.7851 141.786 29.8191C140.722 29.8474 139.66 29.9068 138.596 29.9535C138.503 29.9574 138.411 29.9662 138.318 29.9681C136.808 29.9886 135.301 30.0849 133.793 30.1638C132.298 30.2417 130.803 30.2953 129.308 30.377C127.784 30.4598 126.262 30.5562 124.739 30.6604C122.601 30.8074 120.463 30.9593 118.327 31.1238C116.13 31.2923 113.933 31.4802 111.736 31.6555C110.413 31.7606 109.09 31.8473 107.77 31.9631C106.28 32.0936 104.792 32.2543 103.303 32.3906C102.136 32.4977 100.968 32.5804 99.8006 32.6875C98.158 32.8375 96.5154 32.9913 94.8758 33.1627C94.4932 33.2026 94.1241 33.3418 93.7951 33.5502C92.9489 34.0876 92.1097 34.6358 91.2655 35.1762C91.2003 35.2181 91.1165 35.2453 91.1389 35.3378C91.1613 35.4264 91.2548 35.4245 91.3278 35.4449C92.7786 35.8607 94.2283 36.2706 95.6177 36.8791C96.2788 37.1683 96.9565 37.4195 97.6098 37.734C98.4764 38.1507 99.2981 38.6453 100.027 39.2626C100.755 39.878 101.428 40.5605 101.905 41.4056C102.019 41.6082 102.113 41.8175 102.196 42.0346C102.362 42.4689 102.359 42.8817 102.223 43.3403C101.972 44.1883 101.486 44.7978 100.731 45.2525C100.27 45.53 99.8278 45.8552 99.3439 46.0821C98.5504 46.455 97.7247 46.7559 96.8591 46.9409C95.2283 47.2904 93.577 47.2953 91.9286 47.2106C90.4301 47.1336 88.9667 46.8416 87.5841 46.2097C86.8597 45.8786 86.2259 45.4307 85.6368 44.902C85.0448 44.3704 84.6154 43.7346 84.4723 42.9557C84.2552 41.7756 84.6125 40.727 85.3622 39.8127C85.7235 39.3726 86.1295 38.9695 86.5072 38.5431C87.4536 37.4769 88.5441 36.5724 89.6745 35.7127C89.7213 35.6776 89.7563 35.628 89.8031 35.5783C89.6619 35.4401 89.4896 35.4138 89.3299 35.3777C88.3367 35.1596 87.3426 34.9474 86.3476 34.739C86.0613 34.6796 85.7634 34.666 85.4859 34.5823C85.1802 34.4907 84.966 34.5842 84.7284 34.7692C83.4607 35.7516 82.194 36.735 80.9029 37.6863C79.9604 38.3805 79.0198 39.0776 78.0306 39.7086C77.0316 40.3463 76.0833 41.0688 75.0347 41.6247C73.9549 42.1962 73.0309 43.0131 71.9375 43.5584C71.8382 43.608 71.772 43.6937 71.697 43.7716C71.547 43.9255 71.3543 43.9089 71.1771 43.8544C70.9512 43.7843 70.9093 43.4902 71.0914 43.3403C71.1264 43.3111 71.1663 43.2809 71.2082 43.2663C71.8031 43.0706 72.2734 42.6646 72.7962 42.3452C73.2071 42.094 73.5508 41.7571 73.9598 41.5088C74.6189 41.1096 75.3141 40.7737 75.9519 40.3375C76.7668 39.7816 77.5934 39.2431 78.4055 38.6833C78.8485 38.3776 79.3071 38.0962 79.7365 37.7671C80.8007 36.9521 81.8863 36.1674 82.9622 35.368C83.3906 35.0496 83.8141 34.7254 84.2883 34.3671C83.7391 34.261 83.2533 34.3223 82.7694 34.371C81.711 34.4771 80.6546 34.5969 79.5972 34.704C77.756 34.8909 75.911 35.0331 74.0746 35.2599C73.7991 35.294 73.5206 35.2979 73.2451 35.3349C72.9403 35.3758 72.7028 35.5218 72.5411 35.8022C72.1858 36.4147 71.8275 37.0261 71.4458 37.623C71.1498 38.0845 70.9083 38.5889 70.4614 38.9481C70.8674 37.735 71.6074 36.6776 72.0894 35.4654C71.8518 35.4654 71.6249 35.4517 71.4 35.4673C70.4468 35.5355 69.4936 35.6153 68.5404 35.6864C68.2016 35.7117 67.8627 35.7351 67.5239 35.7458C67.1354 35.7575 66.8005 35.8986 66.5142 36.1498C64.9476 37.5208 63.3693 38.879 61.828 40.2781C61.164 40.8808 60.4853 41.4563 59.759 41.9781C59.316 42.2965 58.8165 42.501 58.2985 42.6558C57.874 42.7834 57.4972 42.5429 57.392 42.1164C57.3346 41.8856 57.3336 41.6637 57.393 41.4319C57.7114 40.1905 58.2713 39.0611 59.0171 38.03C59.4056 37.4935 59.7629 36.9405 60.1358 36.3709C59.9985 36.2657 59.8554 36.3037 59.7278 36.3105C59.2809 36.3329 58.834 36.3631 58.3891 36.4059C58.1388 36.4293 57.9246 36.5383 57.725 36.7019C57.2723 37.0738 56.8127 37.4419 56.2607 37.6629C56.1467 37.7087 56.0309 37.7544 55.9111 37.7817C55.3775 37.9063 55.1293 37.4808 55.249 37.0018C55.2666 36.9307 55.3045 36.8645 55.3474 36.7632C55.1828 36.7886 55.1215 36.9025 55.0348 36.9716C54.1644 37.659 53.3144 38.3756 52.4215 39.0319C51.703 39.5606 50.9357 40.026 50.075 40.3054C49.6291 40.4505 49.1861 40.5371 48.7187 40.3648C48.264 40.1973 48.1151 39.9383 48.2747 39.4797C48.377 39.1867 48.5474 38.9267 48.7168 38.6687C49.0975 38.0903 49.4509 37.4935 49.8949 36.958C50.0186 36.809 50.2328 36.7262 50.2542 36.5004C50.2113 36.4419 50.1578 36.4137 50.0925 36.4157C49.2425 36.4458 48.4013 36.293 47.5503 36.2901C47.1248 36.2891 46.8766 36.4741 46.6332 36.7895C46.2768 37.251 45.9574 37.7408 45.5699 38.1789C45.3781 38.3961 45.236 38.657 45.0704 38.8975C44.4337 39.8234 43.8115 40.7611 43.1533 41.6714C42.6207 42.4085 42.13 43.1718 41.6354 43.9342C40.7552 45.2895 39.8984 46.6575 39.0756 48.0489C38.3688 49.2445 37.6794 50.4489 37.0164 51.668C36.1683 53.2268 35.366 54.8099 34.6553 56.4359C34.3982 57.024 34.1606 57.6316 34.1012 58.2878C34.0876 58.4368 33.9854 58.576 33.9669 58.726C33.9532 58.8321 33.9143 58.9879 34.075 59.0434C34.1908 59.0833 34.2843 59.0249 34.3612 58.9392C34.5043 58.7776 34.6494 58.6179 34.851 58.5332C34.9542 58.5819 34.9386 58.6627 34.9074 58.7289C34.6942 59.1865 34.3515 59.503 33.8637 59.6451C33.52 59.7454 33.3992 59.6587 33.4109 59.3014C33.4362 58.541 33.5794 57.7952 33.8393 57.0844C34.6329 54.9209 35.7195 52.8938 36.8177 50.8744C37.7018 49.2484 38.655 47.6614 39.6267 46.087C40.4514 44.7501 41.3053 43.4279 42.204 42.1398C42.9625 41.0532 43.6713 39.9296 44.4726 38.8751C45.1211 38.0212 45.6975 37.1138 46.4433 36.3017C46.2671 36.1654 46.0869 36.255 45.937 36.2005C45.8202 36.1576 45.6907 36.1197 45.6751 35.9736C45.6614 35.849 45.7637 35.7857 45.8542 35.7253C46.011 35.6202 46.1901 35.5608 46.3712 35.5306C46.936 35.4362 47.3371 35.1372 47.6789 34.6738C48.4928 33.5706 49.3195 32.4743 50.2191 31.4374C50.925 30.6234 51.6631 29.8367 52.3505 29.0071C53.7584 27.3052 55.3425 25.7707 56.8594 24.171C57.6978 23.2869 58.6072 22.4768 59.4912 21.6395C60.1933 20.9754 60.8991 20.3153 61.6041 19.6542C62.3002 19.0009 63.049 18.4021 63.7695 17.7741C64.932 16.7605 66.1666 15.8365 67.3438 14.8385C68.0098 14.2738 68.739 13.7792 69.443 13.2573C70.5422 12.4443 71.661 11.6556 72.7515 10.829C73.3152 10.4015 73.95 10.0773 74.5167 9.64988C75.0444 9.25068 75.6529 8.96248 76.1729 8.56133C76.8603 8.03166 77.611 7.61202 78.347 7.17095C79.0851 6.72891 79.7997 6.24501 80.5699 5.85457C80.9107 5.68126 81.233 5.46706 81.5504 5.25285C81.8727 5.03475 82.2397 4.90915 82.5785 4.72416C83.6983 4.11076 84.8209 3.49541 86.0039 3.01442C87.7438 2.30755 89.4886 1.60846 91.3035 1.10703C91.47 1.06127 91.6374 1.02427 91.8039 1.07587C92.0006 1.13624 92.0454 1.34168 91.8838 1.46631C91.7387 1.57828 91.5751 1.6698 91.4116 1.75451C90.9617 1.98916 90.5177 2.23744 90.0543 2.43802C89.5168 2.67169 89.0397 3.02318 88.4847 3.21889L88.4964 3.22668L88.4877 3.23057ZM83.0216 21.6317C83.9349 21.6171 84.7644 21.6297 85.5959 21.5849C87.3212 21.4934 89.0485 21.4662 90.7738 21.3668C92.7143 21.2558 94.6587 21.2627 96.6021 21.2529C97.8055 21.2471 99.009 21.249 100.213 21.2558C100.469 21.2578 100.72 21.2296 100.911 21.0631C101.516 20.5344 102.207 20.1206 102.815 19.5938C103.409 19.0797 104.043 18.6124 104.644 18.1061C105.316 17.5384 106.045 17.0448 106.738 16.5054C108.186 15.3789 109.616 14.23 111.038 13.0703C112.185 12.1346 113.35 11.2204 114.454 10.236C115.557 9.25263 116.676 8.28092 117.663 7.1729C118.319 6.43584 119.016 5.73286 119.574 4.91499C119.798 4.58493 120.038 4.25875 120.167 3.87221C120.297 3.47885 120.042 2.83235 119.663 2.69701C119.168 2.51883 118.77 2.20531 118.359 1.89569C118.129 1.78664 118.129 1.78664 117.762 1.71459C117.037 1.5112 117.151 1.55988 117.037 1.5112C116.701 1.40886 116.721 1.42931 116.353 1.40886C115.799 1.37771 115.246 1.3261 114.692 1.30566C113.736 1.2706 112.782 1.30079 111.827 1.36505C110.642 1.44391 109.456 1.52181 108.286 1.72238C106.767 1.98235 105.251 2.25497 103.738 2.55096C101.968 2.89661 100.209 3.2851 98.4793 3.78555C96.5855 4.33275 94.6869 4.86826 92.8185 5.50406C91.6374 5.90617 90.4535 6.29661 89.2754 6.70749C86.6504 7.62176 84.1237 8.76483 81.6283 9.97605C80.0909 10.7228 78.5953 11.5534 77.1533 12.4783C75.6072 13.4695 74.099 14.5055 72.806 15.8297C72.3795 16.2668 72.028 16.7449 71.734 17.2697C71.3173 18.0126 71.4438 18.6104 72.0212 19.2414C72.8498 20.1469 73.9052 20.6054 75.0541 20.9073C75.4115 21.0017 75.7737 21.0786 76.1368 21.1507C76.3218 21.1877 76.4796 21.1672 76.6266 20.991C77.2595 20.2345 77.9255 19.5062 78.5564 18.7477C79.5943 17.4995 80.7676 16.3847 81.9564 15.2873C82.8395 14.4724 83.7489 13.6847 84.6515 12.8912C85.9269 11.7705 87.293 10.7667 88.6493 9.75503C89.585 9.05692 90.5586 8.40068 91.5479 7.77267C92.7445 7.01322 93.9431 6.26156 95.1981 5.60045C96.0325 5.16133 96.8835 4.77187 97.8036 4.54793C97.9487 4.51287 98.0918 4.45932 98.231 4.54793C98.1892 4.80887 98.0519 4.93155 97.8182 5.00944C96.8484 5.32977 95.9488 5.8127 95.0491 6.28493C94.2868 6.6851 93.5575 7.14758 92.8165 7.58865C91.5041 8.3705 90.2422 9.23023 88.9959 10.1104C87.8003 10.9555 86.665 11.8786 85.5346 12.8104C84.4869 13.674 83.4782 14.5775 82.4744 15.4908C81.3099 16.5502 80.2398 17.704 79.1591 18.847C78.7355 19.2949 78.3334 19.7632 77.9293 20.2277C77.6499 20.548 77.3637 20.8644 77.1329 21.2335C77.2517 21.3084 77.3559 21.3289 77.4649 21.3396C78.8144 21.4788 80.1629 21.6171 81.5221 21.6473C81.9642 21.657 82.2865 21.5178 82.5912 21.2296C83.4198 20.4467 84.3156 19.7389 85.1694 18.9843C85.8374 18.3933 86.5043 17.7964 87.1966 17.2308C88.0203 16.557 88.8119 15.8452 89.619 15.152C90.6482 14.267 91.6968 13.4033 92.7026 12.493C94.1767 11.1581 95.6479 9.81929 97.086 8.44352C97.901 7.66362 98.64 6.8146 99.4228 6.00646C99.5289 5.89741 99.6126 5.76305 99.6896 5.62966C99.8892 5.28401 99.7558 4.98023 99.3634 4.92278C99.1531 4.89163 98.9398 4.82931 98.7208 4.87605C98.5708 4.90818 98.492 4.85658 98.4822 4.68911C98.4735 4.54598 98.4365 4.41454 98.6361 4.36975C99.1336 4.25778 99.5795 4.22175 99.9914 4.66379C100.309 5.0036 100.376 5.28011 100.128 5.68808C99.8298 6.17685 99.4812 6.63739 99.082 7.03951C98.3342 7.79409 97.5553 8.51946 96.79 9.2575C95.5593 10.4444 94.2984 11.6021 93.0473 12.7675C91.8059 13.9223 90.4924 14.9952 89.2296 16.1257C87.9434 17.2765 86.5764 18.3329 85.3213 19.5208C84.9533 19.8694 84.5414 20.1722 84.1705 20.5188C83.8044 20.8615 83.3516 21.1166 83.0274 21.6365L83.0216 21.6317ZM70.7876 32.339C70.9833 32.5376 71.2199 32.6203 71.4867 32.6573C72.4418 32.7907 73.2772 32.448 74.0824 32.005C74.5274 31.7596 74.9373 31.4724 75.2576 31.0528C76.1203 29.9253 77.1076 28.9029 78.0559 27.8494C78.7774 27.0481 79.5524 26.2945 80.3119 25.5292C81.0928 24.7425 81.9067 23.9879 82.6691 23.1817C82.9534 22.8819 83.2971 22.6365 83.6262 22.3814C83.8131 22.2363 83.9874 22.3006 84.1646 22.4495C84.3526 22.6073 84.2114 22.7251 84.152 22.8507C83.9514 23.2703 83.6428 23.6189 83.3828 23.9996C82.9563 24.6247 82.4831 25.2147 81.9622 25.758C81.0772 26.681 80.1473 27.5612 79.2496 28.4735C78.0141 29.7286 76.6821 30.8717 75.2868 31.9456C74.9324 32.2182 74.6296 32.5648 74.4563 33.0312C75.6237 33.077 76.7454 33.114 77.8661 33.2026C79.4181 33.3243 80.972 33.4197 82.5192 33.5979C82.8891 33.6407 83.2552 33.6398 83.6262 33.63C84.076 33.6183 84.5132 33.519 84.9591 33.484C85.3447 33.4538 85.6748 33.3058 85.9552 33.0458C86.5657 32.4792 87.2589 32.0157 87.8937 31.4782C88.8099 30.7032 89.7768 29.9886 90.7105 29.234C91.9091 28.2652 93.0892 27.274 94.2897 26.3081C95.6703 25.1982 97.0656 24.1057 98.453 23.0045C98.9515 22.6092 99.4471 22.211 99.9836 21.7836C99.6613 21.6891 99.3994 21.7466 99.1433 21.7485C97.3849 21.7592 95.6255 21.7583 93.8681 21.8021C92.0026 21.8488 90.138 21.951 88.2725 22.0095C86.4995 22.065 84.7294 22.1954 82.9534 22.1584C82.5377 22.1497 82.1122 22.2178 81.7977 22.5372C81.4082 22.9325 80.9749 23.2791 80.5582 23.6394C79.2642 24.7581 77.9917 25.8992 76.7191 27.0423C75.6753 27.9789 74.6257 28.9097 73.58 29.8435C72.6609 30.6643 71.7427 31.4851 70.7886 32.338L70.7876 32.339ZM92.6491 46.6624C93.0707 46.7744 93.5789 46.6585 94.0862 46.6546C96.1552 46.64 98.123 46.2038 99.9476 45.199C100.601 44.8387 101.204 44.424 101.614 43.7745C102.004 43.1602 102.011 42.5175 101.744 41.8779C101.598 41.5264 101.38 41.1992 101.142 40.8925C100.479 40.0347 99.5727 39.4739 98.6916 38.8839C97.7783 38.2724 96.7472 37.8898 95.7599 37.4244C95.0102 37.07 94.2118 36.8246 93.4183 36.5802C92.579 36.3212 91.7504 36.0281 90.9023 35.7945C90.5908 35.7088 90.3327 35.737 90.0854 35.9444C89.6609 36.3008 89.2228 36.6415 88.8012 37.0018C87.7185 37.9258 86.7984 39.0046 85.8792 40.0834C85.6261 40.3804 85.446 40.7182 85.2863 41.0697C84.7634 42.2177 85.037 43.3364 85.7312 44.1309C86.7458 45.2934 88.0865 45.8932 89.5421 46.2681C90.5294 46.5222 91.5401 46.6449 92.6481 46.6634L92.6491 46.6624ZM86.6445 33.2746C86.774 33.2854 86.8208 33.298 86.8646 33.2912C88.2978 33.0721 89.7456 32.9845 91.1857 32.8268C92.1194 32.7245 93.056 32.6437 93.9908 32.5395C94.3588 32.4986 94.7142 32.4042 95.0374 32.2007C95.9254 31.6438 96.8523 31.153 97.7831 30.6711C98.7276 30.1823 99.6935 29.7383 100.658 29.2904C102.139 28.6021 103.611 27.8932 105.079 27.1737C106.627 26.4143 108.229 25.7648 109.722 24.8915C110.127 24.6549 110.484 24.3813 110.824 24.0717C110.961 23.947 111.07 23.7932 111.207 23.6705C111.521 23.3891 111.578 23.3434 111.156 23.0075C111.074 22.9412 110.969 22.9004 110.871 22.8556C110.208 22.5518 109.509 22.3921 108.788 22.2801C106.375 21.9082 103.942 21.8313 101.508 21.766C101.141 21.7563 100.813 21.8459 100.517 22.0796C99.8648 22.5946 99.1959 23.0892 98.5455 23.6072C97.3654 24.5487 96.1932 25.501 95.0189 26.4503C94.277 27.051 93.5361 27.6518 92.799 28.2584C92.0259 28.8951 91.2801 29.5679 90.4817 30.1706C89.1916 31.1462 87.9736 32.2085 86.6426 33.2727L86.6445 33.2746ZM81.3586 22.2344C81.3401 22.1993 81.3225 22.1643 81.304 22.1292C80.2243 22.1224 79.1503 22.028 78.0754 21.9481C77.7064 21.9209 77.3461 21.8303 76.9732 21.8381C76.724 21.843 76.5477 21.9189 76.3832 22.1224C75.8399 22.7923 75.3073 23.468 74.7806 24.1505C73.9909 25.1738 73.2578 26.239 72.5304 27.3032C71.9073 28.2155 71.3445 29.1775 70.8402 30.1667C70.6649 30.5104 70.4974 30.86 70.44 31.2446C70.4088 31.4539 70.328 31.6837 70.4897 31.9008C74.1263 28.6663 77.7424 25.4504 81.3586 22.2344ZM66.0381 35.9337C65.9622 35.8753 65.8852 35.8889 65.8132 35.8938C64.3371 35.996 62.8611 36.0992 61.385 36.2014C60.9488 36.2316 60.6294 36.4565 60.3997 36.81C59.6032 38.0368 58.8116 39.2675 58.2177 40.6102C58.057 40.9733 57.8613 41.3316 57.8779 41.7523C57.8906 42.0745 57.9684 42.1612 58.2664 42.0804C58.7425 41.9519 59.1982 41.763 59.5983 41.4679C60.3928 40.8808 61.1036 40.1944 61.8475 39.5479C62.3927 39.0737 62.9487 38.6122 63.4959 38.141C64.342 37.4127 65.1677 36.6591 66.0381 35.9337ZM54.8352 36.4877C54.7612 36.4702 54.6863 36.438 54.6123 36.4371C53.5023 36.4264 52.3933 36.4205 51.2833 36.4137C50.9338 36.4118 50.6582 36.5529 50.4567 36.8402C50.0857 37.3679 49.6895 37.88 49.3487 38.4263C49.1393 38.7622 48.8891 39.0835 48.7781 39.4778C48.6895 39.7903 48.7304 39.8673 49.0556 39.8974C49.3321 39.9237 49.6048 39.9072 49.8793 39.8342C50.6894 39.6219 51.3505 39.137 52.0165 38.6706C52.5325 38.3094 53.0125 37.8956 53.5062 37.5023C53.7584 37.3017 54.067 37.1809 54.288 36.9395C54.4448 36.7671 54.6249 36.6289 54.8352 36.4867V36.4877ZM61.3032 35.5481C61.3743 35.5725 61.422 35.6075 61.4561 35.5978C62.0218 35.4264 62.6021 35.6124 63.1863 35.4887C64.0947 35.2969 65.0508 35.4186 65.9622 35.1772C66.006 35.1655 66.0566 35.1538 66.0994 35.1635C66.7489 35.2979 67.1812 34.9347 67.5901 34.517C67.7196 34.3846 67.8491 34.2532 67.9776 34.1207C68.1315 33.963 68.3515 33.8618 68.4362 33.6339C68.3963 33.6154 68.3836 33.6037 68.37 33.6037C66.4908 33.5804 64.6166 33.7498 62.7374 33.7186C62.5709 33.7157 62.4482 33.7878 62.3548 33.9309C62.2038 34.1626 62.0286 34.3788 61.8806 34.6124C61.6878 34.9182 61.4434 35.1947 61.3042 35.5491L61.3032 35.5481ZM51.2473 35.7789C51.4177 35.7993 51.5073 35.8217 51.5959 35.8188C52.8908 35.774 54.1858 35.7925 55.4808 35.812C55.6979 35.8149 55.8449 35.7429 55.99 35.5686C56.2869 35.2151 56.6229 34.8948 56.9403 34.5589C57.0211 34.4732 57.1467 34.4167 57.1399 34.2415C56.8867 34.112 56.6355 34.2648 56.3892 34.2863C55.5772 34.3603 54.7632 34.4401 53.957 34.5628C53.4702 34.6368 52.9882 34.7439 52.4946 34.7565C52.2716 34.7624 52.0545 34.8179 51.9045 34.9737C51.6845 35.2035 51.4985 35.4663 51.2473 35.7779V35.7789ZM73.1643 33.6524C73.0747 33.6261 73.0328 33.6047 72.99 33.6018C71.8683 33.5336 70.7447 33.5336 69.6212 33.5453C69.48 33.5473 69.3456 33.5862 69.2375 33.6836C68.7906 34.0857 68.3466 34.4888 67.9007 34.8909C67.8413 34.9445 67.7819 35 67.8296 35.0856C67.8627 35.147 67.9309 35.1441 67.9932 35.1411C68.1013 35.1353 68.2084 35.1285 68.3165 35.1197C69.0379 35.0594 69.7555 34.963 70.4809 34.9357C71.0651 34.9133 71.6483 34.8461 72.2315 34.7994C72.3912 34.7867 72.5509 34.7565 72.6307 34.6076C72.7962 34.2989 73.0406 34.0331 73.1653 33.6524H73.1643ZM86.1957 34.0789C86.2658 34.2123 86.3816 34.2045 86.4839 34.224C87.4644 34.4138 88.4399 34.63 89.4 34.9026C90.0436 35.0856 90.5898 35.0779 91.1555 34.6358C91.7504 34.1704 92.3794 33.7381 93.0444 33.3545C90.7524 33.5619 88.4731 33.7693 86.1957 34.0779V34.0789ZM80.6517 33.9309C79.7335 33.8024 78.8115 33.7712 77.8904 33.7177C76.6743 33.6466 75.4572 33.5726 74.2382 33.5882C74.1301 33.5891 73.9987 33.5638 73.9364 33.6612C73.7309 33.9757 73.4116 34.2201 73.3016 34.6913C75.6812 34.4245 78.0189 34.2064 80.3606 34.0253C80.4638 34.0175 80.5796 34.039 80.6527 33.9309H80.6517ZM60.3997 33.9835C60.386 33.9484 60.3734 33.9143 60.3597 33.8793C59.7648 33.9241 59.169 33.964 58.575 34.0175C58.4368 34.0302 58.3248 34.1227 58.2148 34.2113C57.8565 34.4995 57.5673 34.8617 57.1827 35.1265C56.9558 35.2823 56.7932 35.5326 56.5927 35.7497C57.0795 35.7497 57.5235 35.7526 57.9665 35.7487C58.1106 35.7477 58.2352 35.6815 58.3375 35.5832C58.6705 35.2609 59.0667 35.0214 59.4338 34.7439C59.76 34.4966 60.0774 34.2386 60.3997 33.9854V33.9835ZM83.9134 22.7903C83.6973 22.8672 82.8414 23.3969 82.7421 23.4738C82.6126 23.5751 82.5328 23.6958 82.526 23.8623C82.5211 23.9743 82.4744 24.0668 82.3945 24.1476C81.6808 24.8701 80.9818 25.6052 80.3021 26.3607C79.7267 27.0004 79.0977 27.5924 78.497 28.2087C78.3139 28.3966 78.1397 28.5953 77.9887 28.8591C78.3208 28.8737 78.4756 28.6878 78.6119 28.5115C79.1591 27.8017 79.8358 27.2166 80.4511 26.573C81.2787 25.7074 82.1862 24.9119 82.7694 23.836C82.8999 23.5955 83.1111 23.4066 83.3565 23.2606C83.5357 23.1545 83.7353 23.062 83.9134 22.7903ZM59.7259 35.7312C59.8038 35.7312 59.8651 35.7283 59.9265 35.7312C60.3851 35.7545 60.7044 35.5842 60.9118 35.145C61.0803 34.7896 61.3363 34.4752 61.5544 34.1431C61.6138 34.0526 61.8085 34.0088 61.6966 33.8608C61.6041 33.7391 61.4678 33.8325 61.3597 33.8773C61.2769 33.9124 61.201 33.9679 61.1289 34.0234C60.6071 34.4245 60.0793 34.8179 59.5721 35.2366C59.4299 35.3534 59.1232 35.4264 59.1962 35.6328C59.2673 35.8334 59.5584 35.6659 59.7269 35.7312H59.7259ZM51.3009 34.9707C50.2318 35.1752 49.2133 35.4663 48.1725 35.6669C48.8813 35.7429 49.5843 35.7818 50.2883 35.8091C50.8345 35.8305 51.1129 35.6075 51.3009 34.9707ZM57.3677 36.5023C57.3599 36.4663 57.3511 36.4303 57.3434 36.3952C57.1009 36.3952 56.8565 36.3767 56.616 36.3991C56.2305 36.4351 55.8965 36.5714 55.7505 36.9775C55.7193 37.0631 55.6667 37.1527 55.7475 37.2345C55.8235 37.3095 55.9199 37.29 56.0065 37.2559C56.4924 37.0602 56.9198 36.7632 57.3677 36.5033V36.5023ZM70.6669 32.9942C70.5559 32.892 70.4526 32.8073 70.3212 32.7752C70.2394 32.7557 70.1683 32.8083 70.1557 32.8939C70.145 32.965 70.2034 33.001 70.2696 33.001C70.3903 33.001 70.5101 33.0526 70.6659 32.9942H70.6669ZM73.3834 32.9173C73.3444 32.9767 73.3483 33.0049 73.3804 33.0108C73.6034 33.0497 73.7816 33.0049 73.8721 32.7031C73.6725 32.7907 73.5167 32.8589 73.3834 32.9183V32.9173ZM47.9758 35.9804C47.8551 35.9249 47.7733 35.9551 47.6983 35.998C47.6672 36.0155 47.6808 36.0525 47.7217 36.0515C47.8025 36.0505 47.8931 36.0905 47.9768 35.9795L47.9758 35.9804ZM66.1501 35.3028C66.1277 35.2891 66.1082 35.2658 66.0887 35.2667C66.04 35.2687 65.9816 35.2424 65.9475 35.3028C66.0138 35.3281 66.08 35.3427 66.1501 35.3028ZM82.3751 23.8049C82.3527 23.7912 82.3283 23.763 82.3088 23.7659C82.2641 23.7737 82.2232 23.8039 82.23 23.8555C82.2319 23.873 82.2748 23.9013 82.2923 23.8974C82.3361 23.8876 82.3702 23.8575 82.3751 23.8058V23.8049Z" fill="#4B0404"/>
<path d="M41.1323 21.4856C41.4672 21.3415 41.7359 21.0932 42.1069 21.0514C42.1975 21.0416 42.2861 21.0027 42.3786 21.0436C42.5129 21.1039 42.5821 21.2023 42.4954 21.3357C42.4214 21.4506 42.3201 21.5499 42.2208 21.6453C41.4292 22.4018 40.5734 23.0873 39.7877 23.8516C39.296 24.3306 38.9104 24.8876 38.5609 25.4649C37.7245 26.8495 36.9397 28.2642 36.0956 29.6439C35.4432 30.709 34.8629 31.8151 34.1979 32.8735C33.8377 33.446 33.5631 34.0701 33.235 34.6631C32.8251 35.404 32.4074 36.1411 31.976 36.8703C31.8261 37.1245 31.7122 37.3932 31.572 37.6502C31.4357 37.8995 31.2886 38.1429 31.1426 38.397C31.3227 38.4798 31.4094 38.3668 31.5009 38.3016C32.1776 37.8167 32.8299 37.3046 33.457 36.7525C34.5338 35.8052 35.5571 34.8003 36.5814 33.8004C37.5843 32.8219 38.5881 31.8385 39.5082 30.7762C39.9425 30.2758 40.3962 29.7919 40.8451 29.3041C41.0427 29.0889 41.254 28.8854 41.3835 28.6147C41.4224 28.5339 41.4935 28.4657 41.5597 28.4025C41.9628 28.0247 42.3795 27.6673 42.657 27.1679C42.8235 26.868 43.027 26.8427 43.2305 26.9702C43.3688 27.0569 43.434 27.1591 43.3191 27.31C43.2071 27.457 43.102 27.6099 42.9822 27.7511C41.2881 29.7539 39.6348 31.7869 38.0818 33.9017C37.2503 35.034 36.4159 36.1596 35.784 37.4214C35.5834 37.8216 35.3829 38.2198 35.2689 38.655C35.1667 39.0445 35.3196 39.2441 35.71 39.1555C36.1715 39.0513 36.6311 38.9072 36.9943 38.5703C37.8754 37.7525 38.7381 36.9141 39.6445 36.1245C40.4371 35.4342 41.1605 34.6786 41.9024 33.9396C42.2393 33.6037 42.6317 33.3243 43.0017 33.0215C43.0728 32.9631 43.1497 32.9095 43.2305 32.8647C43.3454 32.8005 43.471 32.7868 43.5801 32.8676C43.691 32.9484 43.6969 33.0643 43.6726 33.1987C43.6083 33.5599 43.4019 33.8481 43.2178 34.1499C42.6969 35.0058 42.0534 35.7779 41.5042 36.6133C40.9346 37.4789 40.4575 38.3922 40.1022 39.3678C39.9775 39.7095 39.8266 40.0415 39.6893 40.3735C39.5189 40.3511 39.5034 40.2431 39.5063 40.1321C39.515 39.8078 39.5705 39.4924 39.6835 39.1847C40.0983 38.0485 40.6688 36.9979 41.3387 35.9921C41.6376 35.5432 41.956 35.1119 42.2773 34.6806C42.3231 34.6192 42.3601 34.5482 42.4156 34.4966C42.644 34.2824 42.8339 34.0071 42.9851 33.6709C42.8518 33.6495 42.7865 33.7371 42.7184 33.8043C42.1459 34.3661 41.5782 34.9328 41.0038 35.4926C40.1431 36.3319 39.2979 37.1887 38.3846 37.9735C38.0351 38.2734 37.7498 38.6453 37.3798 38.9267C36.8871 39.3006 36.3955 39.6706 35.7626 39.7845C34.9924 39.9227 34.4569 39.3541 34.6633 38.5937C34.8951 37.7388 35.2826 36.9521 35.7684 36.2131C35.895 36.0203 36.006 35.8178 36.1374 35.6279C36.3993 35.2492 36.6564 34.8714 36.9991 34.5482C37.3389 34.2269 37.6106 33.8335 37.8676 33.4236C37.7274 33.5356 37.5794 33.6388 37.4499 33.7614C36.4977 34.6621 35.5737 35.5948 34.5913 36.4604C33.715 37.2325 32.9429 38.1322 31.9176 38.731C31.7316 38.84 31.5515 38.9617 31.3587 39.0572C30.8894 39.2899 30.5331 39.6355 30.2575 40.0795C29.7269 40.9324 29.3218 41.8515 28.8428 42.7308C28.541 43.2848 28.2547 43.8466 27.9334 44.3908C27.6608 44.8543 27.4466 45.3518 27.1973 45.8289C26.6346 46.9097 26.0533 47.9817 25.5032 49.0683C25.0923 49.8793 24.7408 50.7206 24.3202 51.5258C23.3202 53.44 22.4216 55.4029 21.5083 57.3589C20.4051 59.7201 19.3409 62.0987 18.3303 64.5007C18.0391 65.192 17.7665 65.9047 17.7305 66.6749C17.7178 66.9407 17.6302 67.188 17.5231 67.4295C17.4559 67.5814 17.3576 67.7108 17.1794 67.6816C16.9749 67.6476 16.9146 67.4694 16.9272 67.2941C16.9525 66.9718 17.0002 66.6515 17.0509 66.3322C17.3994 64.1307 18.0148 62.0013 18.7499 59.9012C19.0917 58.9265 19.3623 57.9246 19.7411 56.9656C20.3759 55.3591 20.9338 53.7243 21.5891 52.1265C22.3904 50.1734 23.1859 48.2183 24.0505 46.2924C24.4536 45.3927 24.8956 44.5087 25.362 43.6382C25.7914 42.8359 26.1925 42.02 26.5927 41.2031C26.8848 40.6072 27.2032 40.0259 27.5508 39.4612C27.6228 39.3434 27.7153 39.2353 27.7737 39.1117C27.9373 38.7651 28.0658 38.4243 27.9967 38.0115C27.8993 37.4292 28.1048 36.8849 28.3531 36.364C28.9042 35.2034 29.6062 34.1344 30.3383 33.0828C30.8398 32.3633 31.3208 31.6291 31.8738 30.9456C33.048 29.4949 34.2933 28.1055 35.5552 26.7317C36.5668 25.6305 37.6184 24.5663 38.6884 23.5215C38.8208 23.392 38.9581 23.2645 39.11 23.1603C39.7098 22.7514 40.1645 22.2178 40.4858 21.5742C40.6863 21.1731 40.9434 20.8079 41.1819 20.4321C41.9648 19.1965 42.7524 17.9639 43.5528 16.739C44.4125 15.4246 45.2216 14.079 46.0132 12.7247C46.4553 11.9691 46.8603 11.1853 47.0657 10.3197C47.1242 10.0753 47.131 9.82999 47.1281 9.58463C47.1242 9.23021 46.9635 9.04522 46.6208 8.96928C46.4105 8.92254 46.1992 8.90988 45.9791 8.92741C44.6004 9.03646 43.2938 9.45123 41.9755 9.82804C40.5199 10.2438 39.1207 10.8075 37.7264 11.3849C36.3575 11.9516 35.0129 12.5737 33.7111 13.2777C32.6147 13.8707 31.4853 14.4071 30.4338 15.0858C29.723 15.5444 28.9674 15.9338 28.2576 16.3944C27.1603 17.1081 26.0718 17.8344 25.0261 18.624C24.2881 19.181 23.5276 19.7087 22.7867 20.2637C21.7244 21.0591 20.7206 21.9257 19.6856 22.7543C18.674 23.5644 17.7626 24.4825 16.8065 25.3539C15.9954 26.0929 15.2321 26.8767 14.496 27.6829C13.7921 28.4531 13.0735 29.2174 12.4513 30.0635C11.8662 30.857 11.2245 31.6097 10.6559 32.4139C9.80201 33.6212 8.94325 34.8237 8.15751 36.0807C7.44577 37.2189 6.77881 38.3824 6.1216 39.5498C5.53254 40.5975 5.01066 41.6831 4.46054 42.7532C3.91724 43.8096 3.43041 44.8962 3.00395 46.0013C2.56678 47.1346 2.09067 48.2601 1.79175 49.4431C1.73139 49.6817 1.69244 49.929 1.67784 50.1734C1.66031 50.4674 1.82096 50.5619 2.08385 50.4324C2.22211 50.3642 2.37108 50.3029 2.48597 50.2055C2.7547 49.9757 3.00493 49.9757 3.27852 50.2269C3.07114 50.6514 2.74399 50.926 2.26592 50.9903C2.11793 51.0097 2.00985 51.0906 1.8862 51.1461C1.45487 51.3398 1.11798 51.149 1.07612 50.6768C1.05859 50.4762 1.08293 50.2766 1.11993 50.078C1.32635 48.9651 1.69536 47.9038 2.12864 46.862C2.53757 45.8796 2.88517 44.8728 3.35447 43.9147C3.9854 42.6285 4.59199 41.3316 5.27646 40.0707C5.77692 39.1497 6.30075 38.2432 6.8236 37.3357C7.63174 35.9317 8.52555 34.5813 9.46805 33.2649C10.1856 32.262 10.9441 31.2884 11.6909 30.3079C11.9148 30.0139 12.1622 29.7373 12.3978 29.4521C13.1825 28.5018 13.9478 27.5281 14.829 26.6693C15.677 25.8437 16.4579 24.9489 17.3809 24.1963C18.2037 23.5244 18.9563 22.7669 19.7791 22.0961C20.5551 21.4632 21.3184 20.8118 22.109 20.2014C22.7906 19.6756 23.4887 19.1673 24.1897 18.6659C25.1809 17.959 26.1808 17.2638 27.1866 16.5774C27.542 16.335 27.9276 16.1393 28.2946 15.9144C28.8584 15.5687 29.4114 15.2075 29.9791 14.8677C30.573 14.5123 31.1552 14.1355 31.7716 13.8181C32.6342 13.3731 33.4998 12.9321 34.3654 12.492C35.3127 12.01 36.2601 11.529 37.2396 11.1113C38.5024 10.5729 39.776 10.0491 41.0855 9.64694C42.659 9.16303 44.2392 8.66939 45.8925 8.50776C46.2002 8.47758 46.5098 8.4659 46.8165 8.51458C47.3228 8.59539 47.6003 8.90891 47.6197 9.423C47.646 10.1279 47.5156 10.7959 47.2147 11.4414C46.687 12.5757 46.0522 13.6467 45.4115 14.7197C44.4534 16.3223 43.3814 17.851 42.401 19.437C41.9813 20.1157 41.551 20.7885 41.1342 21.4856H41.1323ZM29.8953 39.6579C29.3199 39.5235 28.8029 39.4749 28.4232 39.0786C28.3307 38.9822 28.243 39.0834 28.2197 39.1711C28.0746 39.7192 27.7036 40.1496 27.4485 40.6394C26.4593 42.5409 25.5188 44.4658 24.6113 46.4063C24.031 47.6487 23.4848 48.9067 22.9687 50.1773C22.5812 51.1315 22.2151 52.0944 21.8325 53.0496C21.2181 54.5811 20.6729 56.136 20.112 57.6861C19.6242 59.0327 19.1958 60.4007 18.7489 61.7618C18.708 61.8864 18.6301 62.0179 18.6798 62.2428C22.1012 54.5207 25.881 47.0655 29.8953 39.6569V39.6579ZM37.7488 25.6538C37.6729 25.7259 37.5784 25.7862 37.5259 25.8719C37.263 26.2945 36.857 26.5856 36.5337 26.9546C35.8843 27.6975 35.23 28.4356 34.6088 29.2038C33.9019 30.0791 33.2603 31.0011 32.6391 31.9358C31.8806 33.077 31.1299 34.222 30.4104 35.3894C29.9177 36.1878 29.5351 37.0485 28.9889 37.8167C28.6179 38.3396 28.6948 38.5771 29.2527 38.8683C29.76 39.1331 30.2556 38.9958 30.5311 38.4924C31.0491 37.546 31.5447 36.588 32.0705 35.6464C32.5515 34.7857 33.0422 33.9309 33.5251 33.0721C33.8493 32.4957 34.121 31.8891 34.4939 31.337C34.8123 30.8658 35.0976 30.3692 35.3692 29.8698C35.9495 28.8017 36.5834 27.7657 37.225 26.7326C37.4314 26.3996 37.7167 26.1066 37.7488 25.6538ZM28.5303 37.6064C30.3043 34.6991 31.9867 31.8356 34.0003 29.1833C33.7938 29.2856 33.6556 29.4511 33.5193 29.6176C32.5038 30.8551 31.5418 32.1335 30.611 33.4353C30.4221 33.6991 30.314 34.0049 30.128 34.2736C29.5857 35.0603 29.1135 35.8908 28.7649 36.7846C28.6714 37.0251 28.576 37.2666 28.5303 37.6064Z" fill="#4B0404"/>
<path d="M75.959 11.2652C76.0826 11.0296 76.289 10.9351 76.4594 10.8319C77.067 10.4658 77.6327 10.0442 78.1925 9.61191C78.2295 9.58368 78.2646 9.55252 78.3045 9.5311C79.0182 9.13482 79.6365 8.60418 80.2966 8.1339C80.947 7.67044 81.6364 7.26054 82.3033 6.81947C82.9956 6.36185 83.6684 5.87308 84.3753 5.43785C85.0033 5.05131 85.5991 4.6083 86.269 4.29284C86.3966 4.23247 86.6059 4.08837 86.6828 4.24707C86.7743 4.43499 86.528 4.52067 86.3907 4.58006C85.0227 5.1701 83.8563 6.08826 82.6188 6.89055C81.9616 7.31701 81.2771 7.70939 80.6598 8.18843C80.2255 8.52531 79.7533 8.80475 79.3239 9.14943C78.7008 9.64891 78.028 10.0861 77.3795 10.5534C77.2179 10.6693 77.0719 10.8017 76.9307 10.9448C76.6834 11.1951 76.3816 11.3694 75.959 11.2652Z" fill="#4B0404"/>
<path d="M44.7746 35.9814C44.8709 35.9824 44.9566 36.0077 45.0073 36.0963C45.052 36.1762 45.091 36.2521 45.1923 36.2813C45.2945 36.3096 45.4123 36.3524 45.3724 36.4936C45.3402 36.6065 45.2331 36.6357 45.1251 36.664C44.7531 36.7643 44.5642 36.6903 44.4805 36.4001C44.424 36.2054 44.5789 35.9863 44.7755 35.9814H44.7746Z" fill="#4B0404"/>
<path d="M88.4744 3.22278C88.341 3.28022 88.2982 3.47009 88.0781 3.46425C88.1443 3.23154 88.341 3.27243 88.4861 3.23057L88.4754 3.22278H88.4744Z" fill="#4B0404"/>
<path d="M87.6598 3.69016C87.6384 3.69697 87.5985 3.72034 87.5595 3.71839C87.5294 3.71644 87.5225 3.67068 87.5527 3.65121C87.5858 3.62881 87.6306 3.61032 87.6686 3.61226C87.7056 3.61421 87.7075 3.64926 87.6608 3.69016H87.6598Z" fill="#4B0404"/>
</svg>
