<svg width="545" height="240" viewBox="0 0 545 240" fill="none" xmlns="http://www.w3.org/2000/svg">
<path d="M307.781 11.2368C307.811 10.8948 307.964 10.6103 308.255 10.441C309.505 9.71285 310.758 8.99489 312.014 8.28369C313.457 7.47429 314.91 6.68182 316.353 5.86903C316.471 5.8013 316.532 5.64213 316.623 5.51682C316.261 5.2425 315.987 5.49989 315.696 5.5981C314.883 5.87242 314.087 6.21785 313.257 6.4075C310.29 7.07806 307.459 8.2058 304.703 9.39789C300.486 11.2233 296.148 12.8082 292.131 15.0773C289.9 16.3405 287.587 17.4615 285.331 18.6671C281.599 20.6618 278.057 22.9478 274.406 25.0577C271.903 26.5037 269.553 28.1937 267.006 29.5856C265.611 30.3476 264.395 31.4448 263.101 32.3897C262.183 33.0636 261.018 33.2093 260.219 34.0695C259.488 34.8552 258.509 35.3327 257.608 35.9084C256.409 36.6772 255.244 37.5374 254.13 38.4179C252.322 39.847 250.33 41.0053 248.522 42.431C246.087 44.3547 243.533 46.1259 241.051 47.9919C239.036 49.5023 237.004 50.9958 235.07 52.6045C232.767 54.5213 230.342 56.2823 228.138 58.3245C227.159 59.2287 226.038 59.9839 224.998 60.8306C223.166 62.3139 221.422 63.9023 219.61 65.4059C218.144 66.6217 216.748 67.9527 215.367 69.2836C214.283 70.3267 213.155 71.319 211.997 72.2706C210.09 73.8352 208.404 75.6335 206.636 77.3404C202.745 81.1063 198.837 84.8722 195.135 88.8211C190.516 93.7486 185.852 98.6423 181.456 103.776C179.292 106.303 177.325 109.002 175.096 111.454C172.35 114.478 170.054 117.841 167.463 120.977C167.165 121.339 166.819 121.681 166.677 122.298C167.988 122.007 169.241 121.776 170.467 121.441C173.369 120.645 176.316 120.097 179.296 119.71C180.288 119.582 181.06 119.263 181.721 118.386C183.133 116.507 184.528 114.587 186.343 113.049C186.611 112.822 186.746 112.575 186.821 112.25C186.929 111.762 187.237 111.369 187.593 111.044C190.448 108.453 192.747 105.361 195.284 102.489C198.894 98.4018 202.501 94.3277 206.379 90.4839C208.458 88.4248 210.205 86 212.42 84.0764C215.133 81.7193 217.443 78.9558 220.24 76.6868C221.646 75.5489 222.817 74.1265 224.125 72.8633C227.396 69.7002 230.901 66.7978 234.328 63.8074C236.184 62.1886 237.993 60.5089 239.866 58.907C242.758 56.4314 245.755 54.0743 248.573 51.5208C251.031 49.2924 253.724 47.3654 256.284 45.2792C258.363 43.5825 260.317 41.6657 262.732 40.3889C262.922 40.2907 263.081 40.1349 263.274 40.0503C263.484 39.9588 263.701 39.9961 263.846 40.1959C263.992 40.4025 263.941 40.6124 263.765 40.7614C263.023 41.3812 262.282 42.0009 261.52 42.5936C259.45 44.1989 257.337 45.7533 255.298 47.3992C249.836 51.8052 244.336 56.1638 239.09 60.8306C235.93 63.6415 232.876 66.5641 229.74 69.392C226.956 71.9049 224.26 74.5193 221.449 76.9882C218.445 79.6297 215.716 82.5423 212.847 85.3057C209.891 88.1539 207.063 91.168 204.242 94.1719C201.969 96.5967 199.775 99.0927 197.506 101.518C195.24 103.936 193.14 106.509 190.956 109.002C190.251 109.808 189.503 110.577 188.785 111.373C186.702 113.679 185.046 116.341 182.838 118.545C182.75 118.634 182.781 118.837 182.733 119.121C183.844 118.962 184.884 118.827 185.92 118.661C189.046 118.159 192.189 117.794 195.342 117.496C196.94 117.343 198.525 117.052 200.12 116.862C200.919 116.767 201.512 116.385 202.05 115.819C204.523 113.212 206.961 110.57 209.498 108.027C213.623 103.892 217.568 99.5668 222.157 95.9059C223.579 94.7714 224.866 93.4607 226.221 92.2415C226.946 91.5879 227.765 91.0765 228.69 90.7616C229.099 90.6194 229.533 90.5448 229.865 90.9648C230.237 91.4423 230.014 91.8047 229.733 92.2585C228.327 94.5174 226.339 96.2784 224.521 98.1478C220.037 102.757 215.401 107.221 210.619 111.532C209.145 112.859 207.771 114.295 206.25 115.579C206.02 115.772 205.691 115.938 205.701 116.368C207.896 116.195 210.084 116.053 212.265 115.843C213.291 115.745 214.198 115.328 215.028 114.658C216.942 113.103 218.916 111.62 220.863 110.103C221.419 109.669 222.025 109.327 222.689 109.1C222.953 109.009 223.224 108.999 223.427 109.232C223.627 109.459 223.606 109.733 223.498 109.984C223.393 110.228 223.298 110.516 223.105 110.675C221.683 111.843 220.616 113.333 219.421 114.705C219.214 114.942 218.804 114.939 218.713 115.43C219.065 115.684 219.492 115.542 219.884 115.521C226.262 115.199 232.638 114.84 239.026 114.901C240.875 114.918 241.925 113.692 243.242 112.839C243.577 112.622 243.415 112.297 243.283 111.982C242.731 110.668 242.958 109.378 243.364 108.064C244.244 105.222 245.623 102.635 247.191 100.126C248.671 97.7651 250.073 95.3539 251.549 92.9934C252.318 91.7674 253.148 90.5753 254.005 89.4103C256.006 86.6943 258.113 84.0493 260.033 81.279C261.347 79.3859 262.874 77.6587 264.219 75.725C263.765 75.2136 263.115 75.2576 262.59 75.1526C259.085 74.4584 255.82 73.1376 252.697 71.4544C250.533 70.2894 248.908 68.4844 247.499 66.51C246.761 65.477 246.483 64.2138 246.703 62.9709C247.13 60.5224 247.895 58.2263 249.646 56.3128C253.984 51.5682 258.97 47.6363 264.314 44.0905C268.835 41.0899 273.532 38.401 278.304 35.8441C281.467 34.1507 284.708 32.5929 287.959 31.0757C291.996 29.1961 296.023 27.2962 300.151 25.6198C305.217 23.5608 310.368 21.7218 315.499 19.8355C319.678 18.2979 323.949 17.0381 328.189 15.697C334.583 13.6752 341.021 11.8024 347.523 10.1802C353.612 8.663 359.695 7.1187 365.909 6.13996C369.563 5.56423 373.123 4.4839 376.794 3.96236C379.445 3.58644 382.087 3.17666 384.769 3.03104C388.464 2.83123 392.142 2.35033 395.857 2.40451C400.751 2.47563 405.61 2.81091 410.369 4.02332C411.957 4.42633 413.62 4.72096 414.903 5.84194C415.043 5.96386 415.138 5.96386 415.138 5.96386C415.138 5.96386 415.435 6.23153 415.435 6.26811C415.435 6.3047 415.843 6.4245 415.843 6.4245C415.843 6.4245 415.843 6.4245 416.018 7.07128C419.343 8.72734 420.989 11.9582 419.116 15.592C417.806 18.1388 416.045 20.357 414.138 22.4804C410.148 26.9169 405.881 31.0757 401.425 35.0313C394.763 40.9443 387.895 46.6101 380.831 52.0355C378.575 53.7661 376.421 55.622 374.149 57.3356C369.956 60.4987 365.828 63.7499 361.699 67.001C358.926 69.1854 356.203 71.4273 353.47 73.6354C353.7 74.1942 354.134 74.0317 354.472 74.0418C359.085 74.1705 363.701 74.2687 368.303 74.6311C373.705 75.0544 379.103 75.5252 384.373 76.9001C385.992 77.3235 387.563 77.8653 388.721 79.1827C389.778 80.3884 389.802 81.2994 388.985 82.6201C387.326 85.3091 384.813 87.0295 382.222 88.6483C379.124 90.5855 375.761 92.0248 372.466 93.5826C366.891 96.2141 361.273 98.754 355.675 101.335C352.413 102.838 349.118 104.274 345.901 105.863C342.633 107.475 339.422 109.212 336.218 110.956C335.575 111.305 334.776 111.417 334.173 112.226C335.433 112.226 336.571 112.314 337.688 112.212C345.112 111.522 352.528 110.733 359.955 110.089C366.42 109.53 372.879 108.89 379.344 108.338C385.01 107.854 390.675 107.468 396.345 107.065C400.571 106.767 404.784 106.286 409.011 105.957C412.97 105.646 416.932 105.422 420.894 105.168C424.586 104.931 428.281 104.704 431.975 104.474C434.922 104.288 437.865 104.081 440.811 103.922C446.49 103.617 452.17 103.323 457.849 103.052C464.765 102.72 471.684 102.401 478.606 102.31C480.113 102.29 481.596 102.076 483.1 102.029C488.732 101.853 494.371 102.175 500.002 101.758C502.407 101.582 504.828 101.667 507.243 101.67C515.026 101.68 522.808 101.707 530.594 101.724C533.059 101.731 535.528 101.609 537.99 101.951C538.61 102.036 539.267 101.853 539.907 101.795C540.388 101.751 540.876 101.667 541.336 101.866C541.448 101.914 541.526 102.103 541.563 102.242C541.58 102.307 541.472 102.459 541.394 102.483C541.143 102.564 540.879 102.649 540.622 102.652C538.796 102.672 536.964 102.97 535.162 102.879C532.748 102.76 530.34 102.984 527.925 102.835C525.9 102.71 523.851 102.96 521.812 102.994C516.77 103.079 511.72 103.113 506.684 103.417C502.18 103.688 497.672 103.6 493.168 103.719C489.467 103.817 485.772 104.024 482.07 104.186C481.749 104.2 481.427 104.23 481.105 104.237C475.852 104.308 470.61 104.643 465.364 104.918C460.166 105.189 454.964 105.375 449.765 105.659C444.465 105.947 439.169 106.282 433.872 106.645C426.435 107.156 419.001 107.685 411.571 108.257C403.927 108.843 396.287 109.496 388.643 110.106C384.044 110.472 379.442 110.773 374.85 111.176C369.668 111.63 364.493 112.189 359.312 112.663C355.255 113.035 351.191 113.323 347.13 113.696C341.417 114.217 335.704 114.752 330.001 115.348C328.67 115.487 327.386 115.972 326.241 116.696C323.298 118.566 320.379 120.472 317.443 122.352C317.216 122.498 316.925 122.592 317.003 122.914C317.081 123.222 317.406 123.216 317.66 123.287C322.706 124.733 327.749 126.159 332.581 128.275C334.881 129.281 337.238 130.155 339.51 131.249C342.524 132.698 345.383 134.419 347.919 136.566C350.449 138.706 352.789 141.08 354.449 144.02C354.845 144.724 355.173 145.452 355.461 146.207C356.04 147.718 356.03 149.154 355.556 150.749C354.682 153.699 352.992 155.819 350.368 157.4C348.763 158.365 347.225 159.497 345.542 160.286C342.782 161.583 339.91 162.629 336.899 163.273C331.227 164.488 325.483 164.505 319.749 164.211C314.537 163.943 309.447 162.927 304.638 160.729C302.119 159.578 299.914 158.02 297.865 156.181C295.806 154.332 294.312 152.12 293.815 149.411C293.059 145.307 294.302 141.659 296.91 138.479C298.166 136.948 299.579 135.546 300.893 134.063C304.184 130.355 307.977 127.208 311.909 124.218C312.072 124.096 312.194 123.923 312.356 123.751C311.865 123.27 311.266 123.178 310.71 123.053C307.256 122.294 303.798 121.556 300.337 120.831C299.342 120.625 298.305 120.577 297.34 120.286C296.277 119.968 295.532 120.293 294.705 120.936C290.296 124.354 285.89 127.774 281.399 131.083C278.121 133.497 274.849 135.922 271.409 138.117C267.934 140.335 264.635 142.848 260.988 144.782C257.232 146.77 254.018 149.611 250.215 151.507C249.87 151.68 249.639 151.978 249.379 152.249C248.857 152.784 248.187 152.727 247.57 152.537C246.784 152.293 246.639 151.27 247.272 150.749C247.394 150.647 247.533 150.542 247.679 150.492C249.748 149.811 251.383 148.399 253.202 147.288C254.631 146.414 255.827 145.242 257.249 144.379C259.542 142.99 261.96 141.822 264.178 140.305C267.013 138.371 269.888 136.498 272.712 134.551C274.253 133.487 275.848 132.509 277.342 131.364C281.044 128.529 284.82 125.8 288.562 123.019C290.052 121.912 291.525 120.784 293.174 119.538C291.264 119.169 289.574 119.382 287.891 119.551C284.21 119.92 280.536 120.337 276.858 120.71C270.454 121.36 264.036 121.854 257.649 122.643C256.69 122.762 255.722 122.775 254.763 122.904C253.703 123.046 252.877 123.554 252.315 124.53C251.079 126.66 249.832 128.787 248.505 130.863C247.475 132.468 246.635 134.222 245.081 135.472C246.493 131.252 249.067 127.574 250.743 123.358C249.917 123.358 249.128 123.31 248.346 123.365C245.03 123.602 241.715 123.879 238.399 124.127C237.221 124.215 236.042 124.296 234.864 124.333C233.512 124.374 232.347 124.865 231.352 125.739C225.903 130.507 220.413 135.231 215.052 140.098C212.742 142.194 210.382 144.196 207.855 146.011C206.314 147.118 204.577 147.83 202.775 148.368C201.299 148.812 199.988 147.975 199.622 146.492C199.422 145.689 199.419 144.917 199.626 144.111C200.733 139.793 202.68 135.865 205.275 132.278C206.626 130.412 207.869 128.489 209.166 126.507C208.688 126.142 208.19 126.274 207.747 126.297C206.192 126.375 204.638 126.48 203.09 126.629C202.22 126.711 201.475 127.09 200.781 127.659C199.206 128.953 197.607 130.233 195.687 131.001C195.291 131.161 194.888 131.32 194.471 131.415C192.615 131.848 191.752 130.368 192.168 128.702C192.229 128.455 192.361 128.224 192.51 127.872C191.938 127.96 191.725 128.357 191.423 128.597C188.396 130.988 185.439 133.48 182.334 135.763C179.834 137.602 177.166 139.221 174.172 140.193C172.621 140.697 171.08 140.999 169.454 140.399C167.873 139.817 167.355 138.916 167.91 137.321C168.266 136.302 168.858 135.397 169.447 134.5C170.772 132.488 172.001 130.412 173.545 128.55C173.975 128.031 174.72 127.744 174.795 126.958C174.646 126.755 174.46 126.656 174.233 126.663C171.276 126.768 168.35 126.236 165.39 126.226C163.91 126.223 163.047 126.866 162.2 127.964C160.961 129.569 159.85 131.272 158.502 132.796C157.835 133.552 157.34 134.459 156.765 135.296C154.55 138.516 152.386 141.778 150.096 144.944C148.244 147.508 146.537 150.163 144.817 152.815C141.755 157.529 138.775 162.287 135.913 167.127C133.454 171.285 131.057 175.475 128.75 179.715C125.801 185.137 123.01 190.643 120.538 196.299C119.644 198.345 118.817 200.458 118.611 202.74C118.563 203.259 118.208 203.743 118.143 204.264C118.096 204.634 117.961 205.175 118.519 205.368C118.922 205.507 119.247 205.304 119.515 205.006C120.013 204.444 120.517 203.888 121.219 203.594C121.577 203.763 121.523 204.044 121.415 204.275C120.673 205.866 119.481 206.967 117.784 207.461C116.589 207.81 116.169 207.509 116.21 206.266C116.298 203.621 116.796 201.027 117.7 198.554C120.46 191.029 124.239 183.978 128.059 176.955C131.135 171.299 134.45 165.779 137.83 160.303C140.698 155.653 143.668 151.054 146.794 146.573C149.432 142.794 151.898 138.886 154.685 135.218C156.941 132.248 158.946 129.091 161.54 126.267C160.927 125.793 160.3 126.104 159.779 125.915C159.372 125.766 158.922 125.634 158.868 125.126C158.82 124.692 159.176 124.472 159.491 124.262C160.036 123.896 160.659 123.69 161.289 123.585C163.253 123.256 164.649 122.217 165.837 120.605C168.669 116.767 171.544 112.954 174.673 109.347C177.128 106.516 179.695 103.78 182.086 100.894C186.983 94.9745 192.493 89.6372 197.77 84.073C200.686 80.9979 203.849 78.1803 206.924 75.2678C209.366 72.9581 211.821 70.662 214.273 68.3624C216.694 66.09 219.299 64.0072 221.805 61.8229C225.848 58.2974 230.143 55.0835 234.237 51.6122C236.553 49.6479 239.09 47.9275 241.539 46.1123C245.362 43.2845 249.253 40.5413 253.046 37.6661C255.007 36.1793 257.215 35.0516 259.186 33.5649C261.022 32.1763 263.138 31.1739 264.947 29.7786C267.338 27.9363 269.949 26.4767 272.509 24.9425C275.076 23.405 277.562 21.7218 280.241 20.3638C281.426 19.761 282.547 19.0159 283.651 18.2709C284.772 17.5122 286.049 17.0754 287.228 16.4319C291.122 14.2983 295.027 12.158 299.142 10.485C305.194 8.02631 311.262 5.59471 317.575 3.8506C318.154 3.69143 318.737 3.56274 319.316 3.74223C320 3.9522 320.156 4.66678 319.594 5.10027C319.089 5.48973 318.52 5.80807 317.951 6.10271C316.386 6.91888 314.842 7.78247 313.23 8.48012C311.361 9.29291 309.701 10.5155 307.771 11.1962L307.811 11.2233L307.781 11.2368ZM288.768 75.2407C291.945 75.1899 294.831 75.2339 297.723 75.0781C303.724 74.7598 309.732 74.665 315.733 74.3195C322.482 73.9334 329.245 73.9572 336.005 73.9233C340.191 73.903 344.377 73.9097 348.566 73.9334C349.457 73.9402 350.327 73.842 350.994 73.2629C353.097 71.424 355.502 69.9846 357.615 68.1525C359.681 66.3643 361.886 64.7388 363.975 62.9777C366.315 61.0033 368.849 59.2863 371.26 57.4101C376.296 53.4918 381.271 49.4955 386.219 45.4621C390.208 42.2075 394.258 39.0275 398.099 35.6036C401.936 32.1831 405.827 28.8033 409.261 24.9493C411.544 22.3856 413.965 19.9405 415.906 17.0957C416.688 15.9476 417.521 14.8131 417.968 13.4686C418.422 12.1004 417.535 9.8517 416.217 9.38096C414.494 8.76121 413.112 7.67072 411.683 6.59377C410.883 6.21447 410.883 6.21447 409.603 5.96386C407.082 5.25641 407.478 5.42574 407.082 5.25641C405.914 4.90046 405.983 4.97157 404.703 4.90046C402.776 4.79208 400.852 4.61259 398.925 4.54147C395.603 4.41955 392.284 4.52454 388.962 4.74806C384.84 5.02237 380.715 5.2933 376.645 5.99095C371.361 6.89518 366.089 7.84343 360.826 8.87297C354.669 10.0752 348.549 11.4265 342.535 13.1672C335.948 15.0705 329.344 16.9331 322.845 19.1446C318.737 20.5433 314.619 21.9013 310.521 23.3305C301.39 26.5105 292.602 30.4864 283.922 34.6994C278.575 37.2969 273.373 40.1857 268.357 43.403C262.979 46.8506 257.733 50.454 253.236 55.0598C251.753 56.5804 250.53 58.2432 249.507 60.0686C248.058 62.6526 248.498 64.732 250.506 66.9265C253.388 70.0761 257.059 71.6712 261.056 72.721C262.299 73.0495 263.558 73.3171 264.822 73.5677C265.465 73.6964 266.014 73.6253 266.525 73.0123C268.726 70.3809 271.043 67.8477 273.237 65.2095C276.848 60.8678 280.928 56.9902 285.063 53.1734C288.135 50.3388 291.298 47.599 294.438 44.8389C298.874 40.9409 303.626 37.4493 308.343 33.9306C311.598 31.5024 314.984 29.2198 318.425 27.0354C322.587 24.3939 326.756 21.7794 331.122 19.4799C334.024 17.9525 336.984 16.5979 340.184 15.8189C340.689 15.697 341.187 15.5108 341.671 15.8189C341.525 16.7266 341.048 17.1533 340.235 17.4242C336.862 18.5384 333.733 20.2182 330.603 21.8607C327.952 23.2526 325.415 24.8612 322.838 26.3954C318.273 29.1148 313.884 32.1052 309.549 35.1667C305.39 38.1063 301.441 41.3168 297.509 44.5578C293.865 47.5618 290.357 50.7046 286.865 53.8812C282.815 57.5659 279.093 61.579 275.334 65.5549C273.861 67.1128 272.462 68.7418 271.056 70.3572C270.084 71.4714 269.089 72.572 268.286 73.8556C268.699 74.1163 269.062 74.1874 269.441 74.2247C274.135 74.709 278.825 75.1899 283.553 75.2949C285.091 75.3287 286.212 74.8444 287.272 73.842C290.154 71.1192 293.269 68.6571 296.239 66.0324C298.563 63.9768 300.882 61.9008 303.29 59.9331C306.155 57.5896 308.909 55.114 311.716 52.7027C315.296 49.6242 318.943 46.6203 322.442 43.4538C327.569 38.8107 332.686 34.1541 337.688 29.3688C340.523 26.6561 343.093 23.703 345.816 20.8921C346.185 20.5128 346.477 20.0454 346.744 19.5815C347.438 18.3792 346.974 17.3226 345.61 17.1228C344.878 17.0144 344.136 16.7977 343.374 16.9602C342.853 17.072 342.579 16.8925 342.545 16.31C342.514 15.8122 342.386 15.355 343.08 15.1992C344.81 14.8097 346.361 14.6844 347.794 16.2219C348.898 17.4039 349.132 18.3657 348.268 19.7847C347.232 21.4848 346.019 23.0866 344.631 24.4853C342.03 27.11 339.321 29.633 336.659 32.2C332.378 36.3283 327.992 40.355 323.641 44.4088C319.323 48.4254 314.754 52.1574 310.362 56.0893C305.888 60.0923 301.133 63.7668 296.768 67.8985C295.488 69.1109 294.055 70.1641 292.765 71.3698C291.491 72.5619 289.917 73.4492 288.789 75.2576L288.768 75.2407ZM246.215 112.483C246.896 113.174 247.719 113.462 248.647 113.591C251.969 114.055 254.875 112.863 257.676 111.322C259.224 110.468 260.649 109.469 261.763 108.01C264.764 104.088 268.198 100.532 271.497 96.8677C274.006 94.0805 276.702 91.4592 279.343 88.7973C282.06 86.061 284.891 83.4363 287.542 80.6322C288.531 79.5891 289.727 78.7357 290.872 77.8484C291.522 77.3438 292.128 77.5673 292.744 78.0855C293.398 78.6341 292.907 79.0439 292.7 79.4807C292.003 80.9404 290.929 82.1528 290.025 83.477C288.542 85.6512 286.896 87.7035 285.084 89.5932C282.005 92.8037 278.771 95.8652 275.649 99.0385C271.351 103.404 266.718 107.38 261.865 111.115C260.632 112.063 259.579 113.269 258.976 114.891C263.037 115.05 266.938 115.179 270.836 115.487C276.235 115.911 281.64 116.243 287.021 116.862C288.308 117.011 289.581 117.008 290.872 116.974C292.436 116.933 293.957 116.588 295.508 116.466C296.849 116.361 297.997 115.846 298.972 114.942C301.096 112.971 303.507 111.359 305.715 109.49C308.902 106.794 312.265 104.308 315.513 101.683C319.682 98.3138 323.786 94.8662 327.962 91.5066C332.764 87.6459 337.617 83.8461 342.443 80.0158C344.177 78.6409 345.901 77.2557 347.767 75.769C346.646 75.4405 345.735 75.6403 344.844 75.6471C338.728 75.6843 332.608 75.6809 326.495 75.8333C320.007 75.9959 313.521 76.3515 307.033 76.5547C300.865 76.7477 294.709 77.2015 288.531 77.0728C287.085 77.0424 285.605 77.2794 284.511 78.3902C283.157 79.7652 281.65 80.9708 280.2 82.2239C275.699 86.1151 271.273 90.0843 266.847 94.0602C263.216 97.3181 259.566 100.556 255.928 103.803C252.731 106.658 249.538 109.513 246.219 112.48L246.215 112.483ZM322.255 162.304C323.722 162.694 325.49 162.291 327.254 162.277C334.451 162.226 341.295 160.709 347.642 157.214C349.914 155.961 352.01 154.518 353.439 152.259C354.794 150.122 354.818 147.887 353.89 145.662C353.382 144.44 352.623 143.302 351.797 142.235C349.491 139.251 346.338 137.301 343.273 135.248C340.096 133.122 336.51 131.791 333.076 130.172C330.468 128.939 327.691 128.086 324.931 127.236C322.012 126.335 319.13 125.315 316.18 124.503C315.096 124.205 314.199 124.303 313.338 125.024C311.862 126.264 310.338 127.449 308.871 128.702C305.106 131.916 301.905 135.668 298.708 139.421C297.828 140.454 297.201 141.629 296.646 142.851C294.827 146.844 295.779 150.735 298.193 153.499C301.722 157.542 306.386 159.629 311.449 160.932C314.883 161.816 318.398 162.243 322.252 162.307L322.255 162.304ZM301.37 115.738C301.821 115.775 301.983 115.819 302.135 115.796C307.121 115.034 312.156 114.729 317.165 114.18C320.413 113.825 323.671 113.543 326.922 113.181C328.202 113.039 329.438 112.71 330.563 112.003C333.651 110.065 336.875 108.358 340.113 106.682C343.398 104.982 346.758 103.438 350.114 101.88C355.265 99.4855 360.385 97.0201 365.489 94.5173C370.874 91.8758 376.445 89.6169 381.64 86.5791C383.049 85.7562 384.292 84.8045 385.474 83.7276C385.948 83.2941 386.327 82.759 386.805 82.3323C387.898 81.3535 388.095 81.1944 386.628 80.026C386.341 79.7957 385.978 79.6535 385.636 79.4977C383.33 78.441 380.898 77.8856 378.392 77.4962C369.997 76.2025 361.537 75.9349 353.07 75.708C351.794 75.6742 350.652 75.9857 349.623 76.7985C347.354 78.5901 345.027 80.3105 342.765 82.1122C338.66 85.387 334.583 88.6991 330.498 92.0011C327.918 94.0906 325.341 96.1802 322.777 98.2901C320.088 100.505 317.494 102.845 314.717 104.941C310.23 108.335 305.993 112.03 301.363 115.731L301.37 115.738ZM282.984 77.337C282.92 77.2151 282.859 77.0932 282.794 76.9712C279.039 76.9475 275.303 76.619 271.564 76.3413C270.281 76.2465 269.028 75.9316 267.731 75.9586C266.864 75.9756 266.251 76.2397 265.678 76.9475C263.789 79.2775 261.936 81.6279 260.104 84.0019C257.358 87.5612 254.807 91.2662 252.278 94.9678C250.11 98.1411 248.153 101.487 246.398 104.928C245.789 106.123 245.206 107.339 245.006 108.677C244.898 109.405 244.617 110.204 245.179 110.959C257.828 99.7091 270.406 88.523 282.984 77.337ZM229.696 124.987C229.431 124.784 229.164 124.831 228.913 124.848C223.779 125.204 218.645 125.563 213.511 125.918C211.994 126.023 210.883 126.805 210.084 128.035C207.313 132.302 204.56 136.583 202.494 141.253C201.935 142.516 201.255 143.762 201.312 145.225C201.356 146.346 201.627 146.648 202.663 146.367C204.32 145.92 205.904 145.263 207.296 144.236C210.06 142.194 212.532 139.807 215.119 137.558C217.016 135.909 218.95 134.303 220.853 132.664C223.796 130.131 226.668 127.51 229.696 124.987ZM190.729 126.914C190.472 126.853 190.211 126.741 189.953 126.738C186.093 126.7 182.235 126.68 178.375 126.656C177.159 126.65 176.2 127.141 175.499 128.14C174.209 129.975 172.831 131.757 171.645 133.657C170.917 134.825 170.047 135.943 169.661 137.314C169.353 138.401 169.495 138.669 170.626 138.774C171.588 138.865 172.536 138.808 173.491 138.554C176.309 137.815 178.608 136.129 180.925 134.507C182.72 133.25 184.389 131.811 186.106 130.443C186.983 129.745 188.057 129.325 188.826 128.485C189.371 127.886 189.997 127.405 190.729 126.91V126.914ZM213.226 123.646C213.474 123.73 213.64 123.852 213.758 123.818C215.726 123.222 217.744 123.869 219.776 123.439C222.936 122.772 226.262 123.195 229.431 122.355C229.584 122.315 229.76 122.274 229.909 122.308C232.168 122.775 233.671 121.512 235.094 120.059C235.544 119.599 235.995 119.142 236.442 118.681C236.977 118.132 237.742 117.78 238.037 116.988C237.898 116.923 237.854 116.883 237.806 116.883C231.27 116.801 224.751 117.391 218.215 117.282C217.636 117.272 217.209 117.523 216.884 118.021C216.359 118.827 215.749 119.578 215.235 120.391C214.564 121.455 213.714 122.416 213.23 123.649L213.226 123.646ZM178.249 124.448C178.842 124.519 179.154 124.597 179.462 124.587C183.966 124.431 188.47 124.496 192.974 124.563C193.73 124.574 194.241 124.323 194.746 123.717C195.778 122.487 196.947 121.373 198.051 120.205C198.332 119.907 198.769 119.71 198.745 119.101C197.865 118.65 196.991 119.182 196.134 119.257C193.31 119.514 190.478 119.792 187.674 120.218C185.981 120.476 184.305 120.848 182.588 120.892C181.812 120.913 181.057 121.106 180.535 121.648C179.77 122.447 179.123 123.361 178.249 124.445V124.448ZM254.482 117.052C254.171 116.961 254.025 116.886 253.876 116.876C249.975 116.639 246.066 116.639 242.158 116.679C241.667 116.686 241.2 116.822 240.824 117.16C239.27 118.559 237.725 119.961 236.174 121.36C235.968 121.546 235.761 121.739 235.927 122.037C236.042 122.25 236.279 122.24 236.496 122.23C236.872 122.21 237.244 122.186 237.62 122.156C240.13 121.946 242.626 121.61 245.149 121.516C247.181 121.438 249.209 121.204 251.238 121.041C251.793 120.997 252.349 120.892 252.626 120.374C253.202 119.301 254.052 118.376 254.486 117.052H254.482ZM299.809 118.535C300.053 118.999 300.456 118.972 300.811 119.04C304.222 119.7 307.615 120.452 310.954 121.4C313.193 122.037 315.093 122.01 317.06 120.472C319.13 118.854 321.317 117.35 323.63 116.016C315.658 116.737 307.73 117.458 299.809 118.532V118.535ZM280.525 118.021C277.332 117.574 274.125 117.465 270.921 117.279C266.691 117.032 262.458 116.774 258.218 116.828C257.842 116.832 257.385 116.744 257.168 117.082C256.453 118.176 255.342 119.026 254.96 120.665C263.237 119.738 271.368 118.979 279.513 118.349C279.872 118.322 280.275 118.396 280.529 118.021H280.525ZM210.084 118.203C210.036 118.081 209.992 117.963 209.945 117.841C207.875 117.997 205.803 118.136 203.737 118.322C203.256 118.366 202.867 118.688 202.484 118.996C201.238 119.998 200.232 121.258 198.894 122.179C198.105 122.721 197.54 123.592 196.842 124.347C198.535 124.347 200.079 124.357 201.62 124.343C202.122 124.34 202.555 124.11 202.911 123.768C204.069 122.647 205.447 121.814 206.724 120.848C207.859 119.988 208.963 119.091 210.084 118.21V118.203ZM291.871 79.2708C291.119 79.5383 288.142 81.3806 287.797 81.6482C287.346 82.0004 287.068 82.4203 287.045 82.9994C287.028 83.3889 286.865 83.7106 286.587 83.9917C284.105 86.5046 281.673 89.0615 279.31 91.6895C277.308 93.9145 275.12 95.9736 273.031 98.1173C272.394 98.771 271.788 99.4618 271.263 100.38C272.418 100.43 272.956 99.7835 273.43 99.1706C275.334 96.7017 277.687 94.6664 279.828 92.4278C282.706 89.4171 285.863 86.6502 287.891 82.908C288.345 82.0715 289.08 81.4145 289.933 80.9065C290.557 80.5374 291.251 80.2156 291.871 79.2708ZM207.74 124.282C208.011 124.282 208.224 124.272 208.438 124.282C210.033 124.364 211.144 123.771 211.865 122.244C212.451 121.008 213.342 119.914 214.1 118.759C214.307 118.444 214.984 118.291 214.595 117.777C214.273 117.353 213.799 117.678 213.423 117.834C213.135 117.956 212.871 118.149 212.62 118.342C210.805 119.738 208.969 121.106 207.205 122.562C206.711 122.968 205.644 123.222 205.898 123.94C206.145 124.638 207.158 124.056 207.743 124.282H207.74ZM178.436 121.637C174.717 122.349 171.175 123.361 167.554 124.059C170.02 124.323 172.465 124.459 174.913 124.553C176.813 124.628 177.782 123.852 178.436 121.637ZM199.538 126.965C199.511 126.839 199.48 126.714 199.453 126.592C198.61 126.592 197.76 126.528 196.923 126.606C195.582 126.731 194.42 127.205 193.912 128.617C193.804 128.915 193.621 129.227 193.902 129.511C194.166 129.772 194.502 129.704 194.803 129.586C196.493 128.905 197.98 127.872 199.538 126.968V126.965ZM245.796 114.763C245.409 114.407 245.05 114.112 244.593 114.001C244.309 113.933 244.062 114.116 244.018 114.414C243.98 114.661 244.184 114.786 244.414 114.786C244.834 114.786 245.25 114.966 245.792 114.763H245.796ZM255.244 114.495C255.109 114.702 255.122 114.8 255.234 114.82C256.01 114.956 256.629 114.8 256.944 113.75C256.25 114.055 255.708 114.292 255.244 114.498V114.495ZM166.87 125.149C166.45 124.956 166.166 125.061 165.905 125.21C165.797 125.271 165.844 125.4 165.986 125.397C166.267 125.393 166.582 125.532 166.874 125.146L166.87 125.149ZM230.085 122.792C230.007 122.745 229.939 122.664 229.872 122.667C229.702 122.674 229.499 122.582 229.381 122.792C229.611 122.88 229.841 122.931 230.085 122.792ZM286.52 82.7996C286.442 82.7522 286.357 82.654 286.289 82.6642C286.134 82.6913 285.991 82.7962 286.015 82.9757C286.022 83.0367 286.171 83.1349 286.232 83.1214C286.384 83.0875 286.503 82.9825 286.52 82.803V82.7996Z" fill="#E8D9D9"/>
<path d="M143.069 74.7327C144.234 74.2314 145.168 73.3679 146.459 73.2222C146.774 73.1884 147.082 73.0529 147.404 73.1951C147.871 73.4051 148.111 73.7472 147.81 74.2111C147.553 74.6108 147.2 74.9562 146.855 75.2881C144.102 77.9195 141.125 80.3037 138.392 82.9622C136.681 84.6284 135.34 86.5655 134.125 88.5738C131.215 93.3896 128.486 98.3103 125.55 103.109C123.281 106.814 121.262 110.661 118.949 114.343C117.696 116.334 116.741 118.505 115.6 120.567C114.174 123.144 112.721 125.708 111.221 128.245C110.699 129.129 110.303 130.063 109.815 130.957C109.341 131.824 108.83 132.671 108.322 133.555C108.948 133.843 109.25 133.45 109.568 133.223C111.922 131.537 114.191 129.755 116.372 127.835C120.117 124.54 123.677 121.045 127.24 117.567C130.728 114.163 134.219 110.743 137.42 107.048C138.93 105.307 140.508 103.624 142.07 101.927C142.757 101.179 143.492 100.471 143.942 99.5295C144.078 99.2485 144.325 99.0114 144.555 98.7913C145.957 97.4772 147.407 96.2344 148.372 94.497C148.951 93.4539 149.659 93.3659 150.367 93.8095C150.848 94.1109 151.075 94.4665 150.675 94.9915C150.286 95.5028 149.92 96.0345 149.503 96.5256C143.611 103.492 137.86 110.563 132.458 117.919C129.566 121.858 126.664 125.772 124.466 130.162C123.768 131.553 123.071 132.939 122.674 134.452C122.319 135.807 122.85 136.501 124.209 136.193C125.814 135.831 127.412 135.33 128.675 134.158C131.74 131.313 134.741 128.397 137.894 125.651C140.651 123.249 143.167 120.621 145.747 118.051C146.919 116.883 148.284 115.911 149.571 114.857C149.818 114.654 150.086 114.468 150.367 114.312C150.766 114.089 151.203 114.041 151.583 114.322C151.969 114.603 151.989 115.006 151.904 115.474C151.681 116.73 150.963 117.733 150.323 118.783C148.511 121.759 146.272 124.445 144.362 127.351C142.381 130.361 140.722 133.538 139.486 136.931C139.052 138.12 138.527 139.275 138.05 140.43C137.457 140.352 137.403 139.976 137.413 139.59C137.443 138.462 137.637 137.365 138.029 136.295C139.472 132.343 141.457 128.688 143.787 125.19C144.826 123.629 145.934 122.128 147.051 120.628C147.21 120.415 147.339 120.168 147.532 119.988C148.327 119.243 148.987 118.286 149.513 117.116C149.049 117.042 148.823 117.347 148.585 117.58C146.594 119.534 144.62 121.505 142.622 123.453C139.628 126.372 136.688 129.352 133.512 132.082C132.296 133.125 131.304 134.419 130.017 135.397C128.303 136.698 126.593 137.985 124.391 138.381C121.713 138.862 119.85 136.884 120.568 134.239C121.374 131.266 122.722 128.529 124.412 125.959C124.852 125.288 125.238 124.584 125.695 123.923C126.606 122.606 127.5 121.292 128.692 120.168C129.874 119.05 130.819 117.682 131.713 116.256C131.226 116.646 130.711 117.005 130.26 117.431C126.948 120.564 123.734 123.808 120.317 126.819C117.269 129.505 114.584 132.634 111.018 134.717C110.371 135.096 109.744 135.519 109.074 135.851C107.441 136.661 106.202 137.863 105.243 139.407C103.398 142.374 101.989 145.571 100.323 148.629C99.2728 150.556 98.2771 152.51 97.1595 154.403C96.2113 156.015 95.4662 157.746 94.5993 159.405C92.6418 163.164 90.62 166.893 88.7065 170.672C87.2774 173.493 86.0548 176.419 84.5918 179.22C81.1137 185.878 77.9878 192.706 74.8112 199.509C70.9741 207.722 67.2726 215.996 63.7572 224.35C62.7446 226.755 61.7964 229.234 61.6711 231.913C61.6271 232.837 61.3223 233.697 60.9497 234.537C60.7161 235.066 60.374 235.516 59.7543 235.415C59.0431 235.296 58.8331 234.676 58.8771 234.067C58.9652 232.946 59.1311 231.831 59.3072 230.721C60.5196 223.063 62.66 215.657 65.2169 208.352C66.4056 204.962 67.3471 201.477 68.6645 198.141C70.8726 192.553 72.8131 186.867 75.0923 181.31C77.8795 174.516 80.6464 167.716 83.6537 161.017C85.0557 157.888 86.5933 154.813 88.2155 151.785C89.709 148.995 91.1043 146.157 92.4962 143.315C93.5121 141.243 94.6196 139.221 95.8286 137.257C96.0792 136.847 96.4009 136.471 96.6041 136.041C97.1731 134.835 97.6201 133.65 97.3797 132.214C97.041 130.189 97.7556 128.296 98.6192 126.484C100.536 122.447 102.978 118.728 105.525 115.071C107.269 112.568 108.942 110.015 110.865 107.637C114.949 102.591 119.281 97.7583 123.67 92.9798C127.189 89.1495 130.846 85.448 134.568 81.8141C135.029 81.3637 135.506 80.92 136.035 80.5577C138.121 79.1353 139.702 77.2794 140.82 75.0409C141.518 73.6456 142.412 72.3756 143.241 71.0683C145.964 66.7707 148.704 62.4832 151.488 58.2229C154.478 53.6509 157.292 48.9706 160.046 44.2598C161.583 41.6318 162.992 38.9056 163.707 35.8948C163.91 35.0448 163.934 34.1914 163.923 33.3379C163.91 32.1052 163.351 31.4618 162.159 31.1976C161.428 31.035 160.693 30.991 159.927 31.052C155.132 31.4313 150.587 32.874 146.001 34.1846C140.938 35.6307 136.072 37.5915 131.222 39.5998C126.461 41.5708 121.784 43.7349 117.256 46.1834C113.442 48.2459 109.514 50.1119 105.856 52.4724C103.384 54.0675 100.756 55.4221 98.2873 57.024C94.4706 59.5064 90.6843 62.0328 87.0471 64.7794C84.48 66.7165 81.8351 68.5521 79.2578 70.4824C75.563 73.2493 72.0714 76.2634 68.4714 79.1454C64.9527 81.9631 61.7828 85.1567 58.4572 88.1877C55.6361 90.7582 52.981 93.4844 50.4207 96.2885C47.9722 98.9674 45.4729 101.626 43.3088 104.569C41.2734 107.329 39.0417 109.947 37.0639 112.744C34.0938 116.944 31.1068 121.126 28.3738 125.498C25.8982 129.457 23.5783 133.504 21.2923 137.565C19.2434 141.209 17.4282 144.985 15.5148 148.707C13.625 152.381 11.9317 156.161 10.4484 160.005C8.92777 163.947 7.27171 167.861 6.23202 171.976C6.02205 172.806 5.88658 173.666 5.83578 174.516C5.77482 175.539 6.33362 175.867 7.248 175.417C7.72891 175.18 8.24706 174.967 8.64668 174.628C9.58139 173.829 10.4518 173.829 11.4034 174.702C10.682 176.179 9.54414 177.134 7.8813 177.358C7.36654 177.425 6.99062 177.706 6.56052 177.899C5.06024 178.573 3.88847 177.91 3.74285 176.267C3.68189 175.569 3.76655 174.875 3.89524 174.184C4.61321 170.313 5.89674 166.622 7.40379 162.998C8.82617 159.581 10.0352 156.079 11.6676 152.747C13.8621 148.273 15.972 143.762 18.3528 139.377C20.0935 136.173 21.9155 133.02 23.7341 129.864C26.545 124.98 29.6539 120.283 32.9322 115.704C35.4281 112.216 38.0663 108.829 40.6638 105.419C41.4428 104.396 42.303 103.434 43.1225 102.442C45.8522 99.1367 48.514 95.7501 51.5789 92.7631C54.5287 89.8912 57.2448 86.7789 60.4553 84.161C63.317 81.8243 65.9348 79.1895 68.7965 76.8561C71.4957 74.6548 74.1508 72.3891 76.9007 70.2657C79.2714 68.4369 81.6996 66.6691 84.138 64.925C87.5855 62.4663 91.0636 60.0483 94.562 57.6607C95.7981 56.8174 97.1392 56.1367 98.416 55.3544C100.377 54.1521 102.3 52.8957 104.275 51.7138C106.341 50.4777 108.366 49.167 110.51 48.063C113.51 46.5153 116.521 44.9812 119.532 43.4504C122.827 41.774 126.122 40.101 129.529 38.6482C133.921 36.7754 138.351 34.9534 142.906 33.5547C148.379 31.8715 153.875 30.1545 159.626 29.5923C160.696 29.4873 161.773 29.4467 162.84 29.616C164.601 29.8971 165.566 30.9876 165.634 32.7758C165.725 35.2277 165.271 37.5509 164.225 39.7962C162.389 43.7417 160.181 47.4669 157.953 51.199C154.62 56.7734 150.892 62.0904 147.481 67.6072C146.022 69.9677 144.525 72.3078 143.075 74.7327H143.069ZM103.984 137.941C101.982 137.473 100.184 137.304 98.863 135.926C98.5413 135.59 98.2365 135.943 98.1552 136.247C97.6506 138.154 96.3603 139.651 95.473 141.354C92.0322 147.968 88.7607 154.664 85.6044 161.413C83.5859 165.735 81.686 170.11 79.8911 174.53C78.5433 177.849 77.2699 181.198 75.9389 184.52C73.802 189.847 71.9055 195.256 69.9548 200.647C68.2581 205.331 66.768 210.089 65.2135 214.824C65.0713 215.257 64.8003 215.715 64.973 216.497C76.8737 189.637 90.0205 163.706 103.984 137.937V137.941ZM131.3 89.2308C131.036 89.4814 130.707 89.6914 130.525 89.9894C129.61 91.4592 128.198 92.4718 127.074 93.7553C124.815 96.3393 122.539 98.9064 120.378 101.578C117.92 104.623 115.688 107.83 113.527 111.081C110.889 115.05 108.278 119.033 105.775 123.094C104.061 125.871 102.731 128.864 100.831 131.537C99.5403 133.355 99.8079 134.181 101.748 135.194C103.513 136.115 105.237 135.638 106.195 133.887C107.997 130.595 109.721 127.263 111.549 123.988C113.222 120.994 114.929 118.021 116.609 115.034C117.737 113.029 118.682 110.919 119.979 108.999C121.086 107.359 122.078 105.632 123.023 103.895C125.042 100.18 127.246 96.5764 129.478 92.9832C130.196 91.825 131.188 90.8056 131.3 89.2308ZM99.2355 130.805C105.406 120.693 111.258 110.732 118.262 101.507C117.544 101.863 117.063 102.439 116.589 103.018C113.056 107.322 109.71 111.769 106.473 116.297C105.816 117.215 105.44 118.278 104.793 119.213C102.907 121.949 101.264 124.838 100.052 127.947C99.7266 128.783 99.3947 129.623 99.2355 130.805Z" fill="#E8D9D9"/>
<path d="M264.207 39.1833C264.637 38.3637 265.355 38.0352 265.948 37.6762C268.061 36.4028 270.029 34.9364 271.976 33.4328C272.105 33.3346 272.227 33.2262 272.365 33.1517C274.848 31.7733 276.998 29.9276 279.294 28.2919C281.557 26.6798 283.954 25.2541 286.274 23.7199C288.682 22.1282 291.022 20.4281 293.481 18.9143C295.665 17.5698 297.738 16.0289 300.068 14.9316C300.512 14.7217 301.24 14.2204 301.507 14.7725C301.826 15.4261 300.969 15.7241 300.491 15.9307C295.733 17.983 291.676 21.1766 287.372 23.9672C285.086 25.4505 282.705 26.8153 280.558 28.4815C279.047 29.6533 277.405 30.6253 275.911 31.8241C273.744 33.5615 271.404 35.0821 269.148 36.7076C268.586 37.1106 268.078 37.5712 267.587 38.0691C266.727 38.9394 265.677 39.5456 264.207 39.1833Z" fill="#E8D9D9"/>
<path d="M155.741 125.153C156.077 125.156 156.375 125.244 156.551 125.552C156.707 125.83 156.842 126.094 157.194 126.196C157.55 126.294 157.96 126.443 157.821 126.934C157.709 127.327 157.337 127.429 156.961 127.527C155.667 127.876 155.01 127.618 154.719 126.609C154.522 125.932 155.061 125.17 155.745 125.153H155.741Z" fill="#E8D9D9"/>
<path d="M307.74 11.2097C307.276 11.4095 307.127 12.0699 306.361 12.0496C306.592 11.2402 307.276 11.3825 307.78 11.2368L307.743 11.2097H307.74Z" fill="#E8D9D9"/>
<path d="M304.901 12.8353C304.827 12.859 304.688 12.9403 304.553 12.9335C304.448 12.9267 304.424 12.7676 304.529 12.6998C304.644 12.622 304.8 12.5576 304.932 12.5644C305.061 12.5712 305.067 12.6931 304.905 12.8353H304.901Z" fill="#E8D9D9"/>
</svg>
