<svg width="645" height="437" viewBox="0 0 645 437" fill="none" xmlns="http://www.w3.org/2000/svg">
<path d="M320.243 93.3383C320.152 92.9706 320.208 92.6191 320.451 92.3378C321.492 91.1288 322.541 89.9293 323.595 88.7355C324.808 87.3724 326.038 86.0232 327.25 84.6565C327.349 84.5432 327.355 84.3553 327.406 84.1917C326.929 84.0361 326.736 84.4032 326.467 84.6104C325.718 85.1889 325.013 85.8355 324.216 86.3318C321.364 88.0986 318.817 90.2934 316.371 92.5284C312.631 95.9491 308.678 99.1629 305.306 102.974C303.433 105.095 301.425 107.096 299.507 109.165C296.333 112.588 293.461 116.246 290.414 119.76C288.324 122.168 286.481 124.776 284.327 127.144C283.146 128.441 282.273 130.023 281.264 131.473C280.549 132.506 279.387 133.077 278.863 134.262C278.383 135.345 277.534 136.195 276.802 137.119C275.828 138.352 274.923 139.668 274.078 140.988C272.707 143.129 271.047 145.053 269.674 147.19C267.827 150.072 265.802 152.838 263.885 155.677C262.327 157.978 260.745 160.266 259.308 162.639C257.596 165.467 255.701 168.176 254.137 171.099C253.442 172.394 252.545 173.585 251.765 174.842C250.388 177.048 249.141 179.332 247.793 181.551C246.701 183.347 245.725 185.237 244.763 187.122C244.008 188.6 243.19 190.04 242.324 191.449C240.899 193.767 239.787 196.249 238.558 198.665C235.856 203.992 233.135 209.326 230.696 214.775C227.653 221.576 224.551 228.357 221.814 235.292C220.467 238.706 219.386 242.228 217.945 245.587C216.169 249.729 214.985 254.062 213.411 258.264C213.231 258.749 212.994 259.23 213.067 259.924C214.329 259.149 215.553 258.458 216.711 257.667C219.451 255.793 222.326 254.16 225.295 252.685C226.283 252.194 226.974 251.584 227.347 250.432C228.143 247.964 228.907 245.46 230.247 243.203C230.444 242.87 230.496 242.564 230.457 242.198C230.395 241.65 230.575 241.13 230.828 240.663C232.873 236.934 234.158 232.882 235.77 228.975C238.064 223.413 240.359 217.867 243.019 212.463C244.447 209.568 245.396 206.411 247.014 203.608C248.994 200.174 250.408 196.461 252.509 193.088C253.565 191.396 254.275 189.491 255.184 187.703C257.457 183.228 260.068 178.94 262.565 174.588C263.918 172.233 265.2 169.83 266.576 167.486C268.701 163.864 270.978 160.327 272.998 156.651C274.76 153.442 276.874 150.464 278.793 147.367C280.351 144.85 281.699 142.148 283.757 139.948C283.92 139.777 284.03 139.557 284.2 139.399C284.387 139.229 284.626 139.189 284.85 139.345C285.076 139.508 285.098 139.746 284.968 139.964C284.418 140.877 283.868 141.791 283.286 142.683C281.706 145.101 280.062 147.483 278.528 149.933C274.417 156.493 270.251 163.017 266.46 169.771C264.176 173.839 262.042 177.986 259.79 182.063C257.791 185.685 255.921 189.382 253.878 192.967C251.696 196.803 249.898 200.822 247.901 204.736C245.843 208.77 243.979 212.931 242.118 217.078C240.621 220.424 239.231 223.817 237.737 227.162C236.245 230.498 234.981 233.938 233.6 237.323C233.156 238.417 232.652 239.488 232.19 240.576C230.848 243.731 230.079 247.102 228.569 250.196C228.509 250.319 228.614 250.52 228.667 250.834C229.768 250.268 230.804 249.753 231.825 249.207C234.904 247.56 238.049 246.047 241.23 244.602C242.842 243.868 244.39 242.994 245.985 242.222C246.784 241.836 247.265 241.223 247.623 240.44C249.262 236.831 250.854 233.199 252.584 229.634C255.398 223.838 257.956 217.908 261.423 212.44C262.498 210.745 263.369 208.915 264.343 207.156C264.863 206.214 265.534 205.386 266.385 204.725C266.761 204.429 267.186 204.195 267.683 204.514C268.243 204.878 268.141 205.336 268.011 205.91C267.358 208.771 265.919 211.323 264.695 213.927C261.678 220.347 258.45 226.67 255.014 232.886C253.956 234.8 253.039 236.792 251.915 238.678C251.744 238.962 251.462 239.253 251.627 239.698C253.853 238.728 256.083 237.793 258.282 236.789C259.317 236.317 260.113 235.557 260.737 234.559C262.173 232.249 263.698 229.992 265.183 227.709C265.606 227.057 266.115 226.482 266.726 226.007C266.968 225.817 267.247 225.709 267.543 225.879C267.833 226.044 267.911 226.337 267.888 226.637C267.866 226.93 267.871 227.264 267.727 227.499C266.664 229.229 266.088 231.167 265.335 233.028C265.205 233.349 264.776 233.493 264.857 234.038C265.316 234.176 265.71 233.874 266.112 233.712C272.646 231.082 279.167 228.413 285.849 226.178C287.783 225.53 288.437 223.874 289.504 222.51C289.775 222.163 289.489 221.883 289.238 221.602C288.189 220.43 287.962 219.003 287.913 217.487C287.808 214.207 288.315 211.013 289.047 207.832C289.741 204.838 290.335 201.819 291.025 198.826C291.386 197.271 291.822 195.729 292.296 194.206C293.406 190.654 294.651 187.138 295.656 183.558C296.345 181.111 297.317 178.76 298.023 176.26C297.366 175.89 296.703 176.17 296.118 176.249C292.213 176.787 288.334 176.584 284.472 175.953C281.796 175.517 279.451 174.219 277.272 172.667C276.13 171.856 275.386 170.639 275.169 169.263C274.732 166.556 274.704 163.887 275.842 161.261C278.658 154.753 282.442 148.859 286.738 143.238C290.373 138.483 294.304 133.988 298.36 129.605C301.049 126.701 303.868 123.91 306.712 121.158C310.245 117.746 313.761 114.316 317.462 111.082C322.004 107.112 326.714 103.341 331.386 99.5275C335.19 96.4204 339.19 93.57 343.129 90.6458C349.069 86.2367 355.108 81.9672 361.305 77.9358C367.109 74.1626 372.896 70.3636 379.024 67.1068C382.627 65.1916 385.95 62.7842 389.59 60.9194C392.22 59.5732 394.827 58.1954 397.572 57.0784C401.353 55.5405 405.015 53.7156 408.908 52.4353C414.037 50.7485 419.225 49.3494 424.623 48.9015C426.425 48.7502 428.265 48.4591 430.006 49.1661C430.166 49.6961 429.736 49.6309 429.526 49.7666C429.371 49.8675 429.251 49.9999 429.31 50.1931C429.366 50.3791 429.537 50.4624 429.722 50.438C430.359 50.3604 430.91 49.9529 431.611 50.0471C435.675 50.5773 438.553 53.3541 437.908 57.8173C437.458 60.9446 436.42 63.8914 435.195 66.7918C432.632 72.8536 429.679 78.7257 426.455 84.4542C421.636 93.0172 416.513 101.397 411.098 109.596C409.369 112.212 407.791 114.923 406.038 117.527C402.804 122.335 399.669 127.21 396.534 132.086C394.428 135.362 392.395 138.679 390.34 141.965C390.781 142.465 391.175 142.14 391.531 142.029C396.388 140.503 401.236 138.944 406.166 137.666C411.951 136.164 417.75 134.712 423.739 134.25C425.58 134.109 427.413 134.108 429.095 135.065C430.631 135.942 430.983 136.884 430.608 138.555C429.845 141.956 427.843 144.654 425.724 147.274C423.19 150.409 420.201 153.12 417.326 155.931C412.46 160.68 407.515 165.351 402.606 170.056C399.746 172.798 396.827 175.481 394.043 178.295C391.216 181.152 388.493 184.119 385.78 187.09C385.234 187.685 384.441 188.09 384.104 189.151C385.417 188.697 386.636 188.38 387.764 187.871C395.257 184.48 402.707 180.988 410.22 177.645C416.76 174.736 423.265 171.744 429.808 168.842C435.542 166.299 441.311 163.857 447.078 161.397C451.378 159.565 455.598 157.548 459.887 155.684C463.903 153.935 467.954 152.276 471.995 150.585C475.759 149.01 479.53 147.444 483.3 145.874C486.305 144.62 489.3 143.345 492.315 142.119C498.128 139.758 503.944 137.407 509.769 135.081C516.861 132.246 523.961 129.424 531.146 126.838C532.711 126.275 534.181 125.519 535.732 124.928C541.541 122.718 547.537 121.024 553.26 118.563C555.704 117.514 558.259 116.731 560.778 115.866C568.897 113.076 577.023 110.304 585.148 107.52C587.721 106.64 590.251 105.625 592.942 105.095C593.619 104.961 594.238 104.533 594.885 104.243C595.37 104.024 595.848 103.76 596.401 103.803C596.534 103.812 596.684 103.982 596.773 104.113C596.813 104.174 596.755 104.372 596.682 104.425C596.45 104.6 596.205 104.783 595.938 104.879C594.042 105.557 592.239 106.527 590.327 107.08C587.766 107.826 585.336 108.925 582.764 109.639C580.608 110.237 578.561 111.235 576.447 112.004C571.219 113.907 565.966 115.759 560.825 117.889C556.225 119.793 551.493 121.323 546.839 123.067C543.014 124.502 539.236 126.047 535.434 127.548C535.104 127.678 534.779 127.825 534.446 127.948C528.994 129.913 523.648 132.149 518.277 134.322C512.953 136.475 507.596 138.541 502.278 140.709C496.854 142.916 491.452 145.172 486.059 147.455C478.488 150.665 470.926 153.891 463.384 157.161C455.624 160.522 447.892 163.953 440.141 167.339C435.477 169.376 430.786 171.346 426.143 173.419C420.903 175.757 415.708 178.201 410.475 180.56C406.378 182.409 402.244 184.171 398.144 186.021C392.374 188.62 386.609 191.234 380.876 193.908C379.538 194.532 378.374 195.498 377.441 196.666C375.045 199.674 372.687 202.713 370.302 205.73C370.118 205.963 369.848 206.167 370.045 206.474C370.237 206.768 370.574 206.644 370.864 206.626C376.646 206.319 382.418 205.991 388.219 206.459C390.979 206.68 393.751 206.743 396.514 207.066C400.179 207.493 403.779 208.259 407.196 209.585C410.604 210.907 413.899 212.54 416.687 215.008C417.354 215.6 417.958 216.241 418.53 216.925C419.678 218.292 420.184 219.793 420.263 221.627C420.414 225.017 419.414 227.836 417.247 230.43C415.92 232.014 414.724 233.746 413.252 235.175C410.841 237.521 408.223 239.645 405.315 241.4C399.837 244.709 393.854 246.793 387.769 248.549C382.238 250.146 376.564 250.918 370.759 250.356C367.717 250.062 364.857 249.231 362.059 248.051C359.247 246.863 356.893 245.095 355.399 242.449C353.135 238.44 353.119 234.19 354.693 229.935C355.453 227.887 356.421 225.917 357.257 223.897C359.356 218.846 362.179 214.2 365.203 209.667C365.328 209.481 365.393 209.257 365.501 209.019C364.816 208.694 364.158 208.814 363.533 208.883C359.658 209.335 355.787 209.81 351.917 210.299C350.804 210.442 349.707 210.766 348.595 210.809C347.372 210.86 346.712 211.467 346.082 212.435C342.714 217.585 339.35 222.738 335.858 227.804C333.308 231.501 330.769 235.207 327.971 238.734C325.146 242.297 322.61 246.104 319.503 249.433C316.302 252.858 313.973 256.977 310.689 260.323C310.391 260.628 310.258 261.021 310.084 261.398C309.733 262.143 309.013 262.325 308.302 262.349C307.395 262.377 306.875 261.363 307.348 260.591C307.438 260.441 307.545 260.282 307.679 260.177C309.591 258.722 310.789 256.661 312.286 254.848C313.462 253.423 314.287 251.771 315.459 250.358C317.35 248.086 319.451 245.997 321.218 243.617C323.478 240.58 325.803 237.593 328.047 234.546C329.272 232.882 330.583 231.288 331.728 229.557C334.568 225.269 337.524 221.064 340.425 216.818C341.581 215.127 342.711 213.421 343.982 211.528C341.858 211.83 340.172 212.661 338.478 213.443C334.772 215.153 331.09 216.909 327.389 218.621C320.945 221.603 314.431 224.428 308.055 227.55C307.098 228.018 306.093 228.381 305.14 228.86C304.085 229.389 303.407 230.217 303.171 231.436C302.649 234.102 302.115 236.768 301.477 239.411C300.981 241.455 300.737 243.587 299.565 245.449C299.52 240.541 300.88 235.779 301.111 230.779C300.249 231.077 299.409 231.311 298.613 231.649C295.241 233.09 291.884 234.572 288.515 236.023C287.318 236.539 286.118 237.048 284.903 237.511C283.508 238.039 282.47 238.971 281.746 240.24C277.78 247.173 273.756 254.075 269.916 261.079C268.262 264.096 266.521 267.032 264.54 269.834C263.331 271.544 261.776 272.91 260.091 274.12C258.71 275.114 257.043 274.713 256.128 273.298C255.63 272.533 255.349 271.729 255.274 270.814C254.875 265.913 255.493 261.116 256.907 256.443C257.645 254.011 258.249 251.558 258.888 249.025C258.259 248.815 257.787 249.132 257.333 249.317C255.74 249.957 254.157 250.626 252.597 251.338C251.718 251.736 251.078 252.4 250.559 253.243C249.382 255.159 248.176 257.069 246.45 258.561C246.094 258.87 245.731 259.181 245.331 259.43C243.552 260.549 242.119 259.317 241.953 257.43C241.928 257.15 241.983 256.862 242.011 256.441C241.446 256.739 241.366 257.229 241.139 257.588C238.842 261.171 236.656 264.834 234.239 268.332C232.294 271.149 230.094 273.797 227.322 275.888C225.886 276.972 224.388 277.841 222.477 277.801C220.618 277.762 219.754 277.009 219.759 275.146C219.763 273.955 220.055 272.799 220.347 271.651C221.004 269.077 221.539 266.47 222.479 263.972C222.741 263.277 223.414 262.709 223.209 261.862C222.981 261.704 222.751 261.669 222.517 261.757C219.472 262.931 216.229 263.429 213.139 264.484C211.595 265.013 210.926 265.995 210.438 267.443C209.723 269.563 209.177 271.739 208.32 273.814C207.896 274.841 207.707 275.965 207.408 277.045C206.257 281.2 205.174 285.38 203.926 289.506C202.917 292.846 202.092 296.228 201.253 299.613C199.757 305.63 198.361 311.664 197.118 317.741C196.051 322.962 195.058 328.193 194.179 333.444C193.054 340.16 192.126 346.906 191.583 353.693C191.386 356.148 191.285 358.649 191.891 361.104C192.028 361.661 191.832 362.294 191.952 362.861C192.035 363.263 192.089 363.877 192.741 363.877C193.212 363.877 193.477 363.548 193.649 363.141C193.966 362.375 194.292 361.615 194.917 361.055C195.353 361.103 195.397 361.415 195.367 361.694C195.167 363.621 194.32 365.198 192.728 366.324C191.607 367.118 191.061 366.955 190.656 365.644C189.796 362.854 189.382 359.97 189.435 357.067C189.605 348.226 191.009 339.514 192.465 330.815C193.637 323.811 195.108 316.861 196.662 309.935C197.98 304.054 199.422 298.189 201.069 292.392C202.46 287.502 203.625 282.54 205.211 277.712C206.495 273.803 207.45 269.79 209.138 265.912C208.329 265.638 207.787 266.188 207.175 266.178C206.698 266.169 206.181 266.193 205.941 265.683C205.736 265.248 206.028 264.891 206.28 264.558C206.717 263.981 207.293 263.541 207.912 263.205C209.842 262.156 210.923 260.569 211.582 258.461C213.154 253.441 214.78 248.43 216.745 243.543C218.287 239.707 219.979 235.93 221.434 232.06C224.41 224.125 228.235 216.577 231.735 208.876C233.669 204.62 235.954 200.544 238.113 196.4C239.828 193.113 241.562 189.835 243.291 186.555C244.998 183.314 246.965 180.205 248.792 177.025C251.74 171.894 255.061 166.998 258.082 161.904C259.791 159.023 261.817 156.316 263.717 153.542C266.686 149.217 269.757 144.957 272.677 140.594C274.187 138.338 276.084 136.367 277.604 134.107C279.019 131.999 280.865 130.192 282.249 128.086C284.079 125.305 286.277 122.843 288.395 120.322C290.518 117.795 292.505 115.146 294.809 112.766C295.828 111.71 296.729 110.53 297.612 109.356C298.508 108.161 299.683 107.247 300.68 106.151C303.973 102.525 307.275 98.8882 310.964 95.663C316.39 90.9215 321.843 86.2021 327.798 82.1118C328.345 81.7375 328.906 81.3936 329.575 81.3724C330.364 81.3452 330.783 82.0343 330.353 82.6886C329.967 83.2763 329.488 83.813 329.001 84.325C327.663 85.7391 326.363 87.1953 324.933 88.5029C323.276 90.0231 321.986 91.8951 320.218 93.2995L320.27 93.3132L320.243 93.3383ZM323.448 166.921C326.743 165.725 329.767 164.733 332.727 163.53C338.87 161.038 345.101 158.778 351.235 156.258C358.134 153.427 365.195 151.018 372.231 148.55C376.589 147.023 380.956 145.524 385.333 144.041C386.265 143.727 387.137 143.312 387.624 142.468C389.156 139.793 391.145 137.427 392.689 134.756C394.2 132.148 395.914 129.66 397.459 127.072C399.189 124.171 401.213 121.469 403.052 118.645C406.894 112.747 410.643 106.789 414.352 100.803C417.341 95.9735 420.42 91.2 423.193 86.2477C425.963 81.3002 428.804 76.3756 430.999 71.121C432.456 67.6264 434.101 64.2053 435.101 60.5406C435.504 59.0619 435.964 57.5791 435.947 56.0162C435.928 54.4262 434.193 52.4005 432.65 52.3837C430.63 52.3577 428.796 51.7178 426.919 51.1091C426.188 50.871 425.305 50.7728 424.524 51.2004C424.786 52.8765 423.538 51.9634 423.064 51.9294C421.716 51.8373 420.391 51.4684 419.031 51.8549C416.982 52.4353 414.912 52.9403 412.877 53.5596C409.369 54.6279 405.946 55.9316 402.562 57.3602C398.363 59.1293 394.159 60.8961 390.165 63.0884C384.981 65.9324 379.824 68.8186 374.706 71.7859C368.719 75.2551 362.824 78.8662 357.178 82.8457C350.994 87.2006 344.778 91.5192 338.797 96.1638C335.016 99.1005 331.211 101.999 327.452 104.963C319.075 111.565 311.342 118.873 303.807 126.39C299.165 131.023 294.78 135.907 290.708 141.066C286.34 146.597 282.167 152.242 279.134 158.663C278.134 160.782 277.458 162.956 277.048 165.228C276.467 168.444 277.674 170.454 280.558 172.02C284.696 174.267 289.099 174.609 293.643 174.266C295.058 174.161 296.468 173.987 297.875 173.794C298.592 173.696 299.139 173.425 299.452 172.602C300.8 169.065 302.304 165.59 303.643 162.05C305.846 156.223 308.706 150.711 311.644 145.243C313.827 141.182 316.14 137.187 318.42 133.179C321.644 127.518 325.342 122.167 328.995 116.8C331.515 113.097 334.226 109.498 337.028 105.983C340.417 101.73 343.824 97.5038 347.548 93.5351C350.025 90.8981 352.624 88.4204 355.681 86.4565C356.164 86.1478 356.616 85.7744 357.232 85.9215C357.406 86.9204 357.062 87.5372 356.312 88.1122C353.195 90.4878 350.537 93.3654 347.865 96.2042C345.6 98.6098 343.534 101.2 341.399 103.727C337.617 108.206 334.116 112.903 330.697 117.656C327.419 122.217 324.456 126.986 321.522 131.781C318.803 136.224 316.276 140.764 313.778 145.333C310.88 150.633 308.443 156.157 305.954 161.656C304.978 163.81 304.106 166.012 303.221 168.202C302.609 169.714 301.967 171.22 301.591 172.847C302.116 172.97 302.52 172.914 302.928 172.817C307.997 171.633 313.062 170.446 318.029 168.854C319.645 168.337 320.639 167.428 321.384 166.001C323.41 162.125 325.773 158.437 327.925 154.631C329.608 151.651 331.28 148.652 333.083 145.733C335.227 142.259 337.208 138.686 339.268 135.162C341.893 130.664 344.615 126.219 347.124 121.658C350.8 114.971 354.46 108.274 357.954 101.484C359.934 97.6354 361.552 93.631 363.38 89.7201C363.628 89.1918 363.764 88.5996 363.876 88.0195C364.167 86.516 363.303 85.5812 361.808 85.8639C361.006 86.0141 360.155 86.055 359.419 86.4987C358.915 86.8029 358.564 86.7144 358.319 86.1192C358.109 85.6111 357.81 85.1806 358.478 84.7683C360.142 83.7395 361.714 83.0507 363.762 84.1385C365.338 84.9737 365.928 85.8926 365.538 87.683C365.069 89.8287 364.381 91.9354 363.437 93.8936C361.669 97.5664 359.752 101.172 357.9 104.807C354.921 110.652 351.797 116.429 348.718 122.222C345.66 127.964 342.239 133.5 339.074 139.181C335.849 144.965 332.213 150.507 329.148 156.387C328.249 158.112 327.134 159.725 326.223 161.447C325.324 163.148 324.001 164.64 323.476 166.932L323.448 166.921ZM292.476 221.069C293.435 221.545 294.397 221.549 295.411 221.349C299.042 220.637 301.643 218.349 304.009 215.734C305.316 214.287 306.443 212.732 307.08 210.809C308.797 205.64 311.099 200.696 313.22 195.688C314.834 191.879 316.702 188.176 318.498 184.449C320.346 180.619 322.354 176.863 324.11 172.985C324.766 171.541 325.705 170.221 326.58 168.884C327.076 168.124 327.789 168.139 328.618 168.457C329.497 168.794 329.132 169.398 329.074 169.928C328.872 171.701 328.189 173.352 327.722 175.058C326.958 177.859 325.98 180.591 324.771 183.214C322.716 187.669 320.445 192.025 318.331 196.458C315.42 202.557 312.02 208.37 308.303 214.011C307.359 215.444 306.694 217.08 306.649 218.988C310.941 217.693 315.056 216.423 319.231 215.342C325.013 213.841 330.768 212.242 336.603 210.952C337.999 210.644 339.325 210.183 340.659 209.683C342.275 209.078 343.737 208.17 345.31 207.485C346.671 206.893 347.683 205.943 348.375 204.649C349.88 201.83 351.814 199.281 353.444 196.537C355.797 192.579 358.409 188.777 360.852 184.872C363.986 179.858 367.026 174.786 370.171 169.78C373.79 164.026 377.483 158.317 381.137 152.587C382.45 150.529 383.75 148.464 385.161 146.242C383.873 146.303 382.995 146.839 382.069 147.167C375.704 149.407 369.322 151.605 363.002 153.964C356.295 156.468 349.66 159.173 342.966 161.719C336.605 164.14 330.348 166.829 323.86 168.917C322.341 169.406 320.883 170.185 320.143 171.737C319.225 173.659 318.087 175.458 317.026 177.286C313.733 182.964 310.546 188.695 307.361 194.434C304.747 199.138 302.106 203.827 299.481 208.523C297.175 212.65 294.872 216.777 292.479 221.064L292.476 221.069ZM389.696 245.659C391.365 245.538 393.064 244.481 394.899 243.832C402.385 241.19 408.976 237.145 414.337 231.216C416.255 229.092 417.922 226.833 418.6 223.964C419.243 221.248 418.464 218.908 416.695 216.922C415.726 215.83 414.525 214.916 413.28 214.101C409.801 211.82 405.811 210.92 401.877 209.883C397.799 208.808 393.58 208.711 389.417 208.259C386.254 207.912 383.051 208.021 379.867 208.128C376.499 208.239 373.127 208.213 369.758 208.427C368.521 208.506 367.621 208.931 366.983 209.993C365.889 211.817 364.727 213.601 363.649 215.436C360.878 220.142 358.891 225.207 356.907 230.27C356.361 231.664 356.13 233.115 355.991 234.589C355.532 239.407 357.924 243.123 361.437 245.136C366.571 248.082 372.185 248.58 377.934 248.117C381.833 247.803 385.652 246.983 389.694 245.664L389.696 245.659ZM351.161 204.616C351.644 204.493 351.83 204.481 351.98 204.401C356.904 201.813 362.046 199.683 367.072 197.308C370.33 195.769 373.627 194.303 376.886 192.756C378.17 192.147 379.341 191.359 380.259 190.217C382.782 187.085 385.53 184.145 388.303 181.232C391.117 178.277 394.064 175.458 397.003 172.626C401.513 168.275 405.966 163.862 410.387 159.416C415.052 154.724 420.048 150.363 424.372 145.326C425.545 143.961 426.499 142.522 427.344 140.973C427.682 140.351 427.885 139.656 428.23 139.039C429.018 137.625 429.166 137.388 427.216 136.698C426.833 136.561 426.404 136.543 425.991 136.504C423.206 136.232 420.471 136.528 417.717 137.023C408.497 138.695 399.579 141.461 390.669 144.271C389.325 144.695 388.247 145.43 387.466 146.648C385.745 149.333 383.938 151.964 382.227 154.657C379.125 159.549 376.065 164.47 372.994 169.383C371.055 172.49 369.12 175.597 367.206 178.719C365.199 181.996 363.335 185.37 361.194 188.555C357.736 193.709 354.647 199.086 351.152 204.612L351.161 204.616ZM318.171 171.189C318.06 171.085 317.952 170.98 317.841 170.876C313.917 172.202 309.903 173.204 305.904 174.26C304.532 174.623 303.112 174.745 301.769 175.24C300.871 175.57 300.327 176.066 299.985 177.01C298.853 180.119 297.767 183.237 296.71 186.372C295.127 191.072 293.801 195.853 292.495 200.623C291.377 204.712 290.54 208.905 289.948 213.125C289.743 214.591 289.573 216.068 289.846 217.535C289.995 218.333 289.989 219.268 290.847 219.853C299.989 203.57 309.08 187.379 318.171 171.189ZM279.749 240.052C279.4 239.935 279.138 240.081 278.883 240.189C273.657 242.407 268.433 244.629 263.207 246.847C261.663 247.502 260.786 248.718 260.395 250.287C259.042 255.734 257.711 261.188 257.237 266.802C257.109 268.32 256.848 269.865 257.434 271.369C257.883 272.523 258.274 272.739 259.254 272.073C260.82 271.011 262.236 269.756 263.318 268.185C265.465 265.061 267.184 261.682 269.073 258.406C270.457 256.004 271.896 253.634 273.291 251.24C275.448 247.539 277.5 243.772 279.749 240.052ZM239.809 256.083C239.519 256.112 239.207 256.089 238.937 256.178C234.898 257.529 230.868 258.896 226.834 260.26C225.563 260.69 224.741 261.547 224.369 262.841C223.684 265.22 222.888 267.573 222.335 269.981C221.997 271.461 221.491 272.94 221.582 274.509C221.652 275.754 221.896 275.981 223.114 275.684C224.15 275.433 225.118 275.032 226.022 274.423C228.695 272.64 230.486 270.054 232.318 267.528C233.737 265.572 234.96 263.471 236.258 261.426C236.922 260.383 237.89 259.559 238.39 258.406C238.743 257.585 239.223 256.858 239.808 256.079L239.809 256.083ZM262.093 244.58C262.381 244.579 262.598 244.646 262.709 244.568C264.547 243.239 266.884 243.187 268.848 242.007C271.903 240.175 275.523 239.419 278.527 237.403C278.671 237.306 278.84 237.2 279.008 237.182C281.531 236.856 282.645 234.998 283.605 232.971C283.909 232.329 284.214 231.69 284.515 231.049C284.875 230.284 285.547 229.641 285.569 228.709C285.401 228.692 285.34 228.665 285.291 228.682C278.446 230.95 271.86 233.91 265.005 236.149C264.397 236.347 264.042 236.762 263.883 237.398C263.625 238.427 263.26 239.43 263.016 240.463C262.699 241.813 262.159 243.122 262.097 244.582L262.093 244.58ZM225.908 258.003C226.552 257.863 226.905 257.833 227.223 257.711C231.863 255.928 236.583 254.374 241.305 252.824C242.096 252.563 242.539 252.118 242.847 251.304C243.482 249.65 244.299 248.068 245.03 246.452C245.216 246.04 245.601 245.678 245.357 245.051C244.276 244.898 243.557 245.767 242.69 246.153C239.837 247.438 236.985 248.746 234.214 250.2C232.541 251.078 230.927 252.07 229.153 252.733C228.351 253.034 227.633 253.507 227.284 254.259C226.774 255.368 226.428 256.555 225.907 257.999L225.908 258.003ZM302.741 222.858C302.383 222.875 302.204 222.85 302.045 222.893C297.892 224.05 293.816 225.456 289.756 226.905C289.246 227.088 288.807 227.398 288.537 227.886C287.42 229.904 286.314 231.922 285.2 233.938C285.051 234.207 284.905 234.483 285.185 234.734C285.382 234.915 285.626 234.819 285.848 234.73C286.233 234.574 286.613 234.415 286.994 234.248C289.535 233.126 292.017 231.878 294.614 230.872C296.705 230.059 298.736 229.085 300.793 228.186C301.356 227.94 301.898 227.631 302.001 226.991C302.215 225.664 302.769 224.394 302.744 222.857L302.741 222.858ZM350.54 208.095C350.961 208.491 351.372 208.318 351.767 208.261C355.561 207.722 359.37 207.285 363.193 207.072C365.756 206.931 367.728 206.219 369.226 203.907C370.802 201.475 372.542 199.12 374.474 196.896C366.42 200.517 358.413 204.122 350.539 208.092L350.54 208.095ZM330.246 214.497C326.755 215.18 323.372 216.221 319.964 217.18C315.464 218.444 310.957 219.699 306.555 221.281C306.165 221.42 305.656 221.493 305.552 221.924C305.201 223.322 304.348 224.608 304.539 226.455C312.836 222.509 321.042 218.792 329.309 215.204C329.673 215.047 330.12 214.979 330.25 214.496L330.246 214.497ZM256.857 240.035C256.764 239.925 256.675 239.818 256.582 239.707C254.48 240.615 252.369 241.505 250.282 242.443C249.796 242.662 249.506 243.137 249.218 243.596C248.279 245.09 247.683 246.766 246.62 248.208C245.992 249.057 245.715 250.168 245.26 251.206C247.025 250.597 248.639 250.052 250.241 249.483C250.763 249.299 251.132 248.903 251.38 248.419C252.184 246.833 253.322 245.468 254.306 244.002C255.179 242.697 256.008 241.364 256.86 240.042L256.857 240.035ZM328.133 170.008C327.446 170.557 325.004 173.549 324.74 173.953C324.397 174.482 324.259 175.02 324.443 175.632C324.565 176.044 324.511 176.438 324.323 176.831C322.639 180.345 321.023 183.886 319.504 187.477C318.217 190.518 316.677 193.452 315.269 196.439C314.841 197.35 314.457 198.289 314.24 199.435C315.462 199.072 315.791 198.204 316.065 197.394C317.161 194.135 318.883 191.165 320.31 188.061C322.228 183.885 324.524 179.864 325.293 175.232C325.465 174.197 325.995 173.247 326.702 172.41C327.219 171.801 327.827 171.216 328.133 170.008ZM256.601 247.218C256.883 247.12 257.102 247.033 257.328 246.967C259.021 246.477 259.966 245.46 260.169 243.607C260.335 242.108 260.87 240.646 261.245 239.169C261.347 238.767 261.999 238.364 261.408 237.967C260.92 237.642 260.542 238.151 260.206 238.449C259.95 238.68 259.744 238.976 259.552 239.267C258.161 241.376 256.74 243.463 255.424 245.616C255.054 246.218 254.033 246.867 254.557 247.524C255.065 248.163 255.912 247.191 256.604 247.217L256.601 247.218ZM225.091 255.004C221.469 257.084 218.14 259.415 214.616 261.445C217.282 260.833 219.88 260.095 222.468 259.312C224.476 258.706 225.207 257.549 225.091 255.004ZM249.013 252.966C248.939 252.845 248.862 252.726 248.79 252.608C247.911 252.912 247.001 253.15 246.157 253.533C244.804 254.146 243.763 255.058 243.742 256.714C243.736 257.063 243.657 257.454 244.053 257.65C244.422 257.827 244.747 257.635 245.019 257.403C246.536 256.085 247.715 254.473 249.014 252.97L249.013 252.966ZM292.859 223.597C292.328 223.365 291.848 223.187 291.331 223.235C291.01 223.267 290.818 223.546 290.879 223.873C290.929 224.144 291.186 224.202 291.426 224.119C291.864 223.968 292.363 224.005 292.855 223.598L292.859 223.597ZM302.615 219.918C302.548 220.182 302.598 220.28 302.722 220.261C303.579 220.123 304.169 219.737 304.12 218.529C303.506 219.097 303.026 219.539 302.616 219.922L302.615 219.918ZM214.295 262.828C213.787 262.778 213.529 262.99 213.31 263.239C213.219 263.342 213.315 263.459 213.462 263.404C213.754 263.299 214.132 263.331 214.297 262.823L214.295 262.828ZM279.365 237.623C279.267 237.602 279.167 237.542 279.098 237.569C278.924 237.637 278.679 237.615 278.631 237.877C278.903 237.886 279.161 237.856 279.365 237.623ZM323.823 175.613C323.725 175.591 323.601 175.519 323.534 175.554C323.382 175.639 323.271 175.799 323.361 175.978C323.39 176.039 323.58 176.088 323.639 176.052C323.786 175.962 323.872 175.81 323.825 175.616L323.823 175.613Z" fill="#E8D9D9"/>
<path d="M171.334 218.819C172.369 217.877 173.033 216.64 174.326 216.024C174.642 215.875 174.915 215.623 175.301 215.656C175.864 215.706 176.238 215.977 176.091 216.569C175.966 217.078 175.723 217.565 175.482 218.036C173.558 221.77 171.312 225.328 169.419 229.083C168.235 231.436 167.533 233.939 166.988 236.47C165.688 242.539 164.612 248.652 163.277 254.713C162.244 259.393 161.524 264.131 160.436 268.802C159.846 271.33 159.631 273.937 159.183 276.498C158.624 279.699 158.032 282.895 157.38 286.08C157.154 287.189 157.077 288.307 156.89 289.414C156.708 290.489 156.479 291.556 156.268 292.66C157.025 292.735 157.198 292.217 157.448 291.866C159.295 289.26 161.02 286.586 162.604 283.799C165.324 279.015 167.778 274.09 170.241 269.181C172.654 264.377 175.064 259.553 177.072 254.549C178.021 252.19 179.061 249.867 180.078 247.536C180.526 246.508 181.037 245.506 181.168 244.362C181.208 244.02 181.381 243.684 181.542 243.372C182.531 241.497 183.595 239.679 183.977 237.52C184.205 236.224 184.912 235.878 185.809 236.086C186.419 236.227 186.784 236.516 186.556 237.207C186.334 237.881 186.144 238.567 185.886 239.229C182.248 248.613 178.796 258.056 175.81 267.67C174.212 272.818 172.594 277.945 171.881 283.313C171.655 285.015 171.426 286.711 171.557 288.432C171.674 289.972 172.478 290.505 173.783 289.695C175.327 288.739 176.813 287.641 177.709 285.965C179.881 281.896 181.961 277.775 184.26 273.777C186.271 270.281 187.949 266.635 189.715 263.026C190.517 261.386 191.59 259.882 192.553 258.32C192.738 258.019 192.95 257.729 193.187 257.465C193.523 257.088 193.962 256.882 194.458 257.038C194.962 257.192 195.128 257.605 195.208 258.123C195.427 259.514 195.039 260.818 194.75 262.143C193.931 265.899 192.563 269.505 191.617 273.222C190.635 277.074 190.047 280.984 189.979 284.967C189.955 286.363 189.823 287.756 189.741 289.132C189.095 289.264 188.903 288.892 188.775 288.485C188.401 287.299 188.207 286.085 188.232 284.828C188.314 280.187 189.069 275.663 190.239 271.176C190.762 269.174 191.377 267.211 192.002 265.244C192.092 264.965 192.137 264.661 192.273 264.404C192.834 263.341 193.178 262.105 193.306 260.696C192.795 260.786 192.668 261.185 192.505 261.514C191.132 264.268 189.782 267.034 188.399 269.784C186.328 273.905 184.335 278.071 182.005 282.06C181.112 283.585 180.543 285.291 179.553 286.775C178.234 288.748 176.914 290.705 174.761 291.91C172.141 293.376 169.487 291.984 169.284 288.967C169.054 285.577 169.475 282.238 170.312 278.95C170.53 278.092 170.679 277.218 170.918 276.365C171.394 274.664 171.854 272.972 172.692 271.37C173.523 269.78 174.016 268.013 174.435 266.204C174.067 266.786 173.659 267.346 173.343 267.953C171.016 272.411 168.832 276.951 166.352 281.32C164.14 285.217 162.466 289.447 159.497 292.902C158.959 293.53 158.458 294.197 157.878 294.784C156.467 296.216 155.607 297.915 155.163 299.871C154.306 303.628 153.988 307.469 153.35 311.257C152.949 313.645 152.614 316.041 152.13 318.417C151.721 320.439 151.567 322.512 151.26 324.554C150.571 329.178 149.805 333.794 149.169 338.424C148.694 341.88 148.472 345.371 147.955 348.818C146.724 357.012 145.921 365.257 145.056 373.494C144.01 383.439 143.128 393.398 142.468 403.376C142.278 406.247 142.181 409.174 143.014 412.012C143.301 412.992 143.293 413.999 143.206 415.009C143.153 415.644 142.958 416.236 142.275 416.353C141.491 416.486 141.049 415.915 140.876 415.263C140.564 414.063 140.336 412.841 140.12 411.62C138.629 403.199 138.196 394.705 138.234 386.168C138.253 382.205 137.981 378.232 138.154 374.28C138.446 367.658 138.424 361.03 138.801 354.415C139.262 346.328 139.701 338.241 140.426 330.174C140.762 326.406 141.259 322.646 141.861 318.905C142.414 315.458 142.848 311.997 143.277 308.533C143.591 306.006 144.018 303.499 144.572 301.016C144.686 300.498 144.886 299.991 144.943 299.469C145.103 298.007 145.142 296.61 144.375 295.199C143.293 293.209 143.357 290.978 143.605 288.778C144.152 283.879 145.36 279.123 146.699 274.392C147.618 271.155 148.443 267.89 149.594 264.719C152.037 257.987 154.815 251.389 157.672 244.827C159.963 239.567 162.445 234.39 165.019 229.262C165.337 228.626 165.675 227.992 166.096 227.424C167.759 225.19 168.741 222.686 169.1 219.949C169.326 218.243 169.801 216.597 170.196 214.936C171.489 209.474 172.803 204.018 174.173 198.573C175.646 192.73 176.897 186.837 178.073 180.933C178.73 177.64 179.218 174.29 178.88 170.893C178.786 169.934 178.504 169.035 178.186 168.149C177.728 166.869 176.914 166.399 175.576 166.552C174.755 166.646 173.972 166.864 173.196 167.203C168.332 169.324 164.112 172.464 159.802 175.481C155.043 178.811 150.674 182.607 146.339 186.446C142.083 190.215 137.985 194.154 134.144 198.337C130.91 201.86 127.485 205.219 124.52 208.997C122.516 211.55 120.263 213.908 118.265 216.467C115.179 220.429 112.139 224.425 109.335 228.598C107.355 231.542 105.258 234.408 103.265 237.348C100.407 241.563 97.8511 245.962 95.1341 250.263C92.4788 254.467 90.3225 258.938 87.9453 263.296C85.9285 266.991 84.1408 270.789 82.48 274.635C80.8907 278.309 79.2411 281.981 78.0434 285.828C76.9142 289.439 75.5289 292.972 74.4731 296.601C72.8871 302.048 71.2773 307.485 70.0007 313.027C68.8437 318.046 67.8809 323.101 66.9583 328.158C66.133 332.695 65.5989 337.286 64.9429 341.856C64.2945 346.367 63.8888 350.918 63.7251 355.46C63.558 360.118 63.2398 364.796 63.6363 369.461C63.7159 370.402 63.8842 371.347 64.1371 372.252C64.4415 373.34 65.1424 373.482 65.9338 372.683C66.35 372.263 66.8136 371.854 67.1084 371.357C67.7955 370.187 68.7031 369.874 70.0098 370.443C69.789 372.242 68.946 373.647 67.2925 374.479C66.7801 374.735 66.4892 375.163 66.1102 375.519C64.7883 376.762 63.3275 376.491 62.5846 374.831C62.27 374.125 62.1085 373.371 61.9941 372.604C61.3499 368.309 61.36 363.998 61.6276 359.677C61.8812 355.602 61.8819 351.515 62.3849 347.453C63.0635 341.998 63.6404 336.535 64.5449 331.105C65.2073 327.138 65.9727 323.195 66.7334 319.249C67.9072 313.145 69.4589 307.128 71.2298 301.174C72.5773 296.638 74.1097 292.157 75.5912 287.667C76.0354 286.32 76.5863 285.007 77.0839 283.678C78.7409 279.249 80.298 274.759 82.4192 270.542C84.4617 266.486 86.174 262.263 88.5799 258.378C90.7232 254.911 92.5049 251.222 94.6494 247.759C96.6719 244.492 98.6253 241.174 100.729 237.97C102.543 235.21 104.439 232.493 106.354 229.797C109.064 225.993 111.821 222.22 114.61 218.471C115.595 217.147 116.749 215.954 117.799 214.679C119.411 212.72 120.965 210.718 122.598 208.775C124.308 206.742 125.948 204.647 127.786 202.724C130.358 200.031 132.945 197.348 135.534 194.668C138.367 191.734 141.201 188.804 144.231 186.063C148.137 182.529 152.101 179.035 156.348 175.938C161.449 172.213 166.563 168.445 172.357 165.79C173.435 165.295 174.543 164.865 175.717 164.658C177.654 164.317 179.053 165.107 179.767 166.947C180.745 169.471 181.108 172.057 180.824 174.775C180.33 179.55 179.368 184.229 178.387 188.923C176.918 195.935 174.943 202.821 173.372 209.801C172.699 212.787 171.98 215.766 171.341 218.816L171.334 218.819ZM153.322 298.795C151.067 299.028 149.131 299.498 147.257 298.536C146.801 298.302 146.61 298.779 146.635 299.126C146.795 301.296 145.988 303.321 145.676 305.417C144.468 313.552 143.466 321.711 142.603 329.885C142.053 335.117 141.646 340.364 141.365 345.618C141.154 349.564 141.031 353.515 140.839 357.458C140.527 363.782 140.496 370.105 140.402 376.429C140.318 381.923 140.476 387.421 140.559 392.918C140.566 393.421 140.448 393.995 140.91 394.749C143.655 362.458 148.033 330.687 153.321 298.791L153.322 298.795ZM164.279 238.172C164.094 238.528 163.827 238.865 163.744 239.242C163.319 241.104 162.211 242.668 161.5 244.411C160.075 247.918 158.625 251.414 157.334 254.978C155.865 259.037 154.692 263.185 153.609 267.352C152.286 272.441 150.996 277.533 149.848 282.668C149.06 286.18 148.749 289.781 147.73 293.251C147.039 295.612 147.615 296.377 150.003 296.735C152.174 297.061 153.8 295.942 154.169 293.772C154.864 289.691 155.462 285.596 156.191 281.523C156.858 277.799 157.568 274.084 158.245 270.365C158.699 267.868 158.925 265.328 159.587 262.859C160.152 260.751 160.565 258.593 160.925 256.442C161.693 251.841 162.695 247.29 163.73 242.74C164.062 241.274 164.73 239.854 164.279 238.172ZM145.803 293.062C148.599 280.297 151.117 267.805 155.101 255.665C154.48 256.294 154.186 257.068 153.9 257.842C151.765 263.602 149.876 269.443 148.129 275.329C147.775 276.523 147.765 277.767 147.427 278.974C146.445 282.507 145.771 286.11 145.626 289.788C145.588 290.777 145.544 291.773 145.803 293.062Z" fill="#E8D9D9"/>
<path d="M284.862 138.159C285.016 137.15 285.646 136.549 286.135 135.961C287.881 133.873 289.405 131.636 290.894 129.367C290.993 129.218 291.081 129.062 291.199 128.934C293.292 126.603 294.87 123.905 296.676 121.373C298.455 118.878 300.442 116.528 302.309 114.094C304.247 111.568 306.076 108.953 308.095 106.489C309.889 104.301 311.496 101.949 313.531 99.9661C313.918 99.5875 314.497 98.8028 314.974 99.2822C315.541 99.8492 314.755 100.468 314.332 100.856C310.108 104.708 307.027 109.498 303.542 113.957C301.692 116.326 299.701 118.606 298.062 121.116C296.908 122.881 295.545 124.486 294.419 126.274C292.784 128.865 290.891 131.293 289.124 133.8C288.683 134.422 288.319 135.085 287.986 135.781C287.402 136.998 286.525 138.008 284.862 138.159Z" fill="#E8D9D9"/>
<path d="M202.691 266.835C203.042 266.718 203.384 266.703 203.679 266.961C203.941 267.194 204.178 267.421 204.582 267.4C204.988 267.375 205.469 267.383 205.501 267.945C205.525 268.395 205.173 268.635 204.817 268.872C203.593 269.701 202.816 269.669 202.149 268.722C201.7 268.086 201.987 267.098 202.695 266.834L202.691 266.835Z" fill="#E8D9D9"/>
</svg>
