<svg width="256" height="113" viewBox="0 0 256 113" fill="none" xmlns="http://www.w3.org/2000/svg">
<path d="M144.721 5.28394C144.735 5.12311 144.807 4.98934 144.944 4.90972C145.531 4.56735 146.12 4.22976 146.711 3.89535C147.39 3.51476 148.073 3.14213 148.751 2.75995C148.807 2.7281 148.835 2.65325 148.878 2.59433C148.708 2.46535 148.579 2.58637 148.442 2.63255C148.06 2.76154 147.686 2.92397 147.296 3.01314C145.901 3.32844 144.569 3.85872 143.273 4.41925C141.291 5.27757 139.251 6.02283 137.362 7.08975C136.313 7.68373 135.225 8.21082 134.164 8.77772C132.41 9.71566 130.744 10.7906 129.027 11.7826C127.85 12.4626 126.745 13.2572 125.548 13.9117C124.892 14.27 124.32 14.7859 123.712 15.2302C123.28 15.5471 122.732 15.6156 122.357 16.0201C122.013 16.3895 121.552 16.6141 121.129 16.8848C120.565 17.2462 120.017 17.6507 119.493 18.0648C118.643 18.7368 117.707 19.2814 116.856 19.9518C115.711 20.8563 114.511 21.6891 113.343 22.5665C112.396 23.2768 111.441 23.979 110.531 24.7354C109.448 25.6367 108.308 26.4648 107.272 27.425C106.811 27.8502 106.284 28.2053 105.795 28.6034C104.934 29.3009 104.114 30.0478 103.262 30.7548C102.572 31.3265 101.916 31.9523 101.267 32.5781C100.757 33.0686 100.227 33.5352 99.6821 33.9826C98.7855 34.7183 97.9925 35.5639 97.1613 36.3665C95.3316 38.1373 93.4939 39.9081 91.7534 41.7648C89.5813 44.0818 87.3885 46.3829 85.3216 48.797C84.304 49.9849 83.3788 51.2541 82.331 52.407C81.0395 53.8291 79.9599 55.4103 78.7417 56.8849C78.6015 57.0553 78.4391 57.2161 78.3722 57.506C78.9885 57.369 79.5777 57.2607 80.1541 57.1031C81.5188 56.7289 82.9043 56.4709 84.3056 56.2894C84.7722 56.2288 85.1352 56.0792 85.4458 55.6667C86.1098 54.7829 86.7659 53.88 87.6194 53.1571C87.7452 53.0504 87.8089 52.9341 87.844 52.7812C87.8949 52.5519 88.0398 52.3672 88.207 52.2143C89.5494 50.9961 90.6307 49.5422 91.8234 48.1919C93.521 46.2698 95.2169 44.3541 97.0402 42.5467C98.018 41.5785 98.8397 40.4383 99.8811 39.5338C101.157 38.4255 102.243 37.1261 103.558 36.0592C104.219 35.5241 104.77 34.8553 105.385 34.2613C106.923 32.774 108.571 31.4093 110.183 30.0032C111.055 29.242 111.906 28.4522 112.786 27.6989C114.146 26.5349 115.555 25.4265 116.88 24.2259C118.036 23.178 119.302 22.2719 120.506 21.291C121.484 20.4932 122.403 19.5919 123.538 18.9915C123.627 18.9454 123.702 18.8721 123.793 18.8323C123.892 18.7893 123.994 18.8068 124.062 18.9008C124.131 18.9979 124.107 19.0966 124.024 19.1667C123.675 19.4581 123.326 19.7495 122.968 20.0282C121.995 20.783 121.001 21.514 120.043 22.2879C117.474 24.3596 114.888 26.4091 112.421 28.6034C110.936 29.9251 109.499 31.2994 108.025 32.6291C106.716 33.8107 105.448 35.04 104.127 36.2009C102.714 37.443 101.431 38.8125 100.082 40.1119C98.6916 41.4511 97.3619 42.8684 96.0354 44.2809C94.9669 45.421 93.935 46.5947 92.8681 47.7348C91.8027 48.8718 90.8154 50.0821 89.7883 51.2541C89.4571 51.6331 89.1052 51.9946 88.7676 52.3688C87.7882 53.4532 87.0095 54.7049 85.9713 55.7416C85.9299 55.783 85.9442 55.8785 85.9219 56.0123C86.4442 55.9374 86.9331 55.8737 87.4204 55.7957C88.8902 55.56 90.368 55.388 91.8505 55.2479C92.6021 55.1762 93.3474 55.0393 94.0974 54.9501C94.4732 54.9055 94.7519 54.7256 95.0051 54.4597C96.1676 53.2335 97.3141 51.9914 98.5068 50.7955C100.446 48.8511 102.302 46.8176 104.459 45.0962C105.128 44.5627 105.733 43.9465 106.37 43.3732C106.711 43.0658 107.096 42.8254 107.531 42.6773C107.724 42.6104 107.928 42.5754 108.084 42.7728C108.259 42.9974 108.154 43.1678 108.022 43.3811C107.361 44.4433 106.426 45.2714 105.571 46.1504C103.462 48.3177 101.282 50.4165 99.0339 52.4436C98.3412 53.0679 97.6947 53.7431 96.9797 54.3466C96.8714 54.4374 96.717 54.5154 96.7217 54.7176C97.7536 54.6364 98.7823 54.5695 99.8079 54.4708C100.29 54.4246 100.717 54.2288 101.107 53.9135C102.007 53.1825 102.935 52.485 103.851 51.7716C104.112 51.5678 104.397 51.407 104.709 51.3003C104.834 51.2573 104.961 51.2525 105.056 51.3624C105.15 51.4691 105.141 51.5981 105.09 51.7159C105.041 51.8306 104.996 51.9659 104.905 52.0408C104.236 52.5901 103.735 53.2908 103.173 53.9357C103.076 54.0472 102.883 54.0456 102.84 54.2765C103.005 54.396 103.206 54.3291 103.391 54.3195C106.389 54.1682 109.388 53.9994 112.391 54.0281C113.261 54.0361 113.754 53.4596 114.374 53.0583C114.531 52.9564 114.455 52.8035 114.393 52.6554C114.133 52.0376 114.24 51.4309 114.431 50.813C114.845 49.477 115.493 48.2603 116.231 47.0803C116.926 45.9704 117.586 44.8366 118.28 43.7267C118.641 43.1502 119.032 42.5897 119.435 42.0419C120.376 40.7648 121.366 39.5211 122.269 38.2185C122.887 37.3283 123.605 36.5162 124.237 35.6069C124.024 35.3665 123.718 35.3872 123.471 35.3378C121.823 35.0114 120.288 34.3903 118.82 33.5989C117.802 33.0511 117.038 32.2023 116.375 31.2739C116.028 30.7882 115.898 30.1943 116.001 29.6098C116.202 28.4585 116.562 27.3789 117.385 26.4791C119.425 24.2481 121.769 22.3993 124.282 20.7321C126.408 19.3212 128.616 18.0568 130.86 16.8545C132.348 16.0583 133.871 15.3258 135.4 14.6124C137.298 13.7286 139.192 12.8352 141.133 12.047C143.515 11.0788 145.937 10.2141 148.35 9.32711C150.315 8.60415 152.323 8.01177 154.317 7.38117C157.323 6.43049 160.35 5.54988 163.408 4.78711C166.271 4.0737 169.131 3.34755 172.053 2.88734C173.771 2.61663 175.445 2.10864 177.171 1.86341C178.418 1.68665 179.66 1.49397 180.921 1.42549C182.659 1.33154 184.388 1.10542 186.135 1.13089C188.436 1.16434 190.721 1.32199 192.958 1.89207C193.705 2.08157 194.487 2.22011 195.091 2.74721C195.081 2.98289 194.917 2.8969 194.814 2.92237C194.737 2.94148 194.67 2.97811 194.667 3.0641C194.664 3.14691 194.721 3.20423 194.799 3.22016C195.067 3.27748 195.345 3.1899 195.615 3.32526C197.178 4.10395 197.952 5.62313 197.072 7.3318C196.455 8.52931 195.627 9.57234 194.731 10.5708C192.855 12.6569 190.848 14.6124 188.753 16.4723C185.621 19.2527 182.391 21.9168 179.069 24.4679C178.009 25.2816 176.996 26.1543 175.927 26.96C173.956 28.4474 172.015 29.9761 170.074 31.5048C168.769 32.5319 167.489 33.5861 166.204 34.6244C166.312 34.8871 166.516 34.8107 166.675 34.8155C168.844 34.876 171.015 34.9222 173.179 35.0926C175.719 35.2916 178.257 35.513 180.735 36.1595C181.496 36.3586 182.235 36.6133 182.78 37.2328C183.276 37.7997 183.288 38.2281 182.904 38.8491C182.124 40.1135 180.942 40.9224 179.724 41.6836C178.267 42.5945 176.685 43.2713 175.136 44.0038C172.515 45.2411 169.873 46.4354 167.241 47.6488C165.707 48.3559 164.158 49.0311 162.645 49.7779C161.108 50.5359 159.599 51.3528 158.092 52.1729C157.79 52.337 157.414 52.3895 157.13 52.7701C157.723 52.7701 158.258 52.8115 158.783 52.7637C162.274 52.4389 165.761 52.0678 169.254 51.7653C172.294 51.5025 175.33 51.2015 178.37 50.942C181.034 50.7143 183.698 50.5327 186.364 50.3432C188.352 50.2031 190.333 49.977 192.32 49.8225C194.181 49.676 196.045 49.5709 197.908 49.4515C199.643 49.34 201.381 49.2333 203.118 49.125C204.504 49.0374 205.887 48.9403 207.273 48.8655C209.943 48.7221 212.614 48.5836 215.284 48.4562C218.536 48.3002 221.789 48.1505 225.044 48.1075C225.753 48.0979 226.45 47.9976 227.157 47.9753C229.806 47.8925 232.457 48.0438 235.105 47.8479C236.236 47.7651 237.374 47.8049 238.51 47.8065C242.169 47.8113 245.829 47.824 249.49 47.832C250.649 47.8352 251.81 47.7778 252.967 47.9387C253.259 47.9785 253.568 47.8925 253.869 47.8654C254.095 47.8447 254.324 47.8049 254.541 47.8989C254.593 47.9212 254.63 48.0103 254.647 48.0756C254.655 48.1059 254.604 48.1775 254.568 48.1887C254.45 48.2269 254.326 48.2667 254.205 48.2683C253.346 48.2779 252.485 48.418 251.638 48.375C250.502 48.3193 249.37 48.4244 248.235 48.3543C247.282 48.2954 246.319 48.4132 245.36 48.4291C242.989 48.4689 240.615 48.4849 238.247 48.6282C236.129 48.7556 234.01 48.7142 231.892 48.7699C230.151 48.8161 228.414 48.9132 226.673 48.9897C226.522 48.996 226.371 49.0104 226.219 49.0136C223.75 49.047 221.285 49.2046 218.818 49.3336C216.373 49.461 213.928 49.5486 211.483 49.6824C208.991 49.8177 206.5 49.9754 204.01 50.1458C200.513 50.3862 197.018 50.6346 193.524 50.9038C189.93 51.1793 186.337 51.4866 182.743 51.7732C180.58 51.9452 178.416 52.0869 176.257 52.2764C173.821 52.4898 171.387 52.7526 168.951 52.9755C167.043 53.1507 165.132 53.286 163.223 53.4612C160.537 53.7064 157.85 53.958 155.169 54.2383C154.543 54.3036 153.939 54.5313 153.401 54.8721C152.017 55.7511 150.644 56.6476 149.264 57.5314C149.157 57.5999 149.02 57.6445 149.057 57.7958C149.093 57.9407 149.246 57.9375 149.366 57.971C151.738 58.6509 154.11 59.3213 156.382 60.3166C157.463 60.7895 158.572 61.2004 159.64 61.7147C161.057 62.3963 162.401 63.2053 163.594 64.2149C164.784 65.2213 165.884 66.3376 166.664 67.7198C166.851 68.051 167.005 68.3934 167.14 68.7485C167.413 69.4587 167.408 70.1339 167.185 70.8839C166.774 72.2709 165.98 73.2678 164.745 74.0115C163.991 74.4653 163.268 74.9972 162.476 75.3682C161.178 75.9781 159.828 76.4702 158.412 76.7727C155.745 77.3444 153.044 77.3524 150.348 77.2138C147.898 77.088 145.504 76.6103 143.243 75.5768C142.058 75.0354 141.021 74.3029 140.058 73.4382C139.09 72.5687 138.388 71.5289 138.153 70.2549C137.798 68.3249 138.383 66.6099 139.609 65.1146C140.2 64.3948 140.864 63.7355 141.482 63.0381C143.029 61.2943 144.813 59.815 146.662 58.4089C146.738 58.3515 146.796 58.2703 146.872 58.1891C146.641 57.963 146.359 57.92 146.098 57.8611C144.474 57.5044 142.848 57.1572 141.221 56.8164C140.752 56.7193 140.265 56.697 139.811 56.5601C139.311 56.4104 138.961 56.5633 138.572 56.8658C136.499 58.4726 134.427 60.0809 132.316 61.6367C130.774 62.7721 129.236 63.9123 127.618 64.9442C125.984 65.9872 124.433 67.1688 122.718 68.0781C120.952 69.0128 119.441 70.3489 117.653 71.2406C117.49 71.3219 117.382 71.462 117.259 71.5894C117.014 71.841 116.699 71.8139 116.409 71.7247C116.039 71.6101 115.971 71.1292 116.269 70.8839C116.326 70.8362 116.391 70.7868 116.46 70.7629C117.433 70.4428 118.202 69.7788 119.057 69.2565C119.729 68.8456 120.291 68.2947 120.96 67.8886C122.038 67.2357 123.175 66.6863 124.218 65.9729C125.551 65.0636 126.903 64.183 128.231 63.2674C128.956 62.7673 129.706 62.3071 130.408 61.7689C132.148 60.436 133.924 59.1525 135.684 57.8452C136.384 57.3244 137.077 56.7942 137.853 56.2081C136.954 56.0346 136.16 56.1349 135.368 56.2145C133.637 56.3881 131.91 56.584 130.18 56.7591C127.169 57.0649 124.151 57.2974 121.148 57.6684C120.697 57.7241 120.242 57.7305 119.791 57.791C119.293 57.8579 118.904 58.0968 118.64 58.5554C118.059 59.557 117.473 60.5571 116.848 61.5332C116.364 62.288 115.969 63.1129 115.238 63.7005C115.903 61.7163 117.113 59.987 117.901 58.0044C117.512 58.0044 117.141 57.9821 116.774 58.0076C115.215 58.119 113.656 58.2496 112.097 58.3659C111.542 58.4073 110.988 58.4455 110.434 58.463C109.799 58.4821 109.251 58.713 108.783 59.1239C106.221 61.366 103.639 63.5874 101.118 65.8758C100.032 66.8615 98.9225 67.8026 97.7345 68.6561C97.01 69.1769 96.1931 69.5113 95.3459 69.7645C94.6516 69.9731 94.0353 69.5797 93.8633 68.8823C93.7694 68.5049 93.7678 68.1418 93.8649 67.7628C94.3856 65.7324 95.3013 63.8852 96.5211 62.1988C97.1565 61.3214 97.7409 60.4169 98.3508 59.4854C98.1263 59.3134 97.8922 59.3755 97.6836 59.3866C96.9526 59.4232 96.2217 59.4726 95.494 59.5427C95.0847 59.5809 94.7344 59.7593 94.4079 60.0268C93.6675 60.6351 92.9158 61.237 92.0129 61.5985C91.8266 61.6733 91.6371 61.7482 91.4412 61.7928C90.5686 61.9966 90.1625 61.3007 90.3584 60.5172C90.3871 60.401 90.4492 60.2927 90.5192 60.1271C90.2501 60.1685 90.1498 60.3548 90.0081 60.4679C88.5844 61.5921 87.1943 62.7642 85.734 63.8375C84.5588 64.7021 83.304 65.4633 81.8962 65.9203C81.1669 66.1576 80.4424 66.2993 79.678 66.0175C78.9343 65.7436 78.6907 65.32 78.9519 64.57C79.1191 64.0907 79.3977 63.6655 79.6748 63.2435C80.2975 62.2976 80.8755 61.3214 81.6017 60.4456C81.8039 60.2019 82.1542 60.0666 82.1893 59.6971C82.1192 59.6016 82.0316 59.5554 81.9249 59.5586C80.5347 59.608 79.1589 59.358 77.7671 59.3532C77.0712 59.3516 76.6651 59.6542 76.267 60.1701C75.6842 60.9249 75.1619 61.7259 74.5281 62.4425C74.2144 62.7976 73.9819 63.2244 73.7112 63.6177C72.6697 65.1321 71.6522 66.6656 70.5757 68.1545C69.7046 69.36 68.902 70.6085 68.0931 71.8553C66.6535 74.072 65.2522 76.3093 63.9066 78.5849C62.7505 80.5404 61.6231 82.5102 60.5386 84.504C59.1516 87.0534 57.8395 89.6427 56.677 92.3021C56.2566 93.2639 55.868 94.2576 55.7709 95.3309C55.7486 95.5745 55.5814 95.8022 55.5512 96.0475C55.5289 96.221 55.4652 96.4758 55.7279 96.5666C55.9174 96.6319 56.0703 96.5363 56.1961 96.3962C56.4302 96.1319 56.6674 95.8707 56.9971 95.7322C57.1659 95.8118 57.1404 95.944 57.0894 96.0522C56.7407 96.8007 56.1802 97.3182 55.3824 97.5507C54.8202 97.7147 54.6228 97.573 54.6419 96.9886C54.6833 95.7449 54.9174 94.5251 55.3425 93.3626C56.6404 89.8242 58.4175 86.5088 60.2138 83.2061C61.6597 80.5468 63.2187 77.9511 64.8079 75.3762C66.1567 73.1898 67.5533 71.0273 69.0231 68.9205C70.2636 67.1433 71.4229 65.3057 72.7334 63.5811C73.794 62.1845 74.7367 60.7004 75.9565 59.3723C75.6683 59.1493 75.3737 59.2958 75.1284 59.2067C74.9373 59.1366 74.7256 59.0745 74.7001 58.8356C74.6778 58.6318 74.845 58.5283 74.9931 58.4296C75.2495 58.2576 75.5425 58.1605 75.8387 58.1111C76.7623 57.9566 77.4183 57.4677 77.9773 56.7098C79.3086 54.9055 80.6605 53.1125 82.1319 51.4165C83.2864 50.0853 84.4935 48.7986 85.6177 47.4418C87.9204 44.6583 90.5113 42.1486 92.9923 39.5323C94.3633 38.0863 95.8507 36.7614 97.2966 35.3919C98.4447 34.3059 99.5993 33.2262 100.752 32.145C101.891 31.0765 103.115 30.0971 104.294 29.07C106.195 27.4123 108.214 25.9011 110.14 24.2688C111.229 23.3452 112.421 22.5363 113.573 21.6827C115.371 20.3531 117.2 19.0632 118.984 17.7112C119.906 17.0122 120.944 16.4819 121.871 15.7828C122.734 15.1299 123.729 14.6586 124.58 14.0025C125.704 13.1362 126.932 12.4499 128.136 11.7285C129.343 11.0055 130.511 10.2141 131.771 9.57553C132.328 9.29208 132.855 8.94174 133.375 8.59141C133.902 8.23471 134.502 8.02928 135.056 7.72672C136.888 6.7235 138.724 5.71708 140.658 4.93042C143.504 3.77432 146.358 2.63096 149.326 1.81086C149.598 1.73602 149.872 1.6755 150.144 1.7599C150.466 1.85863 150.539 2.19464 150.275 2.39847C150.038 2.58159 149.77 2.73128 149.503 2.86982C148.767 3.2536 148.041 3.65967 147.283 3.98771C146.404 4.36989 145.624 4.94476 144.716 5.26483L144.735 5.27757L144.721 5.28394ZM135.781 35.3792C137.274 35.3553 138.631 35.376 139.991 35.3028C142.813 35.1531 145.638 35.1085 148.46 34.9461C151.633 34.7645 154.813 34.7757 157.992 34.7598C159.96 34.7502 161.928 34.7534 163.898 34.7645C164.317 34.7677 164.726 34.7215 165.04 34.4492C166.029 33.5845 167.16 32.9078 168.153 32.0463C169.125 31.2055 170.161 30.4411 171.144 29.613C172.244 28.6846 173.435 27.8773 174.569 26.9951C176.937 25.1526 179.276 23.2736 181.603 21.377C183.479 19.8467 185.383 18.3514 187.189 16.7414C188.993 15.1331 190.823 13.5439 192.438 11.7317C193.511 10.5262 194.65 9.37648 195.562 8.03884C195.93 7.49901 196.322 6.96554 196.532 6.33335C196.745 5.69001 196.328 4.63264 195.709 4.41129C194.898 4.11988 194.248 3.60712 193.576 3.10073C193.315 2.90326 192.973 2.74084 192.599 2.80453C192.471 3.51635 192.095 2.97492 191.909 2.8953C191.379 2.67077 190.896 2.33795 190.294 2.30451C189.388 2.25355 188.484 2.16916 187.578 2.13572C186.015 2.07839 184.455 2.12775 182.893 2.23285C180.955 2.36184 179.015 2.48923 177.101 2.81727C174.617 3.24245 172.137 3.68833 169.663 4.17243C166.768 4.73774 163.89 5.37312 161.062 6.19163C157.965 7.08657 154.86 7.9624 151.804 9.00226C149.872 9.65993 147.936 10.2985 146.009 10.9705C141.716 12.4658 137.583 14.3353 133.502 16.3163C130.988 17.5377 128.542 18.896 126.183 20.4088C123.654 22.0299 121.188 23.7242 119.073 25.8899C118.376 26.6049 117.801 27.3868 117.32 28.2451C116.638 29.4602 116.845 30.4379 117.79 31.4698C119.145 32.9508 120.871 33.7008 122.75 34.1944C123.334 34.3489 123.927 34.4747 124.521 34.5925C124.823 34.6531 125.081 34.6196 125.322 34.3314C126.357 33.0941 127.446 31.9029 128.478 30.6624C130.175 28.621 132.094 26.7976 134.039 25.003C135.483 23.6701 136.97 22.3818 138.446 21.084C140.533 19.2511 142.767 17.6093 144.985 15.9548C146.515 14.813 148.108 13.7397 149.726 12.7126C151.683 11.4705 153.643 10.2412 155.696 9.15991C157.06 8.44172 158.452 7.80475 159.957 7.43849C160.194 7.38117 160.428 7.29358 160.656 7.43849C160.588 7.86526 160.363 8.06591 159.981 8.1933C158.395 8.71721 156.923 9.50706 155.452 10.2794C154.205 10.9339 153.012 11.6903 151.801 12.4116C149.654 13.6904 147.59 15.0965 145.552 16.536C143.596 17.9183 141.74 19.4279 139.891 20.9518C138.177 22.3643 136.528 23.8421 134.886 25.3358C132.981 27.0683 131.231 28.9554 129.464 30.8249C128.771 31.5574 128.113 32.3233 127.452 33.0829C126.995 33.6068 126.527 34.1244 126.15 34.7279C126.344 34.8505 126.514 34.884 126.693 34.9015C128.9 35.1292 131.105 35.3553 133.328 35.4047C134.051 35.4206 134.578 35.1929 135.077 34.7215C136.432 33.4412 137.897 32.2835 139.294 31.0494C140.386 30.0828 141.477 29.1066 142.609 28.1814C143.956 27.0795 145.251 25.9154 146.571 24.7816C148.254 23.3341 149.969 21.9216 151.614 20.4327C154.025 18.2495 156.431 16.0599 158.783 13.8098C160.116 12.5343 161.325 11.1457 162.605 9.82395C162.779 9.6456 162.916 9.42584 163.042 9.20768C163.368 8.64237 163.15 8.14553 162.508 8.05158C162.164 8.00062 161.815 7.89871 161.457 7.97514C161.212 8.02769 161.083 7.94329 161.067 7.6694C161.053 7.43531 160.992 7.22033 161.319 7.14708C162.132 6.96395 162.862 6.90503 163.535 7.62799C164.054 8.18375 164.164 8.636 163.758 9.30323C163.271 10.1026 162.701 10.8558 162.048 11.5135C160.825 12.7476 159.551 13.934 158.299 15.1411C156.286 17.0822 154.224 18.9756 152.178 20.8818C150.148 22.7704 147.999 24.5252 145.934 26.374C143.83 28.2563 141.595 29.9841 139.542 31.9268C138.94 32.4969 138.267 32.9922 137.66 33.5591C137.061 34.1196 136.321 34.5368 135.79 35.3872L135.781 35.3792ZM115.772 52.8911C116.092 53.216 116.479 53.3513 116.915 53.4118C118.477 53.63 119.844 53.0695 121.161 52.3449C121.888 51.9436 122.559 51.4739 123.083 50.7875C124.494 48.9435 126.108 47.2714 127.659 45.5484C128.839 44.2379 130.107 43.0053 131.349 41.7537C132.626 40.467 133.957 39.2329 135.204 37.9143C135.669 37.4239 136.231 37.0226 136.77 36.6054C137.075 36.3681 137.36 36.4732 137.65 36.7168C137.958 36.9748 137.727 37.1675 137.63 37.3729C137.302 38.0593 136.797 38.6293 136.372 39.252C135.674 40.2743 134.9 41.2393 134.048 42.1279C132.601 43.6375 131.08 45.0771 129.612 46.5692C127.591 48.6218 125.412 50.4913 123.131 52.2478C122.551 52.6937 122.056 53.2606 121.772 54.0233C123.682 54.0982 125.516 54.1587 127.349 54.3036C129.887 54.5027 132.429 54.6587 134.959 54.9501C135.564 55.0202 136.163 55.0186 136.77 55.0027C137.505 54.9836 138.22 54.8211 138.95 54.7638C139.58 54.7144 140.12 54.4724 140.579 54.0472C141.577 53.1204 142.711 52.3624 143.749 51.4834C145.248 50.2158 146.829 49.047 148.356 47.8129C150.316 46.2284 152.246 44.6073 154.21 43.0276C156.468 41.2123 158.75 39.4256 161.019 37.6245C161.834 36.978 162.645 36.3267 163.522 35.6276C162.995 35.4732 162.567 35.5671 162.148 35.5703C159.272 35.5878 156.395 35.5862 153.52 35.6579C150.469 35.7343 147.42 35.9015 144.369 35.9971C141.469 36.0878 138.574 36.3012 135.669 36.2407C134.989 36.2264 134.293 36.3378 133.779 36.8602C133.142 37.5067 132.433 38.0736 131.752 38.6628C129.636 40.4925 127.554 42.3588 125.473 44.2283C123.766 45.7602 122.049 47.2826 120.339 48.8097C118.836 50.1521 117.334 51.4946 115.774 52.8895L115.772 52.8911ZM151.527 76.3173C152.216 76.5004 153.047 76.3109 153.877 76.3046C157.261 76.2807 160.479 75.5673 163.464 73.9239C164.532 73.3347 165.518 72.6563 166.19 71.5942C166.827 70.5893 166.838 69.5383 166.402 68.4921C166.163 67.9173 165.806 67.3822 165.417 66.8806C164.333 65.4776 162.85 64.5604 161.409 63.5954C159.916 62.5954 158.229 61.9695 156.614 61.2084C155.388 60.6287 154.083 60.2274 152.785 59.8277C151.412 59.4041 150.057 58.9248 148.67 58.5426C148.16 58.4025 147.738 58.4487 147.334 58.7879C146.64 59.3707 145.923 59.928 145.233 60.5172C143.463 62.0285 141.958 63.7929 140.455 65.5573C140.041 66.043 139.746 66.5955 139.485 67.1704C138.63 69.0479 139.077 70.8776 140.212 72.177C141.872 74.0783 144.065 75.0593 146.445 75.6724C148.06 76.088 149.713 76.2886 151.525 76.3189L151.527 76.3173ZM141.706 54.4214C141.918 54.4389 141.994 54.4597 142.066 54.4485C144.41 54.0902 146.778 53.9469 149.133 53.6889C150.66 53.5217 152.192 53.3895 153.721 53.2192C154.323 53.1523 154.904 52.9978 155.433 52.665C156.885 51.7541 158.401 50.9515 159.924 50.1633C161.468 49.3639 163.048 48.6377 164.626 47.9052C167.048 46.7794 169.456 45.6201 171.856 44.4433C174.388 43.2012 177.007 42.1391 179.45 40.7106C180.112 40.3237 180.697 39.8762 181.253 39.3698C181.475 39.166 181.654 38.9144 181.878 38.7137C182.393 38.2535 182.485 38.1787 181.796 37.6293C181.66 37.521 181.49 37.4541 181.329 37.3809C180.244 36.884 179.101 36.6229 177.923 36.4398C173.975 35.8315 169.997 35.7057 166.016 35.599C165.416 35.583 164.879 35.7295 164.395 36.1117C163.328 36.9541 162.234 37.7631 161.17 38.6102C159.24 40.1501 157.323 41.7075 155.403 43.2601C154.189 44.2426 152.977 45.2252 151.772 46.2173C150.508 47.2587 149.288 48.3591 147.982 49.3448C145.872 50.9404 143.88 52.6777 141.703 54.4183L141.706 54.4214ZM133.061 36.3649C133.031 36.3076 133.002 36.2503 132.972 36.1929C131.206 36.1818 129.449 36.0273 127.691 35.8967C127.088 35.8522 126.499 35.7041 125.889 35.7168C125.481 35.7248 125.193 35.849 124.924 36.1818C124.035 37.2774 123.164 38.3825 122.302 39.4988C121.011 41.1725 119.812 42.9146 118.622 44.6551C117.603 46.1472 116.683 47.7205 115.858 49.3384C115.571 49.9005 115.297 50.4722 115.203 51.1012C115.152 51.4436 115.02 51.8194 115.285 52.1745C121.232 46.8845 127.147 41.6247 133.061 36.3649ZM108.004 58.7704C107.88 58.6748 107.754 58.6971 107.636 58.7051C105.222 58.8723 102.808 59.0411 100.394 59.2083C99.6805 59.2576 99.1582 59.6255 98.7823 60.2035C97.4797 62.21 96.1851 64.2228 95.2137 66.4188C94.951 67.0127 94.6309 67.5988 94.658 68.2867C94.6786 68.8138 94.806 68.9555 95.2933 68.8233C96.072 68.6131 96.8173 68.3042 97.4718 67.8217C98.7712 66.8615 99.9337 65.7388 101.15 64.6814C102.042 63.9059 102.951 63.1511 103.846 62.3804C105.23 61.1893 106.58 59.9567 108.004 58.7704ZM89.6816 59.6764C89.5606 59.6478 89.438 59.5952 89.317 59.5936C87.5016 59.5761 85.6878 59.5666 83.8725 59.5554C83.3008 59.5522 82.8501 59.7831 82.5205 60.2529C81.9138 61.116 81.2656 61.9536 80.7083 62.847C80.3659 63.3964 79.9567 63.9218 79.7751 64.5668C79.6302 65.0779 79.6971 65.2038 80.229 65.2531C80.6812 65.2961 81.1271 65.269 81.5762 65.1496C82.9011 64.8025 83.9823 64.0094 85.0715 63.2467C85.9155 62.6559 86.7006 61.9791 87.508 61.3358C87.9204 61.0077 88.4252 60.8103 88.7867 60.4153C89.0431 60.1335 89.3377 59.9073 89.6816 59.6749V59.6764ZM100.26 58.1398C100.376 58.1796 100.454 58.2369 100.51 58.221C101.435 57.9407 102.384 58.2449 103.34 58.0426C104.826 57.7289 106.389 57.928 107.88 57.533C107.952 57.5139 108.034 57.4948 108.104 57.5107C109.167 57.7305 109.874 57.1365 110.542 56.4534C110.754 56.2368 110.966 56.0218 111.176 55.8053C111.428 55.5473 111.788 55.3817 111.926 55.009C111.861 54.9788 111.84 54.9597 111.818 54.9597C108.745 54.9215 105.679 55.1985 102.606 55.1476C102.333 55.1428 102.133 55.2606 101.98 55.4947C101.733 55.8737 101.446 56.2272 101.204 56.6094C100.889 57.1094 100.489 57.5617 100.262 58.1413L100.26 58.1398ZM83.8135 58.5172C84.0922 58.5506 84.2387 58.5872 84.3836 58.5825C86.5015 58.5092 88.6195 58.5395 90.7374 58.5713C91.0925 58.5761 91.333 58.4582 91.5702 58.1732C92.0559 57.5951 92.6053 57.0712 93.1244 56.5218C93.2566 56.3817 93.462 56.2894 93.4509 56.0027C93.0369 55.7909 92.626 56.0409 92.2231 56.076C90.8951 56.197 89.5638 56.3276 88.2453 56.5282C87.449 56.6492 86.6608 56.8244 85.8534 56.8451C85.4888 56.8547 85.1337 56.9454 84.8884 57.2002C84.5285 57.576 84.2244 58.006 83.8135 58.5156V58.5172ZM119.659 55.0393C119.513 54.9963 119.444 54.9613 119.374 54.9565C117.54 54.845 115.702 54.845 113.864 54.8641C113.633 54.8673 113.414 54.931 113.237 55.0903C112.506 55.7479 111.78 56.4072 111.05 57.0649C110.953 57.1524 110.856 57.2432 110.934 57.3834C110.988 57.4837 111.1 57.4789 111.202 57.4741C111.378 57.4646 111.554 57.4534 111.73 57.4391C112.91 57.3404 114.084 57.1827 115.27 57.1381C116.226 57.1015 117.18 56.9916 118.133 56.9152C118.395 56.8945 118.656 56.8451 118.786 56.6015C119.057 56.0967 119.457 55.6619 119.661 55.0393H119.659ZM140.972 55.7368C141.087 55.9549 141.276 55.9422 141.443 55.9741C143.047 56.2846 144.643 56.6381 146.213 57.084C147.265 57.3833 148.159 57.3706 149.084 56.6477C150.057 55.8865 151.086 55.1794 152.173 54.552C148.425 54.8912 144.697 55.2304 140.972 55.7352V55.7368ZM131.905 55.4947C130.403 55.2845 128.895 55.2336 127.389 55.146C125.4 55.0297 123.409 54.9087 121.415 54.9342C121.239 54.9358 121.024 54.8944 120.922 55.0536C120.586 55.568 120.064 55.9677 119.884 56.7384C123.775 56.3021 127.599 55.9454 131.429 55.6492C131.597 55.6365 131.787 55.6715 131.906 55.4947H131.905ZM98.7823 55.5807C98.76 55.5234 98.7393 55.4677 98.717 55.4103C97.7441 55.4836 96.7695 55.5489 95.7981 55.6365C95.572 55.6572 95.3889 55.8084 95.2089 55.9534C94.6229 56.4247 94.15 57.0171 93.521 57.4502C93.1499 57.705 92.884 58.1143 92.5559 58.4694C93.3522 58.4694 94.0783 58.4742 94.8029 58.4678C95.0385 58.4662 95.2424 58.3579 95.4096 58.1971C95.9542 57.67 96.6023 57.2782 97.2026 56.8244C97.7361 56.4199 98.2552 55.9979 98.7823 55.5839V55.5807ZM137.239 37.2742C136.886 37.4 135.486 38.2663 135.324 38.3921C135.112 38.5577 134.981 38.7551 134.97 39.0275C134.962 39.2106 134.886 39.3619 134.755 39.494C133.588 40.6756 132.445 41.8779 131.333 43.1136C130.392 44.1598 129.363 45.128 128.381 46.136C128.081 46.4434 127.796 46.7682 127.55 47.1998C128.093 47.2237 128.346 46.9195 128.569 46.6313C129.464 45.4704 130.57 44.5134 131.577 43.4608C132.93 42.0451 134.414 40.7441 135.368 38.9845C135.582 38.5911 135.927 38.2822 136.329 38.0433C136.622 37.8698 136.948 37.7185 137.239 37.2742ZM97.6804 58.4391C97.8078 58.4391 97.9081 58.4344 98.0084 58.4391C98.7584 58.4773 99.2808 58.1987 99.62 57.4805C99.8955 56.8993 100.314 56.3849 100.671 55.8419C100.768 55.6938 101.087 55.6221 100.903 55.3801C100.752 55.181 100.529 55.3339 100.352 55.4071C100.217 55.4645 100.093 55.5552 99.9751 55.646C99.1215 56.3021 98.2584 56.9454 97.4288 57.6302C97.1963 57.8213 96.6947 57.9407 96.8141 58.2783C96.9303 58.6063 97.4065 58.3324 97.682 58.4391H97.6804ZM83.9011 57.1954C82.1526 57.5299 80.487 58.006 78.7846 58.334C79.9439 58.4582 81.0937 58.5219 82.245 58.5665C83.1383 58.6016 83.5938 58.2369 83.9011 57.1954ZM93.8235 59.7003C93.8108 59.6414 93.7964 59.5825 93.7837 59.5252C93.3872 59.5252 92.9875 59.4949 92.5942 59.5315C91.9636 59.5905 91.4174 59.8134 91.1785 60.4774C91.1275 60.6176 91.0415 60.7641 91.1737 60.8978C91.2979 61.0205 91.4556 60.9886 91.5973 60.9329C92.3919 60.6128 93.091 60.1271 93.8235 59.7019V59.7003ZM115.574 53.9628C115.393 53.7956 115.224 53.6571 115.009 53.6045C114.875 53.5727 114.759 53.6587 114.738 53.7988C114.721 53.915 114.816 53.974 114.925 53.974C115.122 53.974 115.318 54.0584 115.573 53.9628H115.574ZM120.017 53.837C119.954 53.9342 119.96 53.9803 120.013 53.9899C120.377 54.0536 120.669 53.9803 120.817 53.4867C120.49 53.63 120.236 53.7415 120.017 53.8386V53.837ZM78.463 58.8468C78.2655 58.756 78.1318 58.8054 78.0091 58.8755C77.9582 58.9041 77.9805 58.9646 78.0474 58.963C78.1795 58.9614 78.3276 59.0267 78.4646 58.8452L78.463 58.8468ZM108.187 57.7385C108.151 57.7162 108.119 57.6779 108.087 57.6795C108.007 57.6827 107.912 57.6397 107.856 57.7385C107.964 57.7799 108.073 57.8037 108.187 57.7385ZM134.723 38.9335C134.687 38.9112 134.647 38.865 134.615 38.8698C134.542 38.8825 134.475 38.9319 134.486 39.0163C134.489 39.045 134.559 39.0912 134.588 39.0848C134.66 39.0689 134.715 39.0195 134.723 38.9351V38.9335Z" fill="#E8D9D9"/>
<path d="M67.2719 35.1404C67.8197 34.9047 68.2592 34.4986 68.8659 34.4301C69.014 34.4142 69.1589 34.3505 69.3102 34.4174C69.53 34.5161 69.643 34.677 69.5013 34.8951C69.3803 35.083 69.2147 35.2455 69.0522 35.4015C67.7576 36.6388 66.3579 37.7599 65.0728 39.01C64.2686 39.7934 63.638 40.7043 63.0663 41.6486C61.6984 43.913 60.4149 46.2268 59.0343 48.4833C57.9674 50.2254 57.0183 52.0344 55.9306 53.7654C55.3414 54.7017 54.8924 55.7225 54.3557 56.6923C53.6853 57.9041 53.0022 59.1096 52.2967 60.3023C52.0515 60.7179 51.8652 61.1574 51.6359 61.5778C51.4129 61.9855 51.1725 62.3836 50.9336 62.7992C51.2282 62.9346 51.3699 62.7498 51.5196 62.6432C52.6264 61.8501 53.6933 61.0125 54.7188 60.1096C56.48 58.5602 58.1537 56.9168 59.8289 55.2814C61.4691 53.681 63.1109 52.0726 64.6157 50.3353C65.326 49.5168 66.068 48.7253 66.8021 47.9275C67.1254 47.5756 67.471 47.2428 67.6827 46.8001C67.7464 46.6679 67.8627 46.5565 67.971 46.453C68.6302 45.8351 69.3118 45.2507 69.7656 44.4338C70.0379 43.9433 70.3708 43.9019 70.7036 44.1105C70.9297 44.2522 71.0364 44.4194 70.8485 44.6663C70.6654 44.9067 70.4934 45.1567 70.2975 45.3876C67.5267 48.6632 64.8228 51.9882 62.2828 55.447C60.9229 57.299 59.5582 59.1398 58.5247 61.2036C58.1967 61.8581 57.8686 62.5094 57.6823 63.2212C57.5151 63.8582 57.7651 64.1846 58.4037 64.0397C59.1585 63.8693 59.9101 63.6336 60.5041 63.0827C61.9452 61.745 63.3561 60.3739 64.8387 59.0825C66.1349 57.9535 67.3181 56.7177 68.5315 55.5091C69.0825 54.9597 69.7242 54.5027 70.3294 54.0074C70.4456 53.9119 70.5714 53.8243 70.7036 53.751C70.8915 53.6459 71.0969 53.6237 71.2753 53.7558C71.4568 53.888 71.4664 54.0775 71.4265 54.2972C71.3214 54.888 70.9838 55.3594 70.6829 55.853C69.8309 57.2528 68.7783 58.5156 67.8802 59.8819C66.9486 61.2976 66.1684 62.7912 65.5871 64.3869C65.3833 64.9458 65.1365 65.4888 64.9119 66.0318C64.6333 65.9952 64.6078 65.8185 64.6126 65.6369C64.6269 65.1066 64.7177 64.5907 64.9024 64.0875C65.5807 62.2291 66.5139 60.5109 67.6095 58.8659C68.0984 58.1318 68.6191 57.4264 69.1446 56.7209C69.2194 56.6206 69.28 56.5043 69.3707 56.4199C69.7444 56.0696 70.0549 55.6195 70.3023 55.0696C70.0841 55.0345 69.9774 55.1779 69.866 55.2877C68.9296 56.2066 68.0012 57.1334 67.0617 58.049C65.654 59.4217 64.2718 60.823 62.7781 62.1065C62.2064 62.597 61.7398 63.2053 61.1347 63.6655C60.3289 64.277 59.5247 64.8821 58.4897 65.0684C57.2301 65.2945 56.3542 64.3646 56.6918 63.1209C57.0708 61.7227 57.7046 60.4361 58.4992 59.2274C58.7062 58.9121 58.8878 58.5809 59.1028 58.2704C59.5311 57.6509 59.9515 57.033 60.5121 56.5043C61.0678 55.9788 61.5121 55.3355 61.9325 54.6651C61.7032 54.8482 61.4611 55.017 61.2494 55.2177C59.692 56.6907 58.1807 58.2162 56.574 59.6319C55.1408 60.8947 53.878 62.3661 52.2012 63.3454C51.897 63.5238 51.6024 63.7228 51.2871 63.8789C50.5196 64.2595 49.9368 64.8248 49.4861 65.5509C48.6182 66.9459 47.9558 68.4491 47.1723 69.8871C46.6786 70.7932 46.2105 71.712 45.685 72.6022C45.2391 73.3602 44.8888 74.1739 44.4811 74.9542C43.5607 76.7218 42.61 78.4751 41.7103 80.2522C41.0383 81.5787 40.4634 82.9546 39.7755 84.2715C38.1401 87.4022 36.6702 90.6125 35.1766 93.8117C33.3723 97.6733 31.6318 101.564 29.9789 105.492C29.5027 106.623 29.0569 107.788 28.9979 109.048C28.9772 109.483 28.8339 109.887 28.6588 110.282C28.5489 110.531 28.388 110.742 28.0966 110.695C27.7622 110.639 27.6635 110.347 27.6842 110.061C27.7256 109.534 27.8036 109.01 27.8864 108.488C28.4565 104.887 29.4629 101.404 30.6652 97.9695C31.2242 96.3755 31.6668 94.7369 32.2863 93.1684C33.3246 90.5409 34.237 87.8672 35.3087 85.254C36.6193 82.0596 37.9203 78.862 39.3344 75.7122C39.9936 74.2408 40.7166 72.7949 41.4794 71.3712C42.1816 70.0591 42.8377 68.7246 43.4922 67.3886C43.9699 66.414 44.4907 65.4633 45.0592 64.5397C45.177 64.347 45.3283 64.1703 45.4238 63.9681C45.6913 63.4011 45.9015 62.8438 45.7885 62.1686C45.6292 61.2163 45.9652 60.3262 46.3713 59.4742C47.2726 57.5761 48.4208 55.8276 49.6183 54.1077C50.4384 52.9309 51.225 51.7303 52.1295 50.6124C54.05 48.2397 56.0867 45.9673 58.1505 43.7204C59.805 41.9193 61.5248 40.1788 63.2749 38.4701C63.4915 38.2583 63.716 38.0497 63.9644 37.8793C64.9454 37.2105 65.689 36.3379 66.2145 35.2853C66.5426 34.6292 66.963 34.032 67.3531 33.4174C68.6334 31.3966 69.9217 29.3806 71.2307 27.3773C72.6368 25.2275 73.9601 23.0268 75.2547 20.8117C75.9777 19.576 76.6402 18.2941 76.9762 16.8784C77.0717 16.4787 77.0828 16.0774 77.0781 15.6761C77.0717 15.0965 76.8089 14.7939 76.2484 14.6697C75.9044 14.5933 75.5589 14.5726 75.199 14.6012C72.9441 14.7796 70.8071 15.458 68.6509 16.0742C66.2703 16.7542 63.982 17.6762 61.7016 18.6205C59.4626 19.5473 57.2635 20.5649 55.1344 21.7162C53.3414 22.686 51.4941 23.5634 49.7743 24.6733C48.6119 25.4234 47.3761 26.0603 46.2153 26.8136C44.4206 27.9808 42.6403 29.1688 40.93 30.4602C39.7229 31.3711 38.4792 32.2342 37.2674 33.1419C35.5301 34.4429 33.8883 35.8601 32.1955 37.2153C30.541 38.5402 29.0505 40.0418 27.4867 41.4671C26.1602 42.6757 24.9118 43.9576 23.7079 45.2762C22.5566 46.5358 21.3814 47.7858 20.3638 49.1696C19.4068 50.4675 18.3574 51.6984 17.4274 53.0138C16.0308 54.9884 14.6263 56.955 13.3412 59.0108C12.1771 60.8724 11.0863 62.7753 10.0114 64.6846C9.04803 66.3981 8.19449 68.1736 7.29477 69.9237C6.40619 71.6515 5.60998 73.4287 4.9125 75.2361C4.1975 77.0896 3.4188 78.9305 2.92993 80.8653C2.8312 81.2554 2.7675 81.6599 2.74361 82.0596C2.71495 82.5405 2.9777 82.695 3.40765 82.4832C3.63378 82.3717 3.87742 82.2714 4.06533 82.1122C4.50484 81.7363 4.91409 81.7363 5.36156 82.1472C5.02237 82.8415 4.48732 83.2906 3.70544 83.3957C3.46339 83.4275 3.28663 83.5597 3.08439 83.6504C2.37895 83.9673 1.82797 83.6552 1.75949 82.8829C1.73083 82.5548 1.77064 82.2284 1.83115 81.9035C2.16875 80.0834 2.77228 78.3477 3.48091 76.6438C4.14973 75.037 4.71822 73.3904 5.48577 71.8235C6.51766 69.7199 7.50974 67.5988 8.62922 65.5366C9.44773 64.0302 10.3045 62.5476 11.1596 61.0635C12.4813 58.7672 13.9431 56.5585 15.4846 54.4055C16.6582 52.7653 17.8987 51.1729 19.1201 49.5693C19.4864 49.0884 19.8909 48.6362 20.2762 48.1696C21.5597 46.6154 22.8114 45.023 24.2525 43.6184C25.6395 42.2681 26.9166 40.8046 28.4263 39.5737C29.7719 38.4749 31.0028 37.236 32.3484 36.1388C33.6176 35.1037 34.866 34.0384 36.1591 33.0399C37.2738 32.18 38.4156 31.3488 39.5621 30.5287C41.1832 29.3726 42.8186 28.2356 44.4636 27.1129C45.0448 26.7164 45.6754 26.3963 46.2758 26.0285C47.1978 25.4632 48.1023 24.8724 49.0307 24.3166C50.002 23.7354 50.9543 23.1191 51.9623 22.6C53.3732 21.8723 54.7889 21.1509 56.2045 20.4311C57.754 19.6429 59.3034 18.8562 60.9054 18.1731C62.9708 17.2924 65.0537 16.4357 67.1955 15.7781C69.7688 14.9866 72.3533 14.1793 75.0573 13.9149C75.5605 13.8655 76.0669 13.8464 76.5685 13.9261C77.3965 14.0582 77.8504 14.571 77.8822 15.4118C77.9252 16.5647 77.7119 17.6571 77.2198 18.7129C76.3567 20.5681 75.3184 22.3197 74.2706 24.0746C72.7037 26.6957 70.9504 29.1958 69.3468 31.7899C68.6605 32.8998 67.9566 34.0002 67.2751 35.1404H67.2719ZM48.8937 64.8614C47.9526 64.6416 47.107 64.562 46.486 63.9139C46.3347 63.7563 46.1914 63.9219 46.1531 64.0652C45.9159 64.9617 45.3092 65.6656 44.8919 66.4666C43.274 69.5766 41.7358 72.7248 40.2516 75.8985C39.3025 77.9304 38.4092 79.9879 37.5652 82.066C36.9314 83.6265 36.3327 85.2015 35.7068 86.7636C34.702 89.2685 33.8103 91.8116 32.893 94.3468C32.0952 96.5491 31.3945 98.7865 30.6636 101.013C30.5967 101.216 30.4693 101.431 30.5506 101.799C36.1463 89.1698 42.3281 76.9766 48.8937 64.8598V64.8614ZM61.7382 41.9575C61.614 42.0754 61.4595 42.1741 61.3736 42.3142C60.9436 43.0054 60.2796 43.4815 59.7509 44.085C58.6887 45.3 57.6186 46.5071 56.6026 47.7635C55.4465 49.1951 54.3971 50.7031 53.3812 52.2319C52.1407 54.0982 50.9129 55.9709 49.7361 57.8802C48.9303 59.186 48.3045 60.5937 47.4112 61.8501C46.8045 62.7053 46.9303 63.0938 47.8427 63.5699C48.6724 64.0031 49.4829 63.7786 49.9336 62.9553C50.7807 61.4074 51.5913 59.8405 52.4512 58.3006C53.2379 56.8929 54.0404 55.4948 54.8303 54.0902C55.3606 53.1475 55.8048 52.1554 56.4147 51.2525C56.9355 50.4818 57.4021 49.6697 57.8463 48.8527C58.7954 47.1059 59.8321 45.4115 60.8815 43.7219C61.2191 43.1773 61.6857 42.698 61.7382 41.9575ZM46.6611 61.5062C49.5625 56.7512 52.3142 52.0679 55.6074 47.7301C55.2698 47.8973 55.0437 48.168 54.8207 48.4403C53.1598 50.4643 51.5865 52.5551 50.0642 54.6842C49.7552 55.1158 49.5785 55.6158 49.2743 56.0553C48.3873 57.342 47.615 58.7003 47.0449 60.1622C46.892 60.5555 46.736 60.9504 46.6611 61.5062Z" fill="#E8D9D9"/>
<path d="M124.232 18.4242C124.435 18.0389 124.772 17.8844 125.051 17.7156C126.045 17.1168 126.97 16.4273 127.885 15.7203C127.946 15.6741 128.003 15.6232 128.069 15.5881C129.236 14.94 130.247 14.0721 131.327 13.303C132.39 12.545 133.518 11.8746 134.609 11.1532C135.741 10.4048 136.841 9.60538 137.997 8.89356C139.024 8.26137 139.999 7.53681 141.095 7.02087C141.303 6.92214 141.646 6.68646 141.771 6.94602C141.921 7.25336 141.518 7.3935 141.294 7.49063C139.056 8.45564 137.149 9.9573 135.125 11.2695C134.05 11.9669 132.93 12.6087 131.921 13.3922C131.21 13.9431 130.438 14.4002 129.736 14.9639C128.717 15.7808 127.616 16.4958 126.556 17.2602C126.291 17.4497 126.053 17.6662 125.822 17.9003C125.417 18.3096 124.924 18.5946 124.232 18.4242Z" fill="#E8D9D9"/>
<path d="M73.2306 58.8477C73.3883 58.8492 73.5284 58.8907 73.6112 59.0356C73.6845 59.1661 73.7482 59.2904 73.9138 59.3381C74.081 59.3843 74.2737 59.4544 74.2084 59.6853C74.1558 59.87 73.9806 59.9178 73.8039 59.9639C73.1956 60.128 72.8867 60.0069 72.7497 59.5324C72.6573 59.2139 72.9105 58.8556 73.2322 58.8477H73.2306Z" fill="#E8D9D9"/>
<path d="M144.703 5.27051C144.485 5.36446 144.415 5.67498 144.055 5.66543C144.163 5.28484 144.485 5.35172 144.722 5.28325L144.704 5.27051H144.703Z" fill="#E8D9D9"/>
<path d="M143.367 6.03485C143.332 6.046 143.267 6.08422 143.203 6.08103C143.154 6.07785 143.143 6.003 143.192 5.97115C143.246 5.93453 143.319 5.90427 143.382 5.90746C143.442 5.91064 143.445 5.96797 143.369 6.03485H143.367Z" fill="#E8D9D9"/>
</svg>
