<svg width="219" height="97" viewBox="0 0 219 97" fill="none" xmlns="http://www.w3.org/2000/svg">
<path d="M123.805 4.52002C123.817 4.38243 123.878 4.268 123.996 4.19988C124.498 3.907 125.002 3.6182 125.508 3.33212C126.088 3.00654 126.672 2.68776 127.253 2.36082C127.3 2.33357 127.325 2.26955 127.362 2.21914C127.216 2.1088 127.106 2.21233 126.988 2.25184C126.661 2.36218 126.341 2.50113 126.008 2.57742C124.814 2.84715 123.675 3.30079 122.566 3.78031C120.87 4.51457 119.125 5.15211 117.51 6.06483C116.612 6.57296 115.682 7.02387 114.774 7.50884C113.273 8.31122 111.848 9.23075 110.38 10.0794C109.373 10.6611 108.427 11.3409 107.403 11.9008C106.842 12.2073 106.353 12.6487 105.832 13.0288C105.463 13.2999 104.995 13.3584 104.673 13.7044C104.379 14.0205 103.985 14.2126 103.623 14.4442C103.14 14.7534 102.672 15.0994 102.224 15.4536C101.496 16.0285 100.695 16.4944 99.9678 17.0679C98.9883 17.8417 97.9611 18.5541 96.9626 19.3047C96.1521 19.9123 95.3347 20.5131 94.5568 21.1602C93.6305 21.9312 92.6551 22.6396 91.7683 23.461C91.3746 23.8248 90.9237 24.1285 90.5054 24.4691C89.7684 25.0658 89.0669 25.7047 88.3381 26.3095C87.7482 26.7986 87.1869 27.334 86.6311 27.8693C86.1952 28.2889 85.7416 28.6881 85.2757 29.0709C84.5087 29.7002 83.8303 30.4236 83.1192 31.1102C81.554 32.625 79.9819 34.1399 78.4929 35.7283C76.6348 37.7104 74.7589 39.6789 72.9907 41.7441C72.1202 42.7603 71.3288 43.8461 70.4324 44.8323C69.3276 46.0488 68.404 47.4016 67.3618 48.663C67.2419 48.8088 67.103 48.9464 67.0458 49.1943C67.573 49.0772 68.077 48.9845 68.5702 48.8497C69.7376 48.5295 70.9228 48.3089 72.1216 48.1536C72.5207 48.1018 72.8313 47.9737 73.097 47.6209C73.665 46.8648 74.2263 46.0924 74.9565 45.474C75.0641 45.3827 75.1186 45.2833 75.1486 45.1525C75.1922 44.9563 75.3161 44.7983 75.4592 44.6675C76.6075 43.6254 77.5325 42.3816 78.5529 41.2264C80.0051 39.5821 81.4559 37.9433 83.0157 36.3972C83.8521 35.5689 84.555 34.5935 85.446 33.8197C86.5371 32.8716 87.4662 31.76 88.5914 30.8473C89.1568 30.3895 89.6281 29.8174 90.154 29.3093C91.4699 28.0369 92.8799 26.8694 94.2585 25.6666C95.005 25.0154 95.7325 24.3397 96.4858 23.6953C97.6492 22.6995 98.8548 21.7514 99.9882 20.7242C100.977 19.8279 102.06 19.0527 103.09 18.2136C103.927 17.5311 104.713 16.76 105.684 16.2464C105.76 16.2069 105.824 16.1443 105.902 16.1102C105.986 16.0734 106.073 16.0884 106.132 16.1688C106.191 16.2519 106.17 16.3364 106.099 16.3963C105.801 16.6456 105.503 16.8949 105.196 17.1333C104.364 17.779 103.514 18.4043 102.694 19.0663C100.496 20.8387 98.284 22.5919 96.1738 24.4691C94.9028 25.5998 93.6741 26.7754 92.4126 27.9129C91.2928 28.9237 90.2085 29.9754 89.0778 30.9685C87.8694 32.0311 86.7715 33.2026 85.6176 34.3142C84.4283 35.4599 83.2909 36.6723 82.1561 37.8807C81.242 38.8561 80.3592 39.86 79.4465 40.8354C78.5352 41.8081 77.6905 42.8434 76.8119 43.8461C76.5285 44.1703 76.2275 44.4795 75.9387 44.7996C75.1009 45.7273 74.4347 46.7981 73.5465 47.6849C73.5111 47.7203 73.5234 47.8021 73.5043 47.9165C73.9511 47.8525 74.3693 47.798 74.7862 47.7312C76.0436 47.5296 77.3077 47.3825 78.576 47.2626C79.219 47.2013 79.8566 47.0842 80.4982 47.0079C80.8197 46.9697 81.0581 46.8158 81.2747 46.5883C82.2691 45.5394 83.25 44.4768 84.2703 43.4537C85.9296 41.7904 87.5166 40.0508 89.3625 38.5782C89.9346 38.1218 90.4523 37.5946 90.9972 37.1042C91.2887 36.8413 91.6184 36.6356 91.9903 36.5089C92.1551 36.4516 92.3295 36.4217 92.463 36.5906C92.6129 36.7827 92.523 36.9284 92.4099 37.111C91.8445 38.0196 91.0449 38.728 90.3134 39.48C88.5097 41.334 86.6448 43.1295 84.7212 44.8637C84.1286 45.3977 83.5756 45.9753 82.9639 46.4916C82.8713 46.5692 82.7391 46.636 82.7432 46.809C83.626 46.7395 84.506 46.6823 85.3833 46.5978C85.7961 46.5583 86.1612 46.3908 86.4949 46.121C87.2646 45.4958 88.0588 44.8991 88.8421 44.2888C89.0655 44.1144 89.3094 43.9768 89.5764 43.8856C89.6826 43.8488 89.7916 43.8447 89.8733 43.9387C89.9537 44.03 89.9455 44.1403 89.9019 44.2411C89.8597 44.3392 89.8216 44.455 89.7439 44.519C89.1718 44.989 88.7427 45.5884 88.2618 46.1401C88.1787 46.2355 88.0138 46.2341 87.9771 46.4316C88.1187 46.5338 88.2904 46.4766 88.4484 46.4684C91.0136 46.339 93.5787 46.1946 96.148 46.2191C96.8918 46.2259 97.3141 45.7328 97.844 45.3895C97.9789 45.3023 97.9135 45.1715 97.8603 45.0448C97.6383 44.5163 97.7296 43.9973 97.893 43.4687C98.2472 42.3258 98.8017 41.285 99.4324 40.2755C100.028 39.326 100.592 38.3561 101.186 37.4066C101.495 36.9135 101.829 36.4339 102.173 35.9653C102.978 34.8728 103.826 33.8088 104.598 32.6945C105.127 31.933 105.741 31.2382 106.282 30.4604C106.099 30.2547 105.838 30.2724 105.627 30.2302C104.217 29.9509 102.903 29.4196 101.647 28.7426C100.777 28.2739 100.123 27.5478 99.5564 26.7536C99.2594 26.3382 99.1477 25.83 99.2362 25.3301C99.4079 24.3451 99.7158 23.4215 100.42 22.6518C102.165 20.7433 104.17 19.1617 106.32 17.7354C108.139 16.5284 110.028 15.4468 111.948 14.4183C113.22 13.7371 114.524 13.1105 115.831 12.5002C117.455 11.7441 119.075 10.9799 120.736 10.3056C122.774 9.47732 124.846 8.73761 126.909 7.97882C128.59 7.36035 130.308 6.85359 132.014 6.31413C134.586 5.50085 137.175 4.74752 139.791 4.09499C142.24 3.48469 144.687 2.8635 147.187 2.4698C148.657 2.23821 150.088 1.80365 151.565 1.59386C152.632 1.44265 153.694 1.27781 154.773 1.21924C156.26 1.13886 157.739 0.94542 159.233 0.967216C161.202 0.995824 163.157 1.13069 165.071 1.61838C165.71 1.78049 166.378 1.89901 166.895 2.34992C166.951 2.39896 166.989 2.39896 166.989 2.39896C166.989 2.39896 167.109 2.50663 167.109 2.52135C167.109 2.53607 167.273 2.58426 167.273 2.58426C167.273 2.58426 167.273 2.58426 167.343 2.84442C168.681 3.51058 169.343 4.81018 168.589 6.2719C168.062 7.29633 167.354 8.18861 166.587 9.04276C164.982 10.8273 163.266 12.5002 161.473 14.0913C158.793 16.4699 156.031 18.7489 153.189 20.9313C152.282 21.6274 151.415 22.3739 150.501 23.0632C148.815 24.3356 147.154 25.6434 145.493 26.9512C144.378 27.8298 143.283 28.7317 142.183 29.6199C142.276 29.8446 142.45 29.7792 142.586 29.7833C144.442 29.8351 146.299 29.8746 148.15 30.0204C150.323 30.1907 152.494 30.38 154.614 30.9331C155.265 31.1034 155.897 31.3213 156.363 31.8513C156.788 32.3362 156.798 32.7027 156.469 33.234C155.802 34.3156 154.791 35.0076 153.749 35.6588C152.502 36.438 151.15 37.017 149.824 37.6436C147.582 38.7021 145.322 39.7238 143.07 40.7619C141.758 41.3667 140.433 41.9443 139.138 42.5832C137.824 43.2317 136.532 43.9305 135.244 44.6321C134.985 44.7724 134.663 44.8174 134.421 45.1429C134.928 45.1429 135.385 45.1783 135.835 45.1375C138.821 44.8596 141.804 44.5422 144.792 44.2833C147.393 44.0586 149.99 43.8011 152.591 43.579C154.87 43.3842 157.149 43.2289 159.43 43.0668C161.13 42.947 162.824 42.7535 164.524 42.6214C166.117 42.496 167.711 42.4061 169.305 42.304C170.79 42.2086 172.276 42.1173 173.762 42.0247C174.947 41.9498 176.131 41.8667 177.316 41.8026C179.601 41.68 181.885 41.5615 184.17 41.4525C186.951 41.319 189.735 41.191 192.519 41.1542C193.125 41.146 193.722 41.0602 194.327 41.0411C196.592 40.9703 198.86 41.0997 201.126 40.9322C202.093 40.8613 203.067 40.8954 204.038 40.8967C207.169 40.9008 210.299 40.9117 213.431 40.9185C214.423 40.9213 215.416 40.8722 216.406 41.0098C216.656 41.0439 216.92 40.9703 217.178 40.9471C217.371 40.9294 217.567 40.8954 217.752 40.9757C217.797 40.9948 217.829 41.0711 217.844 41.127C217.851 41.1528 217.807 41.2141 217.776 41.2237C217.675 41.2564 217.569 41.2904 217.465 41.2918C216.731 41.3 215.994 41.4198 215.269 41.3831C214.298 41.3354 213.329 41.4253 212.358 41.3654C211.543 41.315 210.719 41.4158 209.899 41.4294C207.871 41.4634 205.839 41.4771 203.814 41.5997C202.002 41.7086 200.189 41.6732 198.377 41.7209C196.888 41.7604 195.402 41.8435 193.913 41.9089C193.783 41.9144 193.654 41.9266 193.524 41.9293C191.412 41.9579 189.303 42.0928 187.193 42.2032C185.102 42.3121 183.009 42.3871 180.918 42.5015C178.786 42.6173 176.655 42.7521 174.525 42.8979C171.533 43.1036 168.543 43.3161 165.554 43.5464C162.48 43.782 159.406 44.0449 156.332 44.2902C154.482 44.4373 152.63 44.5585 150.783 44.7206C148.699 44.9032 146.617 45.1279 144.533 45.3187C142.901 45.4685 141.266 45.5843 139.633 45.7342C137.335 45.944 135.037 46.1592 132.743 46.3989C132.207 46.4548 131.691 46.6496 131.231 46.9411C130.047 47.6931 128.872 48.4601 127.691 49.2161C127.6 49.2747 127.483 49.3128 127.514 49.4423C127.546 49.5662 127.676 49.5635 127.779 49.5921C129.808 50.1738 131.837 50.7473 133.781 51.5987C134.706 52.0033 135.654 52.3548 136.568 52.7948C137.78 53.3779 138.93 54.0699 139.95 54.9336C140.968 55.7945 141.909 56.7495 142.577 57.9319C142.736 58.2153 142.868 58.5082 142.984 58.812C143.217 59.4195 143.213 59.9971 143.022 60.6388C142.671 61.8253 141.991 62.6781 140.935 63.3143C140.29 63.7025 139.671 64.1575 138.994 64.4749C137.884 64.9967 136.729 65.4176 135.518 65.6764C133.236 66.1655 130.925 66.1723 128.619 66.0538C126.523 65.9462 124.475 65.5375 122.541 64.6534C121.527 64.1902 120.64 63.5636 119.816 62.8239C118.988 62.0801 118.387 61.1905 118.187 60.1007C117.883 58.4496 118.383 56.9824 119.432 55.7033C119.937 55.0875 120.505 54.5235 121.034 53.9269C122.358 52.4352 123.884 51.1696 125.465 49.9667C125.531 49.9177 125.58 49.8482 125.645 49.7787C125.448 49.5853 125.207 49.5485 124.983 49.4981C123.594 49.193 122.203 48.896 120.811 48.6045C120.41 48.5214 119.993 48.5023 119.605 48.3851C119.177 48.2571 118.877 48.3879 118.545 48.6467C116.771 50.0212 114.999 51.3971 113.193 52.7281C111.874 53.6994 110.558 54.6747 109.174 55.5575C107.776 56.4498 106.449 57.4606 104.982 58.2384C103.472 59.0381 102.179 60.181 100.649 60.9439C100.51 61.0134 100.417 61.1333 100.312 61.2423C100.103 61.4575 99.8329 61.4343 99.585 61.358C99.2689 61.26 99.2103 60.8486 99.4651 60.6388C99.5141 60.5979 99.57 60.5557 99.6286 60.5352C100.461 60.2614 101.119 59.6934 101.85 59.2465C102.425 58.8951 102.906 58.4237 103.478 58.0763C104.401 57.5178 105.373 57.0478 106.266 56.4375C107.406 55.6597 108.562 54.9063 109.698 54.123C110.318 53.6953 110.96 53.3016 111.561 52.8411C113.05 51.7009 114.569 50.6029 116.074 49.4845C116.673 49.039 117.266 48.5854 117.929 48.0841C117.161 47.9356 116.481 48.0214 115.804 48.0895C114.323 48.238 112.845 48.4056 111.366 48.5554C108.79 48.817 106.208 49.0159 103.639 49.3333C103.254 49.381 102.864 49.3864 102.478 49.4382C102.052 49.4954 101.72 49.6997 101.494 50.0921C100.996 50.9489 100.495 51.8044 99.961 52.6395C99.5468 53.2852 99.209 53.9909 98.5837 54.4936C99.1518 52.7962 100.187 51.3167 100.861 49.6207C100.529 49.6207 100.212 49.6017 99.8969 49.6234C98.5633 49.7188 97.2296 49.8305 95.8959 49.93C95.4219 49.9654 94.9478 49.9981 94.4737 50.0131C93.9302 50.0294 93.4616 50.2269 93.0611 50.5784C90.8692 52.4965 88.6609 54.3968 86.5044 56.3544C85.5754 57.1977 84.6259 58.0028 83.6096 58.733C82.9898 59.1784 82.2909 59.4645 81.5662 59.6811C80.9723 59.8595 80.4451 59.5231 80.2979 58.9264C80.2176 58.6035 80.2162 58.2929 80.2993 57.9687C80.7448 56.2318 81.5281 54.6516 82.5716 53.2089C83.1151 52.4583 83.6151 51.6846 84.1368 50.8876C83.9447 50.7405 83.7445 50.7936 83.566 50.8032C82.9407 50.8345 82.3155 50.8767 81.6929 50.9367C81.3428 50.9694 81.0431 51.1219 80.7638 51.3508C80.1304 51.8712 79.4874 52.3861 78.715 52.6954C78.5556 52.7594 78.3935 52.8234 78.2259 52.8616C77.4794 53.0359 77.132 52.4406 77.2996 51.7704C77.3241 51.6709 77.3772 51.5783 77.4372 51.4366C77.2069 51.472 77.1211 51.6314 76.9999 51.7281C75.782 52.6899 74.5927 53.6926 73.3435 54.6107C72.3382 55.3504 71.2647 56.0016 70.0605 56.3926C69.4366 56.5955 68.8167 56.7168 68.1628 56.4757C67.5266 56.2414 67.3182 55.879 67.5416 55.2374C67.6847 54.8273 67.9231 54.4636 68.1601 54.1026C68.6928 53.2934 69.1873 52.4583 69.8085 51.7091C69.9815 51.5006 70.2812 51.3849 70.3111 51.0688C70.2512 50.9871 70.1763 50.9476 70.085 50.9503C68.8957 50.9925 67.7187 50.7786 66.5281 50.7746C65.9328 50.7732 65.5854 51.032 65.2448 51.4734C64.7463 52.1191 64.2994 52.8043 63.7572 53.4174C63.4889 53.7212 63.29 54.0862 63.0584 54.4227C62.1675 55.7182 61.297 57.0301 60.3761 58.3038C59.6309 59.3351 58.9443 60.4031 58.2523 61.4698C57.0208 63.366 55.822 65.28 54.6709 67.2267C53.6819 68.8996 52.7174 70.5847 51.7897 72.2903C50.6032 74.4713 49.4807 76.6863 48.4862 78.9613C48.1266 79.7841 47.7942 80.6342 47.7111 81.5523C47.692 81.7608 47.549 81.9556 47.5231 82.1654C47.504 82.3139 47.4495 82.5318 47.6743 82.6095C47.8364 82.6653 47.9672 82.5836 48.0748 82.4637C48.275 82.2376 48.478 82.0142 48.76 81.8956C48.9044 81.9638 48.8826 82.0768 48.839 82.1695C48.5407 82.8097 48.0612 83.2525 47.3787 83.4514C46.8978 83.5917 46.7289 83.4704 46.7452 82.9705C46.7806 81.9065 46.9809 80.863 47.3446 79.8686C48.4549 76.8416 49.9752 74.0054 51.5118 71.18C52.7487 68.905 54.0824 66.6845 55.4419 64.4817C56.5958 62.6113 57.7905 60.7614 59.0479 58.9591C60.1091 57.4388 61.1008 55.8667 62.222 54.3914C63.1292 53.1967 63.9357 51.927 64.9792 50.7909C64.7326 50.6002 64.4806 50.7255 64.2708 50.6492C64.1074 50.5893 63.9262 50.5362 63.9044 50.3318C63.8853 50.1575 64.0283 50.0689 64.155 49.9844C64.3744 49.8373 64.625 49.7542 64.8784 49.712C65.6685 49.5799 66.2298 49.1616 66.7079 48.5132C67.8468 46.9697 69.0034 45.4358 70.2621 43.985C71.2497 42.8461 72.2823 41.7454 73.2441 40.5848C75.2139 38.2035 77.4304 36.0566 79.5528 33.8184C80.7257 32.5814 81.9981 31.448 83.235 30.2765C84.2172 29.3474 85.2048 28.4238 86.1911 27.4988C87.1651 26.5847 88.2127 25.7469 89.2208 24.8683C90.8474 23.4501 92.5747 22.1573 94.2217 20.761C95.1535 19.9709 96.1738 19.2789 97.1588 18.5487C98.6968 17.4112 100.262 16.3077 101.788 15.1512C102.577 14.5531 103.465 14.0995 104.258 13.5015C104.996 12.9429 105.847 12.5397 106.575 11.9785C107.537 11.2374 108.587 10.6502 109.617 10.0331C110.649 9.41466 111.649 8.73761 112.727 8.19134C113.204 7.94885 113.655 7.64915 114.099 7.34945C114.55 7.04431 115.063 6.86857 115.537 6.60974C117.104 5.75151 118.674 4.89056 120.33 4.21759C122.764 3.22859 125.205 2.25048 127.744 1.54891C127.977 1.48488 128.212 1.43311 128.445 1.50531C128.72 1.58977 128.783 1.87721 128.556 2.05158C128.353 2.20824 128.125 2.3363 127.896 2.45482C127.266 2.78312 126.645 3.1305 125.997 3.41113C125.245 3.73808 124.577 4.22986 123.801 4.50367L123.817 4.51457L123.805 4.52002ZM116.157 30.2656C117.435 30.2451 118.595 30.2629 119.759 30.2002C122.173 30.0721 124.589 30.034 127.003 29.895C129.718 29.7397 132.439 29.7493 135.158 29.7357C136.842 29.7275 138.525 29.7302 140.211 29.7397C140.569 29.7425 140.919 29.703 141.187 29.47C142.033 28.7303 143.001 28.1513 143.851 27.4143C144.682 26.6951 145.568 26.0412 146.409 25.3328C147.35 24.5386 148.369 23.8479 149.339 23.0932C151.365 21.5171 153.366 19.9096 155.356 18.2871C156.961 16.978 158.59 15.6988 160.135 14.3216C161.679 12.9457 163.244 11.5861 164.625 10.0359C165.543 9.00461 166.517 8.02105 167.298 6.87675C167.613 6.41494 167.948 5.95858 168.128 5.41775C168.31 4.8674 167.953 3.96285 167.423 3.77349C166.73 3.5242 166.174 3.08555 165.599 2.65234C165.277 2.49977 165.277 2.49977 164.763 2.39896C163.749 2.11439 163.908 2.18251 163.749 2.11439C163.279 1.97121 163.307 1.99982 162.792 1.97121C162.016 1.92762 161.243 1.85542 160.468 1.82681C159.131 1.77777 157.796 1.82 156.46 1.90991C154.802 2.02025 153.143 2.12923 151.505 2.40986C149.38 2.77359 147.259 3.15502 145.142 3.56915C142.665 4.05276 140.204 4.59631 137.784 5.29651C135.135 6.06211 132.478 6.81136 129.864 7.70092C128.212 8.26354 126.555 8.80981 124.907 9.38469C121.234 10.6639 117.699 12.2632 114.208 13.9578C112.057 15.0027 109.964 16.1647 107.947 17.4589C105.783 18.8457 103.673 20.2951 101.864 22.1478C101.267 22.7595 100.776 23.4283 100.364 24.1626C99.7811 25.202 99.9582 26.0384 100.766 26.9212C101.925 28.1881 103.402 28.8297 105.01 29.252C105.509 29.3842 106.016 29.4918 106.524 29.5926C106.783 29.6444 107.004 29.6158 107.21 29.3692C108.095 28.3107 109.027 27.2917 109.91 26.2305C111.362 24.4841 113.003 22.9243 114.667 21.389C115.902 20.2488 117.175 19.1467 118.437 18.0365C120.222 16.4685 122.133 15.064 124.031 13.6486C125.34 12.6718 126.702 11.7537 128.086 10.875C129.761 9.81244 131.438 8.76077 133.194 7.83579C134.361 7.2214 135.552 6.67649 136.839 6.36317C137.042 6.31413 137.242 6.2392 137.437 6.36317C137.378 6.72826 137.186 6.89991 136.859 7.00889C135.503 7.45707 134.244 8.13276 132.985 8.79346C131.918 9.35336 130.898 10.0004 129.861 10.6175C128.025 11.7114 126.26 12.9143 124.516 14.1458C122.843 15.3283 121.255 16.6197 119.673 17.9234C118.207 19.1317 116.796 20.3959 115.391 21.6737C113.762 23.1559 112.265 24.7702 110.753 26.3695C110.16 26.9961 109.598 27.6514 109.032 28.3012C108.641 28.7494 108.241 29.1921 107.918 29.7084C108.084 29.8133 108.23 29.8419 108.383 29.8569C110.271 30.0517 112.157 30.2451 114.059 30.2874C114.678 30.301 115.128 30.1062 115.555 29.703C116.714 28.6077 117.967 27.6173 119.162 26.5616C120.097 25.7347 121.03 24.8996 121.998 24.1081C123.151 23.1654 124.258 22.1696 125.388 21.1997C126.828 19.9614 128.295 18.753 129.702 17.4793C131.765 15.6116 133.823 13.7385 135.835 11.8136C136.975 10.7224 138.009 9.53454 139.104 8.40385C139.253 8.25128 139.37 8.06328 139.478 7.87665C139.757 7.39305 139.57 6.96802 139.021 6.88765C138.727 6.84405 138.429 6.75687 138.122 6.82226C137.912 6.86721 137.802 6.79501 137.788 6.5607C137.776 6.36045 137.724 6.17654 138.004 6.11387C138.7 5.95721 139.324 5.90681 139.9 6.52528C140.344 7.00071 140.438 7.3876 140.091 7.95839C139.674 8.64225 139.186 9.2866 138.628 9.84922C137.581 10.905 136.492 11.9199 135.421 12.9525C133.699 14.6131 131.935 16.2328 130.184 17.8635C128.447 19.4791 126.61 20.9803 124.843 22.5619C123.043 24.1721 121.131 25.6502 119.375 27.3122C118.86 27.7999 118.284 28.2235 117.764 28.7085C117.252 29.188 116.619 29.5449 116.165 30.2724L116.157 30.2656ZM99.0401 45.2465C99.3139 45.5244 99.6449 45.6402 100.018 45.6919C101.355 45.8786 102.523 45.399 103.65 44.7792C104.273 44.4359 104.846 44.034 105.294 43.4469C106.501 41.8694 107.883 40.439 109.209 38.965C110.219 37.8439 111.303 36.7895 112.366 35.7187C113.458 34.618 114.597 33.5623 115.664 32.4343C116.062 32.0147 116.543 31.6714 117.003 31.3145C117.265 31.1115 117.508 31.2015 117.756 31.4099C118.019 31.6306 117.822 31.7954 117.739 31.9711C117.458 32.5583 117.026 33.046 116.662 33.5786C116.066 34.4532 115.404 35.2787 114.675 36.0389C113.437 37.3303 112.136 38.5618 110.88 39.8382C109.151 41.5942 107.287 43.1935 105.335 44.6961C104.839 45.0775 104.416 45.5625 104.173 46.215C105.806 46.2791 107.376 46.3308 108.944 46.4548C111.115 46.6251 113.289 46.7586 115.454 47.0079C115.972 47.0678 116.484 47.0665 117.003 47.0528C117.632 47.0365 118.244 46.8975 118.868 46.8485C119.407 46.8063 119.869 46.5992 120.262 46.2355C121.116 45.4426 122.086 44.7942 122.974 44.0422C124.256 42.9579 125.608 41.9579 126.915 40.9022C128.592 39.5467 130.243 38.1599 131.923 36.8086C133.854 35.2556 135.806 33.7271 137.748 32.1864C138.445 31.6333 139.139 31.0761 139.889 30.4781C139.438 30.346 139.072 30.4263 138.713 30.429C136.253 30.444 133.792 30.4427 131.333 30.504C128.723 30.5694 126.114 30.7124 123.504 30.7941C121.023 30.8718 118.546 31.0543 116.062 31.0026C115.48 30.9903 114.885 31.0857 114.445 31.5325C113.9 32.0856 113.294 32.5705 112.71 33.0746C110.9 34.6398 109.119 36.2364 107.339 37.8357C105.879 39.1462 104.41 40.4486 102.947 41.755C101.661 42.9034 100.376 44.0518 99.0414 45.2451L99.0401 45.2465ZM129.627 65.2868C130.217 65.4435 130.928 65.2814 131.638 65.2759C134.533 65.2555 137.286 64.6452 139.839 63.2393C140.753 62.7353 141.596 62.155 142.171 61.2463C142.716 60.3867 142.725 59.4876 142.352 58.5926C142.148 58.1009 141.843 57.6431 141.51 57.214C140.583 56.0139 139.314 55.2292 138.081 54.4037C136.804 53.5481 135.361 53.0128 133.98 52.3616C132.931 51.8657 131.814 51.5224 130.703 51.1805C129.529 50.8182 128.37 50.4081 127.183 50.0812C126.747 49.9613 126.386 50.0008 126.04 50.291C125.446 50.7895 124.833 51.2663 124.243 51.7704C122.729 53.0632 121.441 54.5726 120.155 56.082C119.801 56.4975 119.549 56.9702 119.326 57.4619C118.594 59.0681 118.977 60.6333 119.948 61.7449C121.368 63.3715 123.244 64.2106 125.28 64.7351C126.661 65.0907 128.076 65.2623 129.626 65.2882L129.627 65.2868ZM121.226 46.5556C121.407 46.5706 121.473 46.5883 121.534 46.5788C123.539 46.2723 125.565 46.1497 127.58 45.929C128.886 45.7859 130.197 45.6729 131.504 45.5271C132.019 45.4699 132.517 45.3377 132.969 45.053C134.211 44.2738 135.508 43.5872 136.81 42.9129C138.132 42.229 139.483 41.6078 140.833 40.9812C142.905 40.0181 144.965 39.0263 147.018 38.0196C149.184 36.957 151.425 36.0484 153.515 34.8265C154.081 34.4954 154.581 34.1126 155.057 33.6794C155.247 33.5051 155.4 33.2898 155.592 33.1182C156.032 32.7245 156.111 32.6604 155.521 32.1905C155.405 32.0978 155.26 32.0406 155.122 31.978C154.194 31.5529 153.216 31.3295 152.208 31.1728C148.831 30.6525 145.428 30.5448 142.022 30.4536C141.509 30.4399 141.05 30.5653 140.636 30.8922C139.723 31.6129 138.787 32.3049 137.877 33.0296C136.226 34.3469 134.586 35.6792 132.943 37.0075C131.905 37.848 130.868 38.6885 129.837 39.5372C128.755 40.4281 127.712 41.3694 126.595 42.2127C124.79 43.5777 123.086 45.0639 121.223 46.5529L121.226 46.5556ZM113.83 31.1088C113.804 31.0598 113.78 31.0107 113.754 30.9617C112.243 30.9522 110.741 30.82 109.237 30.7083C108.72 30.6702 108.216 30.5435 107.695 30.5544C107.346 30.5612 107.099 30.6674 106.869 30.9522C106.109 31.8894 105.364 32.8348 104.627 33.7898C103.522 35.2215 102.496 36.7118 101.479 38.2008C100.607 39.4773 99.8193 40.8232 99.1136 42.2072C98.8684 42.6881 98.6341 43.1772 98.5537 43.7153C98.5101 44.0082 98.3971 44.3297 98.6232 44.6334C103.711 40.108 108.771 35.6084 113.83 31.1088ZM92.3949 50.276C92.2886 50.1942 92.181 50.2133 92.0802 50.2201C90.015 50.3632 87.9498 50.5076 85.8846 50.6506C85.2743 50.6928 84.8275 51.0075 84.506 51.502C83.3917 53.2185 82.2841 54.9404 81.4531 56.819C81.2284 57.3271 80.9546 57.8284 80.9777 58.4169C80.9954 58.8678 81.1044 58.9891 81.5213 58.876C82.1874 58.6962 82.825 58.4319 83.3848 58.0191C84.4965 57.1977 85.4909 56.2373 86.5317 55.3327C87.2946 54.6693 88.0724 54.0236 88.838 53.3642C90.0218 52.3453 91.177 51.2909 92.3949 50.276ZM76.7206 51.0511C76.6171 51.0266 76.5122 50.9816 76.4087 50.9803C74.8557 50.9653 73.304 50.9571 71.7511 50.9476C71.262 50.9448 70.8765 51.1424 70.5945 51.5442C70.0755 52.2826 69.521 52.9992 69.0442 53.7634C68.7513 54.2334 68.4012 54.6829 68.2459 55.2346C68.122 55.6719 68.1792 55.7795 68.6342 55.8218C69.0211 55.8586 69.4025 55.8354 69.7867 55.7332C70.9201 55.4363 71.845 54.7578 72.7768 54.1053C73.4988 53.5999 74.1704 53.0209 74.8611 52.4706C75.2139 52.19 75.6458 52.021 75.955 51.6832C76.1743 51.4421 76.4264 51.2486 76.7206 51.0497V51.0511ZM85.7702 49.7365C85.8696 49.7706 85.9364 49.8196 85.9841 49.806C86.7755 49.5662 87.5875 49.8264 88.4048 49.6534C89.6758 49.385 91.0136 49.5553 92.2887 49.2175C92.35 49.2011 92.4208 49.1848 92.4807 49.1984C93.3894 49.3864 93.9942 48.8783 94.5664 48.2939C94.7475 48.1086 94.9287 47.9247 95.1085 47.7394C95.3238 47.5187 95.6317 47.3771 95.7502 47.0583C95.6943 47.0324 95.6766 47.0161 95.6575 47.0161C93.0284 46.9834 90.406 47.2204 87.7768 47.1768C87.5439 47.1727 87.3722 47.2735 87.2414 47.4738C87.0303 47.798 86.7851 48.1004 86.578 48.4274C86.3083 48.8551 85.9663 49.242 85.7715 49.7379L85.7702 49.7365ZM71.7006 50.0594C71.939 50.088 72.0644 50.1193 72.1883 50.1152C74.0002 50.0526 75.812 50.0784 77.6238 50.1057C77.9276 50.1098 78.1333 50.009 78.3363 49.7651C78.7518 49.2706 79.2217 48.8224 79.6658 48.3524C79.7789 48.2326 79.9546 48.1536 79.9451 47.9083C79.5909 47.7272 79.2395 47.941 78.8948 47.971C77.7587 48.0745 76.6198 48.1863 75.4918 48.3579C74.8107 48.4614 74.1364 48.6113 73.4457 48.629C73.1338 48.6372 72.83 48.7148 72.6202 48.9328C72.3123 49.2543 72.0521 49.6221 71.7006 50.058V50.0594ZM102.365 47.0842C102.24 47.0474 102.181 47.0174 102.122 47.0133C100.552 46.918 98.9801 46.918 97.4081 46.9343C97.2105 46.937 97.0225 46.9915 96.8713 47.1278C96.246 47.6904 95.6248 48.2544 95.0009 48.817C94.9178 48.8919 94.8347 48.9696 94.9015 49.0894C94.9478 49.1753 95.0432 49.1712 95.1303 49.1671C95.2816 49.1589 95.4314 49.1494 95.5826 49.1371C96.5921 49.0527 97.5961 48.9178 98.6109 48.8796C99.4283 48.8483 100.244 48.7543 101.06 48.6889C101.284 48.6712 101.507 48.629 101.619 48.4206C101.85 47.9887 102.192 47.6168 102.367 47.0842H102.365ZM120.598 47.6808C120.696 47.8675 120.858 47.8566 121.001 47.8838C122.373 48.1495 123.738 48.4519 125.081 48.8333C125.982 49.0894 126.746 49.0785 127.537 48.4601C128.37 47.8089 129.25 47.204 130.18 46.6673C126.973 46.9575 123.784 47.2476 120.598 47.6795V47.6808ZM112.841 47.4738C111.557 47.294 110.267 47.2504 108.978 47.1754C107.276 47.076 105.574 46.9725 103.868 46.9943C103.717 46.9956 103.533 46.9602 103.446 47.0964C103.158 47.5364 102.711 47.8784 102.557 48.5377C105.887 48.1645 109.158 47.8593 112.434 47.6059C112.578 47.595 112.74 47.625 112.843 47.4738H112.841ZM84.506 47.5473C84.4869 47.4983 84.4692 47.4506 84.4501 47.4016C83.6178 47.4642 82.7841 47.5201 81.9531 47.595C81.7597 47.6127 81.603 47.7421 81.4491 47.8661C80.9477 48.2693 80.5431 48.7761 80.005 49.1466C79.6876 49.3646 79.4601 49.7147 79.1795 50.0185C79.8606 50.0185 80.4818 50.0226 81.1017 50.0171C81.3033 50.0158 81.4777 49.9231 81.6207 49.7856C82.0866 49.3346 82.641 48.9995 83.1546 48.6113C83.611 48.2653 84.0551 47.9043 84.506 47.5501V47.5473ZM117.405 31.8867C117.102 31.9943 115.905 32.7354 115.766 32.843C115.585 32.9847 115.473 33.1536 115.464 33.3865C115.457 33.5432 115.391 33.6726 115.28 33.7857C114.281 34.7965 113.303 35.825 112.352 36.8821C111.547 37.7771 110.667 38.6054 109.827 39.4677C109.57 39.7306 109.327 40.0085 109.115 40.3777C109.58 40.3981 109.797 40.1379 109.987 39.8914C110.753 38.8983 111.7 38.0796 112.561 37.1791C113.719 35.968 114.988 34.8551 115.804 33.3498C115.987 33.0133 116.282 32.749 116.626 32.5447C116.876 32.3962 117.156 32.2668 117.405 31.8867ZM83.5633 49.9926C83.6723 49.9926 83.7581 49.9885 83.8439 49.9926C84.4856 50.0253 84.9324 49.7869 85.2226 49.1725C85.4582 48.6753 85.8165 48.2353 86.1216 47.7708C86.2047 47.6441 86.4772 47.5828 86.3205 47.3757C86.1911 47.2054 86.0004 47.3362 85.8492 47.3989C85.7334 47.4479 85.6271 47.5255 85.5263 47.6032C84.7962 48.1644 84.0578 48.7148 83.3481 49.3006C83.1492 49.4641 82.7201 49.5662 82.8222 49.855C82.9217 50.1357 83.329 49.9013 83.5647 49.9926H83.5633ZM71.7756 48.9287C70.2798 49.2148 68.8549 49.6221 67.3986 49.9027C68.3903 50.009 69.3739 50.0635 70.3588 50.1016C71.123 50.1316 71.5127 49.8196 71.7756 48.9287ZM80.2639 51.0715C80.253 51.0211 80.2407 50.9707 80.2298 50.9217C79.8906 50.9217 79.5487 50.8958 79.2122 50.9271C78.6727 50.9775 78.2055 51.1683 78.0012 51.7363C77.9576 51.8562 77.884 51.9815 77.9971 52.096C78.1033 52.2009 78.2382 52.1736 78.3594 52.1259C79.0392 51.8521 79.6372 51.4366 80.2639 51.0729V51.0715ZM98.8711 46.1633C98.7158 46.0202 98.5714 45.9017 98.3875 45.8568C98.2731 45.8295 98.1737 45.9031 98.156 46.023C98.141 46.1224 98.2227 46.1728 98.3153 46.1728C98.4843 46.1728 98.6518 46.245 98.8698 46.1633H98.8711ZM102.672 46.0557C102.617 46.1388 102.623 46.1783 102.668 46.1864C102.98 46.2409 103.229 46.1783 103.356 45.756C103.076 45.8786 102.859 45.9739 102.672 46.057V46.0557ZM67.1234 50.3414C66.9545 50.2637 66.8401 50.3059 66.7352 50.3659C66.6916 50.3904 66.7106 50.4422 66.7679 50.4408C66.8809 50.4394 67.0076 50.4953 67.1248 50.34L67.1234 50.3414ZM92.5516 49.3932C92.5202 49.3741 92.493 49.3414 92.4657 49.3428C92.3976 49.3455 92.3159 49.3088 92.2682 49.3932C92.3608 49.4286 92.4535 49.4491 92.5516 49.3932ZM115.252 33.3062C115.221 33.2871 115.187 33.2476 115.16 33.2517C115.097 33.2626 115.04 33.3048 115.049 33.377C115.052 33.4015 115.112 33.441 115.137 33.4356C115.198 33.422 115.246 33.3797 115.252 33.3075V33.3062Z" fill="#E8D9D9"/>
<path d="M57.55 30.0612C58.0186 29.8596 58.3946 29.5122 58.9136 29.4536C59.0403 29.44 59.1643 29.3855 59.2937 29.4428C59.4817 29.5272 59.5784 29.6648 59.4572 29.8514C59.3536 30.0122 59.212 30.1511 59.073 30.2846C57.9655 31.3431 56.768 32.3022 55.6687 33.3715C54.9807 34.0418 54.4413 34.821 53.9522 35.6288C52.782 37.566 51.684 39.5453 50.503 41.4757C49.5902 42.966 48.7783 44.5135 47.8479 45.9943C47.3439 46.7954 46.9597 47.6686 46.5006 48.4982C45.9271 49.5349 45.3427 50.5661 44.7392 51.5865C44.5294 51.942 44.37 52.318 44.1739 52.6776C43.9831 53.0264 43.7774 53.3669 43.5731 53.7225C43.8251 53.8383 43.9464 53.6803 44.0744 53.589C45.0212 52.9106 45.9339 52.194 46.8112 51.4216C48.3179 50.0961 49.7496 48.6903 51.1827 47.2912C52.5859 45.9221 53.9904 44.5462 55.2777 43.06C55.8853 42.3598 56.5201 41.6828 57.1481 41.0003C57.4247 40.6992 57.7203 40.4145 57.9015 40.0358C57.9559 39.9227 58.0554 39.8273 58.148 39.7388C58.712 39.2102 59.2951 38.7103 59.6833 38.0114C59.9162 37.5919 60.201 37.5564 60.4857 37.7349C60.6791 37.8561 60.7704 37.9992 60.6096 38.2103C60.453 38.416 60.3059 38.6299 60.1383 38.8274C57.7679 41.6296 55.4548 44.474 53.282 47.4329C52.1186 49.0172 50.9511 50.592 50.067 52.3575C49.7864 52.9174 49.5058 53.4746 49.3464 54.0835C49.2034 54.6284 49.4172 54.9077 49.9635 54.7837C50.6092 54.6379 51.2522 54.4363 51.7603 53.965C52.9932 52.8207 54.2002 51.6478 55.4684 50.543C56.5773 49.5771 57.5895 48.52 58.6275 47.486C59.0989 47.016 59.6479 46.6251 60.1655 46.2014C60.265 46.1197 60.3726 46.0447 60.4857 45.9821C60.6464 45.8922 60.8222 45.8731 60.9747 45.9862C61.13 46.0992 61.1382 46.2613 61.1041 46.4493C61.0142 46.9547 60.7254 47.358 60.468 47.7803C59.7392 48.9777 58.8387 50.058 58.0704 51.2268C57.2734 52.4379 56.6059 53.7157 56.1087 55.0807C55.9343 55.5588 55.7232 56.0234 55.5311 56.4879C55.2927 56.4566 55.2709 56.3054 55.275 56.1501C55.2873 55.6964 55.3649 55.2551 55.5229 54.8246C56.1033 53.2348 56.9015 51.7649 57.8388 50.3577C58.257 49.7297 58.7025 49.1262 59.152 48.5227C59.216 48.4369 59.2678 48.3374 59.3455 48.2652C59.6651 47.9655 59.9308 47.5805 60.1424 47.11C59.9558 47.0801 59.8645 47.2027 59.7691 47.2967C58.9681 48.0827 58.1739 48.8755 57.3702 49.6588C56.1659 50.8331 54.9835 52.0319 53.7057 53.1299C53.2166 53.5495 52.8175 54.0699 52.2998 54.4636C51.6105 54.9867 50.9225 55.5043 50.0371 55.6637C48.9595 55.8572 48.2103 55.0616 48.4991 53.9977C48.8233 52.8016 49.3655 51.7009 50.0452 50.6669C50.2223 50.3972 50.3776 50.1138 50.5615 49.8482C50.928 49.3183 51.2876 48.7897 51.7671 48.3374C52.2426 47.8879 52.6227 47.3375 52.9823 46.764C52.7861 46.9207 52.5791 47.0651 52.3979 47.2367C51.0656 48.4968 49.7728 49.8019 48.3983 51.0129C47.1722 52.0932 46.0919 53.352 44.6575 54.1898C44.3973 54.3423 44.1452 54.5126 43.8755 54.6461C43.2189 54.9717 42.7203 55.4553 42.3348 56.0765C41.5923 57.2699 41.0256 58.5558 40.3554 59.786C39.9331 60.5611 39.5326 61.3471 39.083 62.1086C38.7016 62.7571 38.4019 63.4532 38.0532 64.1207C37.2658 65.6328 36.4525 67.1327 35.6828 68.653C35.1079 69.7878 34.6162 70.9648 34.0277 72.0914C32.6286 74.7696 31.3712 77.5159 30.0934 80.2527C28.55 83.5562 27.061 86.8843 25.647 90.245C25.2396 91.2122 24.8582 92.2094 24.8078 93.2869C24.7901 93.6588 24.6675 94.0048 24.5176 94.3427C24.4236 94.5552 24.2861 94.7364 24.0368 94.6955C23.7507 94.6478 23.6662 94.3985 23.6839 94.1533C23.7194 93.7024 23.7861 93.2542 23.8569 92.8074C24.3446 89.7273 25.2056 86.748 26.2341 83.8096C26.7123 82.446 27.091 81.0442 27.6209 79.7024C28.5091 77.4546 29.2897 75.1674 30.2065 72.9319C31.3276 70.1992 32.4406 67.4637 33.6503 64.7692C34.2143 63.5104 34.8328 62.2735 35.4853 61.0556C36.086 59.9331 36.6473 58.7915 37.2072 57.6486C37.6159 56.8149 38.0613 56.0016 38.5477 55.2115C38.6485 55.0466 38.7779 54.8954 38.8596 54.7224C39.0885 54.2374 39.2683 53.7606 39.1716 53.183C39.0354 52.3684 39.3228 51.6069 39.6702 50.8781C40.4412 49.2543 41.4234 47.7585 42.4479 46.2872C43.1494 45.2805 43.8224 44.2534 44.5961 43.297C46.239 41.2673 47.9814 39.3233 49.7469 37.4011C51.1623 35.8604 52.6336 34.3714 54.1307 32.9097C54.316 32.7285 54.508 32.5501 54.7205 32.4043C55.5597 31.8322 56.1959 31.0856 56.6454 30.1852C56.9261 29.6239 57.2857 29.1131 57.6195 28.5872C58.7147 26.8585 59.8168 25.1339 60.9366 23.4202C62.1395 21.5811 63.2715 19.6984 64.379 17.8035C64.9975 16.7464 65.5642 15.6498 65.8517 14.4387C65.9334 14.0968 65.9429 13.7535 65.9389 13.4102C65.9334 12.9143 65.7086 12.6555 65.2291 12.5492C64.9349 12.4838 64.6392 12.4661 64.3314 12.4907C62.4024 12.6432 60.5742 13.2236 58.7297 13.7508C56.6931 14.3324 54.7355 15.1212 52.7848 15.929C50.8694 16.7219 48.9881 17.5924 47.1668 18.5773C45.6328 19.4069 44.0526 20.1575 42.5814 21.107C41.5869 21.7486 40.5298 22.2936 39.5367 22.9379C38.0014 23.9365 36.4784 24.9527 35.0153 26.0575C33.9827 26.8367 32.9188 27.5751 31.8821 28.3516C30.3958 29.4645 28.9913 30.677 27.5432 31.8363C26.1278 32.9697 24.8528 34.2543 23.515 35.4735C22.3802 36.5075 21.3122 37.6041 20.2823 38.7321C19.2974 39.8096 18.2921 40.879 17.4216 42.0628C16.6029 43.1731 15.7051 44.2261 14.9095 45.3513C13.7148 47.0406 12.5133 48.723 11.414 50.4817C10.4181 52.0742 9.48499 53.7021 8.56545 55.3354C7.74128 56.8012 7.0111 58.3202 6.24142 59.8173C5.48127 61.2954 4.80014 62.8157 4.20346 64.3618C3.5918 65.9475 2.92565 67.5223 2.50744 69.1775C2.42298 69.5112 2.36849 69.8572 2.34805 70.1992C2.32353 70.6106 2.54831 70.7427 2.91612 70.5615C3.10956 70.4662 3.31799 70.3803 3.47874 70.2441C3.85472 69.9226 4.20483 69.9226 4.58762 70.2741C4.29746 70.868 3.83974 71.2522 3.17086 71.3421C2.9638 71.3694 2.81259 71.4824 2.63958 71.5601C2.03609 71.8312 1.56475 71.5642 1.50617 70.9035C1.48165 70.6228 1.5157 70.3436 1.56747 70.0657C1.85627 68.5086 2.37257 67.0237 2.97878 65.5661C3.55094 64.1915 4.03727 62.783 4.69388 61.4425C5.57663 59.6429 6.42533 57.8284 7.383 56.0642C8.08321 54.7755 8.81611 53.5073 9.54765 52.2376C10.6783 50.2732 11.9289 48.3838 13.2476 46.542C14.2516 45.1388 15.3128 43.7766 16.3576 42.4048C16.671 41.9933 17.017 41.6065 17.3467 41.2073C18.4446 39.8777 19.5154 38.5155 20.7482 37.314C21.9348 36.1587 23.0273 34.9068 24.3188 33.8538C25.4699 32.9138 26.5229 31.854 27.674 30.9154C28.7598 30.0299 29.8278 29.1185 30.9339 28.2644C31.8875 27.5288 32.8643 26.8177 33.8451 26.1161C35.2319 25.1271 36.631 24.1544 38.0382 23.194C38.5354 22.8548 39.0749 22.581 39.5884 22.2663C40.3772 21.7827 41.151 21.2773 41.9452 20.8019C42.7762 20.3046 43.5908 19.7774 44.4531 19.3333C45.6601 18.7108 46.8711 18.0937 48.0822 17.4779C49.4077 16.8036 50.7332 16.1306 52.1036 15.5462C53.8705 14.7929 55.6523 14.06 57.4846 13.4974C59.686 12.8203 61.897 12.1297 64.2101 11.9035C64.6406 11.8613 65.0738 11.8449 65.5029 11.9131C66.2113 12.0261 66.5995 12.4648 66.6268 13.1841C66.6636 14.1703 66.481 15.1049 66.0601 16.008C65.3217 17.5951 64.4335 19.0936 63.5372 20.5948C62.1967 22.8371 60.6968 24.9759 59.325 27.195C58.7379 28.1445 58.1358 29.0858 57.5527 30.0612H57.55ZM41.828 55.4866C41.0229 55.2986 40.2996 55.2305 39.7683 54.6761C39.6389 54.5412 39.5162 54.6829 39.4835 54.8055C39.2806 55.5725 38.7615 56.1746 38.4046 56.8598C37.0206 59.5203 35.7046 62.2135 34.435 64.9285C33.6231 66.6668 32.8588 68.4268 32.1368 70.2046C31.5946 71.5396 31.0824 72.8869 30.5471 74.2233C29.6875 76.3662 28.9246 78.5417 28.1399 80.7104C27.4574 82.5945 26.858 84.5085 26.2327 86.4129C26.1755 86.5873 26.0665 86.7712 26.136 87.0859C30.923 76.2817 36.2114 65.8508 41.828 55.4853V55.4866ZM52.8161 35.8931C52.7098 35.9939 52.5777 36.0784 52.5041 36.1982C52.1363 36.7895 51.5683 37.1968 51.116 37.7131C50.2073 38.7525 49.2919 39.7851 48.4228 40.8599C47.4338 42.0846 46.536 43.3747 45.6669 44.6825C44.6057 46.2791 43.5554 47.8811 42.5487 49.5144C41.8593 50.6315 41.324 51.8358 40.5597 52.9106C40.0407 53.6421 40.1483 53.9745 40.9289 54.3818C41.6387 54.7524 42.3321 54.5603 42.7176 53.856C43.4423 52.5319 44.1357 51.1914 44.8713 49.8741C45.5443 48.6698 46.2309 47.4738 46.9066 46.2722C47.3602 45.4658 47.7403 44.6171 48.262 43.8447C48.7075 43.1853 49.1066 42.4906 49.4867 41.7917C50.2986 40.2973 51.1855 38.8479 52.0832 37.4025C52.372 36.9366 52.7711 36.5266 52.8161 35.8931ZM39.9181 52.6163C42.4002 48.5486 44.7542 44.5422 47.5714 40.8313C47.2826 40.9744 47.0891 41.206 46.8984 41.4389C45.4775 43.1704 44.1316 44.959 42.8293 46.7804C42.565 47.1495 42.4138 47.5773 42.1536 47.9533C41.3948 49.054 40.7341 50.216 40.2464 51.4666C40.1156 51.8031 39.9821 52.1409 39.9181 52.6163Z" fill="#E8D9D9"/>
<path d="M106.277 15.7615C106.45 15.4318 106.739 15.2997 106.978 15.1553C107.828 14.6431 108.619 14.0532 109.402 13.4483C109.454 13.4088 109.503 13.3652 109.559 13.3353C110.558 12.7808 111.423 12.0384 112.346 11.3804C113.256 10.732 114.221 10.1585 115.154 9.54135C116.122 8.90108 117.064 8.21722 118.053 7.60828C118.931 7.06746 119.765 6.44763 120.702 6.00626C120.881 5.92179 121.174 5.72018 121.281 5.94223C121.409 6.20515 121.065 6.32503 120.873 6.40813C118.959 7.23366 117.327 8.51828 115.595 9.64079C114.676 10.2375 113.718 10.7865 112.854 11.4567C112.247 11.928 111.586 12.319 110.985 12.8013C110.113 13.5001 109.172 14.1118 108.265 14.7657C108.039 14.9278 107.834 15.113 107.637 15.3133C107.291 15.6634 106.869 15.9072 106.277 15.7615Z" fill="#E8D9D9"/>
<path d="M62.6466 50.3427C62.7815 50.3441 62.9014 50.3795 62.9722 50.5035C63.0349 50.6152 63.0893 50.7214 63.231 50.7623C63.3741 50.8018 63.5389 50.8617 63.483 51.0593C63.4381 51.2173 63.2882 51.2582 63.137 51.2977C62.6166 51.438 62.3524 51.3344 62.2352 50.9285C62.1562 50.656 62.3728 50.3495 62.648 50.3427H62.6466Z" fill="#E8D9D9"/>
<path d="M123.789 4.50912C123.602 4.58949 123.542 4.85513 123.234 4.84696C123.327 4.52138 123.602 4.57859 123.805 4.52002L123.79 4.50912H123.789Z" fill="#E8D9D9"/>
<path d="M122.646 5.163C122.616 5.17254 122.56 5.20523 122.506 5.20251C122.463 5.19979 122.454 5.13576 122.496 5.10851C122.542 5.07718 122.605 5.0513 122.658 5.05402C122.71 5.05675 122.713 5.10579 122.647 5.163H122.646Z" fill="#E8D9D9"/>
</svg>
